<?xml version="1.0" standalone="no"?>
<!DOCTYPE svg PUBLIC "-//W3C//DTD SVG 20010904//EN"
 "http://www.w3.org/TR/2001/REC-SVG-20010904/DTD/svg10.dtd">
<svg version="1.0" xmlns="http://www.w3.org/2000/svg"
 width="1206.000000pt" height="2622.000000pt" viewBox="0 0 1206.000000 2622.000000"
 preserveAspectRatio="xMidYMid meet">

<g transform="translate(0.000000,2622.000000) scale(0.100000,-0.100000)"
fill="#000000" stroke="none">
<path d="M0 13110 l0 -13110 6030 0 6030 0 0 13110 0 13110 -6030 0 -6030 0 0
-13110z m8235 5635 c11 -23 21 -68 23 -107 2 -38 5 -68 6 -68 1 0 22 10 47 22
60 30 171 36 242 13 59 -19 148 -69 254 -144 80 -56 86 -78 25 -83 -25 -2 -37
-8 -37 -18 0 -25 102 -78 194 -99 101 -24 282 -44 317 -35 13 3 36 3 50 0 24
-6 25 -9 19 -54 -15 -115 -27 -153 -61 -198 -20 -25 -34 -47 -32 -47 126 -60
171 -101 226 -204 35 -66 82 -203 82 -240 0 -13 11 -43 24 -66 14 -23 34 -76
45 -117 21 -73 51 -281 51 -348 0 -50 -25 -52 -66 -3 -33 38 -113 101 -130
101 -13 0 5 -316 22 -392 33 -148 83 -220 189 -276 73 -38 91 -66 65 -98 -19
-22 -106 -44 -201 -51 l-86 -6 -5 -97 c-6 -121 -27 -168 -104 -235 -82 -70
-97 -110 -102 -267 -4 -132 5 -221 40 -392 13 -66 16 -102 10 -108 -20 -20
-68 5 -129 67 l-63 64 0 -34 c0 -73 92 -299 249 -613 166 -332 302 -547 522
-827 273 -348 363 -522 405 -785 22 -141 15 -504 -15 -700 -72 -477 -106 -613
-273 -1083 -177 -500 -183 -521 -238 -892 -31 -211 -106 -662 -180 -1088 -141
-812 -144 -1316 -11 -1675 17 -46 31 -94 31 -108 0 -15 -23 -54 -59 -98 -32
-41 -116 -157 -186 -258 -113 -162 -148 -203 -304 -359 -205 -204 -322 -289
-574 -413 -252 -124 -386 -163 -752 -221 -121 -19 -285 -47 -365 -61 -188 -35
-434 -39 -545 -10 -91 24 -223 86 -254 119 -29 32 -22 57 16 57 21 0 24 -3 13
-10 -18 -11 -19 -11 67 -54 131 -65 206 -81 388 -80 128 1 189 6 305 28 80 14
246 42 370 62 354 55 498 98 735 217 255 127 357 200 562 400 119 117 163 168
274 325 73 103 162 225 197 271 l65 84 -41 121 c-125 372 -122 856 13 1636 77
449 166 986 195 1185 40 272 60 348 176 676 218 619 220 629 283 974 55 307
73 469 73 685 2 412 -73 601 -409 1026 -217 274 -354 494 -524 837 -95 192
-179 390 -179 420 0 9 -65 50 -162 102 -233 125 -246 133 -290 173 -54 49 -87
109 -128 232 -44 133 -57 142 -160 111 -41 -13 -85 -35 -110 -56 -23 -19 -48
-35 -56 -35 -29 0 -38 45 -26 127 6 43 9 79 7 81 -1 2 -36 -13 -76 -34 -141
-71 -241 -92 -269 -59 -11 13 -10 20 8 43 67 83 112 187 112 257 l0 35 -50
-39 c-65 -52 -107 -61 -132 -31 -10 12 -18 30 -18 39 0 14 35 81 42 81 2 0 4
-18 5 -41 0 -22 4 -43 7 -46 7 -8 66 31 100 66 38 40 73 41 87 4 23 -60 -11
-205 -67 -288 -14 -21 -23 -40 -20 -43 7 -6 78 20 195 75 60 27 101 41 114 37
21 -6 21 -21 1 -153 l-7 -45 31 23 c45 31 137 61 192 61 71 0 94 -24 126 -128
60 -198 93 -236 317 -357 87 -47 160 -85 161 -85 1 0 -8 33 -22 73 -14 42 -26
107 -29 158 -5 79 -4 88 15 107 12 12 28 19 36 16 8 -3 27 -41 41 -83 14 -43
38 -98 54 -122 30 -47 68 -85 76 -77 3 3 -1 36 -9 74 -42 201 -46 426 -10 534
14 44 33 70 90 125 84 82 94 108 94 236 0 66 4 90 16 100 9 7 59 16 117 20 56
4 117 13 135 20 l34 12 -64 33 c-75 40 -110 78 -149 159 -50 107 -61 164 -66
375 -5 175 -4 197 11 209 15 13 23 12 60 -7 24 -11 60 -35 81 -53 l37 -33 -7
70 c-17 163 -54 300 -98 358 -17 22 -23 40 -20 61 6 41 -50 192 -97 263 -45
67 -82 97 -159 127 -32 12 -57 28 -59 37 -2 9 17 41 41 72 32 38 47 67 52 98
3 23 8 55 11 71 l6 27 -74 0 c-205 0 -427 64 -492 140 -31 38 -33 57 -6 85
l21 22 -63 40 c-106 68 -131 81 -187 97 -96 28 -150 19 -252 -43 -80 -49 -96
-42 -73 34 14 50 12 112 -7 163 -9 23 -12 21 -87 -50 -121 -112 -229 -160
-451 -197 -139 -24 -211 -57 -251 -115 -48 -69 -59 -79 -76 -65 -8 6 -14 29
-14 51 l0 39 -27 -19 c-50 -35 -110 -61 -190 -83 -104 -29 -161 -58 -209 -111
-44 -48 -108 -157 -120 -203 -13 -54 -63 -103 -146 -145 -90 -45 -164 -58
-245 -41 -31 6 -58 10 -59 8 -2 -1 8 -34 21 -72 22 -66 33 -81 102 -136 22
-17 4 -33 -80 -74 -118 -58 -160 -121 -181 -274 l-7 -44 40 36 c62 56 132 64
116 14 -18 -55 -16 -98 9 -190 46 -168 33 -235 -68 -344 l-56 -61 37 9 c91 22
93 22 93 5 0 -8 -9 -30 -20 -48 -23 -38 -27 -134 -9 -187 l11 -31 20 25 c37
48 72 24 96 -65 10 -35 10 -34 11 18 1 44 4 52 20 52 19 0 30 -38 31 -110 1
-34 1 -34 16 -15 29 36 81 153 100 222 10 38 22 71 28 75 15 10 33 -8 41 -40
3 -15 22 -61 42 -101 l36 -75 21 60 c36 99 93 167 124 147 14 -9 17 -25 14
-104 -3 -98 7 -151 49 -264 l22 -60 22 80 c27 102 50 145 76 145 11 0 21 -6
23 -12 2 -7 9 -31 15 -53 6 -22 16 -49 24 -59 11 -15 13 -4 13 76 -1 115 32
238 64 238 10 0 26 -10 34 -22 15 -22 16 -20 16 29 0 186 176 313 338 243 63
-27 149 -116 186 -192 45 -93 57 -261 36 -483 -13 -127 -31 -190 -71 -238 -38
-46 -70 -63 -134 -72 -43 -5 -47 -4 -30 7 172 109 189 154 190 483 l0 210 -31
65 c-35 73 -101 147 -156 173 -77 36 -176 13 -233 -55 -32 -37 -72 -122 -84
-177 -6 -29 -12 -36 -28 -34 -28 3 -43 -38 -50 -137 -4 -53 0 -94 11 -138 13
-49 14 -67 5 -78 -6 -8 -15 -14 -20 -14 -19 0 -88 73 -107 113 l-20 42 -13
-30 c-6 -16 -15 -75 -18 -130 -5 -91 -8 -100 -26 -100 -54 0 -171 346 -151
447 3 16 2 27 -3 24 -19 -12 -53 -103 -59 -160 -9 -82 -28 -84 -74 -9 -20 32
-46 78 -58 102 l-22 44 -29 -72 c-29 -72 -78 -156 -130 -222 -16 -20 -29 -45
-29 -56 0 -11 22 -50 49 -89 62 -88 138 -264 157 -361 20 -107 18 -176 -11
-310 -14 -65 -28 -132 -31 -148 l-6 -30 82 -17 c45 -9 93 -24 107 -33 24 -16
24 -18 17 -107 l-7 -91 56 -51 c49 -45 56 -57 62 -101 11 -88 13 -93 45 -100
50 -11 78 -41 96 -105 19 -69 53 -107 127 -144 28 -14 81 -44 116 -66 36 -22
76 -40 90 -40 27 0 67 30 217 164 49 43 127 101 174 128 47 28 101 62 120 76
l35 27 -22 -30 c-32 -45 -90 -96 -173 -154 -91 -63 -209 -172 -193 -178 37
-14 110 -73 139 -112 49 -66 64 -127 71 -277 l6 -131 -34 -35 c-19 -20 -59
-46 -89 -58 -30 -12 -131 -70 -225 -128 -93 -58 -247 -151 -341 -207 -186
-111 -340 -213 -369 -245 -24 -27 -30 -25 -32 10 -2 23 6 35 35 58 64 50 187
130 314 204 68 39 216 129 331 200 114 70 231 138 260 149 28 11 63 30 75 42
23 21 24 26 20 157 -5 169 -19 204 -115 296 -37 35 -71 64 -75 64 -4 0 -28
-16 -54 -35 -68 -52 -65 -53 -284 69 -104 57 -135 86 -156 145 -9 25 -20 58
-26 72 -6 18 -21 30 -47 38 -54 16 -72 41 -80 111 -7 59 -10 64 -62 110 l-54
48 0 63 c0 35 3 76 8 91 9 34 -2 41 -108 63 -119 24 -119 23 -71 230 28 120
34 239 15 326 -17 77 -99 257 -152 331 -26 36 -47 70 -47 76 0 5 -9 8 -20 5
-31 -8 -34 20 -6 62 14 21 31 56 37 78 9 36 8 42 -14 66 -14 14 -30 37 -37 50
-15 29 -28 17 -32 -29 -2 -27 -7 -35 -23 -35 -14 0 -28 17 -50 60 -27 54 -30
70 -30 153 l0 93 -56 -6 c-43 -5 -58 -3 -68 9 -11 13 -1 28 67 99 43 45 87 98
97 117 24 46 22 119 -4 208 -12 40 -25 95 -28 122 -3 28 -9 50 -14 50 -12 0
-49 -56 -63 -97 -9 -26 -19 -38 -32 -38 -18 0 -19 9 -19 125 0 119 2 128 31
190 35 73 89 132 149 162 22 11 41 22 43 23 2 2 -8 21 -23 42 -25 40 -84 202
-85 236 0 22 13 22 78 -3 67 -26 165 -26 229 -2 27 10 80 37 119 60 71 41 71
41 77 92 13 106 90 222 185 277 24 14 80 36 124 49 116 34 181 66 227 114 53
54 77 50 67 -13 l-7 -42 38 37 c54 52 132 85 248 103 217 34 341 89 450 202
84 86 108 91 140 28z m-1871 -3116 c-1 -9 -95 -122 -210 -252 -178 -200 -212
-233 -227 -225 -10 5 -16 16 -13 24 3 8 97 117 208 244 149 168 208 228 223
227 12 -1 19 -9 19 -18z m202 -593 c6 -15 -122 -276 -136 -276 -4 0 -13 7 -20
15 -10 12 -1 36 50 132 35 65 67 124 73 131 13 16 26 15 33 -2z m-797 -83 c4
-3 -160 -193 -183 -212 -15 -12 -46 -5 -46 11 0 5 44 58 97 118 82 93 99 108
112 98 9 -7 18 -13 20 -15z m-369 -419 c0 -8 -184 -214 -191 -214 -4 0 -12 7
-19 15 -11 13 -9 19 7 38 162 184 165 187 184 176 11 -5 19 -12 19 -15z m857
-130 c-51 -103 -62 -115 -84 -93 -9 9 2 39 43 121 53 106 56 109 74 93 18 -17
17 -20 -33 -121z m-1229 -267 c8 -10 -16 -43 -99 -137 -153 -174 -141 -163
-164 -146 -17 12 -11 22 106 154 68 77 129 141 135 141 6 1 16 -5 22 -12z
m1042 -93 c0 -19 -123 -245 -132 -242 -35 12 -30 36 31 151 56 105 64 116 82
107 10 -6 19 -13 19 -16z m-268 -481 c17 -16 15 -23 -68 -182 -47 -91 -88
-168 -90 -170 -3 -3 -12 3 -21 12 -16 16 -12 27 67 187 47 94 87 170 89 170 2
0 13 -7 23 -17z m864 -530 c-3 -16 -10 -57 -16 -93 -6 -36 -24 -126 -40 -200
-39 -186 -48 -254 -74 -559 -16 -182 -20 -268 -13 -273 7 -4 6 -12 -2 -22 -31
-37 -60 -456 -81 -1136 -25 -816 -60 -1072 -220 -1631 -76 -262 -128 -397
-275 -714 -155 -334 -261 -622 -295 -803 -38 -201 -80 -517 -80 -604 0 -70 -8
-119 -40 -240 -50 -193 -79 -292 -119 -395 -18 -46 -29 -88 -25 -94 10 -17
240 -124 309 -144 48 -14 87 -16 224 -12 145 4 184 9 312 40 151 37 259 76
271 99 4 7 29 63 56 124 26 61 82 173 123 250 70 132 372 598 520 805 38 53
97 147 132 211 35 63 103 166 151 229 118 153 140 199 160 333 35 232 149 612
251 832 24 50 60 138 80 195 20 57 72 178 115 269 97 204 114 255 140 428 11
75 38 227 60 337 57 288 167 893 185 1010 8 55 16 150 17 211 3 110 3 111 25
101 30 -13 33 -34 22 -165 -13 -168 -69 -487 -194 -1122 -25 -124 -54 -288
-65 -365 -24 -156 -60 -275 -119 -393 -49 -97 -122 -269 -146 -342 -10 -30
-46 -118 -80 -195 -34 -77 -71 -167 -83 -200 -54 -150 -135 -453 -157 -585
-33 -191 -35 -196 -223 -442 -28 -37 -72 -109 -98 -159 -26 -51 -82 -140 -124
-198 -104 -146 -396 -587 -459 -695 -63 -106 -189 -358 -221 -441 -13 -33 -31
-67 -39 -76 -26 -27 -142 -68 -300 -106 -128 -31 -167 -36 -311 -40 -133 -4
-179 -2 -229 11 -86 22 -347 149 -361 176 -9 18 -6 34 15 88 45 111 64 169
116 357 44 158 51 197 59 325 9 151 14 194 56 450 29 186 57 293 119 466 62
171 125 322 225 534 171 362 287 725 380 1180 48 239 77 588 96 1181 l6 206
-78 37 c-134 64 -506 196 -553 196 -11 0 -81 15 -156 34 -133 34 -161 46 -270
122 -57 39 -100 43 -194 20 -31 -8 -99 -22 -151 -31 -52 -9 -131 -24 -175 -35
-121 -28 -301 -35 -410 -16 -170 30 -227 62 -229 128 -1 19 -10 42 -21 53 -49
49 -79 98 -81 133 -1 29 -12 48 -48 87 -106 114 -67 192 107 215 100 13 178
12 207 -3 22 -11 25 -19 25 -62 -1 -28 -4 -57 -8 -66 -6 -13 1 -18 35 -25 30
-6 47 -17 57 -36 14 -25 14 -31 -6 -77 -12 -28 -17 -51 -12 -51 17 0 39 -60
37 -101 -3 -35 1 -44 24 -61 24 -19 31 -20 75 -9 76 19 225 96 277 143 l47 43
-41 80 c-117 224 -489 827 -532 863 -39 32 -421 -83 -475 -144 -27 -30 -29
-72 -7 -117 37 -73 120 -204 181 -284 35 -47 62 -87 59 -90 -9 -9 -211 52
-228 69 -22 22 -12 57 23 77 16 9 29 19 29 23 0 4 -19 38 -42 75 -73 121 -90
165 -79 214 5 24 22 54 38 70 66 64 444 183 506 160 14 -6 44 -37 67 -70 24
-34 46 -61 50 -61 3 0 17 11 30 25 37 39 63 32 138 -38 82 -77 112 -95 230
-142 105 -42 115 -52 183 -185 54 -105 162 -220 224 -238 70 -20 257 -61 335
-73 91 -14 349 -6 500 15 58 9 165 16 237 16 129 0 133 1 137 23 3 12 12 114
21 227 20 266 36 382 85 620 22 107 40 205 40 217 0 20 33 53 53 53 5 0 6 -12
3 -27z"/>
<path d="M9112 15330 c0 -19 5 -53 13 -75 l13 -40 0 40 c0 22 -6 56 -13 75
l-13 35 0 -35z"/>
<path d="M4498 12524 l-26 -27 65 -106 c36 -58 105 -169 153 -246 115 -185
191 -315 231 -396 30 -62 31 -69 19 -99 -18 -45 -97 -100 -220 -156 -131 -60
-201 -69 -250 -33 -18 14 -42 23 -56 21 -29 -4 -31 11 -4 45 22 29 27 83 7 83
-11 0 -169 -89 -183 -103 -3 -3 -3 -15 1 -27 9 -29 51 -45 166 -65 107 -19
313 -14 409 10 30 8 114 24 185 35 85 14 148 31 182 47 50 25 55 25 95 12 24
-7 85 -41 135 -75 86 -57 103 -64 220 -92 71 -17 144 -34 163 -37 113 -22 436
-140 548 -201 l62 -34 0 43 c0 90 22 413 39 574 10 93 17 169 16 171 -7 10
-293 0 -400 -14 -260 -34 -474 -22 -676 37 -36 10 -79 19 -96 19 -90 0 -205
106 -295 272 -31 57 -65 111 -75 119 -10 9 -49 28 -88 43 -100 39 -150 71
-227 143 -37 35 -69 63 -70 63 -2 0 -15 -12 -30 -26z"/>
<path d="M3906 12095 c-18 -14 -18 -15 5 -23 13 -5 37 -12 52 -16 l28 -7 -22
31 c-25 33 -35 36 -63 15z"/>
<path d="M4185 11940 c-92 -8 -123 -16 -147 -38 -27 -23 -22 -43 22 -104 21
-31 36 -59 32 -64 -4 -4 7 3 24 17 17 14 59 33 95 43 103 29 103 29 117 81 7
27 9 52 5 56 -15 13 -67 16 -148 9z"/>
<path d="M4248 11761 c-131 -36 -146 -67 -77 -158 l42 -53 56 32 c31 17 73 41
93 52 26 15 38 29 42 51 3 16 8 45 12 63 l6 32 -53 -1 c-30 0 -84 -8 -121 -18z"/>
</g>
</svg>
