<?xml version="1.0" standalone="no"?>
<!DOCTYPE svg PUBLIC "-//W3C//DTD SVG 20010904//EN"
 "http://www.w3.org/TR/2001/REC-SVG-20010904/DTD/svg10.dtd">
<svg version="1.0" xmlns="http://www.w3.org/2000/svg"
 width="589.000000pt" height="1280.000000pt" viewBox="0 0 589.000000 1280.000000"
 preserveAspectRatio="xMidYMid meet">

<g transform="translate(0.000000,1280.000000) scale(0.100000,-0.100000)"
fill="#000000" stroke="none">
<path d="M0 6400 l0 -6400 2945 0 2945 0 0 6400 0 6400 -2945 0 -2945 0 0
-6400z m3637 6 c-236 -239 -267 -267 -317 -285 -172 -62 -375 -102 -526 -104
-121 -1 -111 -4 -208 72 -33 26 -62 40 -92 45 -24 3 -62 15 -84 26 -21 11 -44
20 -49 20 -20 0 3 -32 48 -66 25 -20 46 -40 46 -45 0 -4 33 -40 72 -78 89 -86
96 -107 54 -158 -30 -36 -31 -38 -10 -41 11 -2 44 6 72 19 48 20 70 22 297 25
135 2 294 -1 353 -6 105 -9 111 -9 158 15 26 14 56 25 66 25 16 0 64 27 233
130 318 194 414 250 423 250 24 0 -34 -40 -198 -140 -93 -57 -183 -111 -200
-120 -16 -10 -70 -42 -120 -72 -49 -30 -108 -61 -130 -70 -22 -9 -59 -23 -82
-33 -32 -13 -55 -16 -104 -10 -34 4 -191 8 -348 8 -272 0 -288 -1 -335 -21
-27 -12 -66 -22 -88 -22 -28 0 -49 -7 -70 -25 -24 -20 -33 -23 -50 -14 -14 8
-28 7 -49 -1 -25 -11 -32 -10 -49 5 -11 10 -20 22 -20 26 0 4 -11 19 -25 33
-14 14 -25 31 -25 38 0 8 -15 18 -32 23 -28 9 -33 15 -33 41 0 39 -26 70 -66
78 -21 4 -29 11 -29 26 0 11 -13 39 -30 62 -34 47 -36 58 -15 98 17 33 118 90
158 90 13 0 38 -11 57 -25 19 -14 47 -25 62 -25 16 0 39 -7 51 -15 12 -8 50
-21 84 -29 62 -14 98 -34 162 -89 l34 -29 141 5 c145 5 250 24 401 70 145 45
141 42 317 227 91 96 181 189 199 206 41 38 148 124 154 124 3 0 -113 -119
-258 -264z"/>
<path d="M2164 6203 c-28 -14 -59 -39 -69 -55 -16 -29 -16 -30 10 -68 15 -21
55 -65 89 -98 52 -50 67 -59 89 -55 21 4 29 0 39 -22 9 -21 9 -31 -1 -46 -11
-19 -10 -19 9 -9 12 6 35 10 53 8 26 -2 33 -8 35 -28 2 -14 8 -29 13 -34 5 -6
9 -18 9 -28 0 -30 33 -21 71 20 87 93 84 88 64 118 -9 15 -68 77 -129 138 -62
61 -117 118 -122 126 -14 23 -71 60 -91 59 -10 0 -41 -12 -69 -26z"/>
<path d="M2257 5903 c-39 -6 -28 -27 16 -31 20 -2 37 -1 37 2 0 12 -13 36 -19
35 -3 -1 -19 -4 -34 -6z"/>
<path d="M2332 5829 c-28 -11 -20 -29 13 -29 34 0 55 10 55 26 0 16 -33 17
-68 3z"/>
<path d="M2376 5773 c-21 -11 -25 -17 -15 -23 13 -9 43 2 54 19 10 17 -10 19
-39 4z"/>
</g>
</svg>
