<?xml version="1.0" encoding="UTF-8"?>
<svg version="1.1" xmlns="http://www.w3.org/2000/svg" width="1206" height="2622">
<path d="M0 0 C397.98 0 795.96 0 1206 0 C1206 865.26 1206 1730.52 1206 2622 C808.02 2622 410.04 2622 0 2622 C0 1756.74 0 891.48 0 0 Z " fill="#000000" transform="translate(0,0)"/>
<path d="M0 0 C-1.07187042 10.86654836 -3.27544287 21.40580421 -5.70361328 32.04394531 C-9.87977368 50.72549929 -11.70460969 69.49780015 -13.125 88.5625 C-13.37699516 91.89264257 -13.6311027 95.22258788 -13.88961792 98.55223083 C-14.04841047 100.60193802 -14.2033099 102.65195158 -14.35379028 104.70228577 C-14.42411469 105.61852219 -14.49443909 106.53475861 -14.56689453 107.47875977 C-14.62668488 108.28225357 -14.68647522 109.08574738 -14.74807739 109.91358948 C-15 112 -15 112 -16 115 C-15.34 115 -14.68 115 -14 115 C-14.31388672 115.86810303 -14.62777344 116.73620605 -14.95117188 117.63061523 C-15.93853742 120.80255002 -16.44318613 123.61483087 -16.78125 126.91015625 C-16.90113281 128.06837891 -17.02101563 129.22660156 -17.14453125 130.41992188 C-17.26183594 131.62197266 -17.37914062 132.82402344 -17.5 134.0625 C-17.61730469 135.17560547 -17.73460937 136.28871094 -17.85546875 137.43554688 C-20.21094917 160.77506519 -21.28522188 184.15191387 -21.83343506 207.59320068 C-23.09509226 261.05353678 -24.9034964 313.73090629 -37 366 C-37.25539551 367.1152002 -37.51079102 368.23040039 -37.77392578 369.37939453 C-45.44703005 402.55081451 -57.10868938 434.44203011 -71.9296875 465.0625 C-84.47667298 491.19037061 -97.22213784 519.25782827 -102 548 C-102.11647888 548.69172302 -102.23295776 549.38344604 -102.35296631 550.09613037 C-103.89526543 559.2677623 -105.36871204 568.4496271 -106.765625 577.64453125 C-106.87577438 578.36771042 -106.98592377 579.09088959 -107.09941101 579.83598328 C-108.57306091 589.1073929 -108.57306091 589.1073929 -109.10546875 598.4609375 C-109.39702903 621.05454522 -115.99523371 641.97420907 -123.30419922 663.14746094 C-123.54034439 663.83227036 -123.77648956 664.51707977 -124.01979065 665.22264099 C-124.66599873 667.08855085 -125.31874142 668.95219396 -125.97192383 670.81567383 C-126.85399252 673.54776169 -127.51446298 676.17484587 -128 679 C-100.66440337 694.27691499 -76.00922333 697.45555773 -45.375 690.875 C-44.69579498 690.73328369 -44.01658997 690.59156738 -43.31680298 690.44555664 C-28.02735228 687.53425588 -28.02735228 687.53425588 -15.4921875 679.24853516 C-14.50385943 677.30622445 -13.88626515 675.47591649 -13.3125 673.375 C-12.78892239 671.85410788 -12.25730606 670.33596541 -11.71875 668.8203125 C-11.44804688 668.03043945 -11.17734375 667.24056641 -10.8984375 666.42675781 C-9.34091985 662.2197672 -7.33834564 658.24776844 -5.3125 654.25 C-4.68371948 653.00609497 -4.68371948 653.00609497 -4.04223633 651.73706055 C-0.83482814 645.47537825 2.53451048 639.30973396 6 633.1875 C6.44947998 632.38924805 6.89895996 631.59099609 7.36206055 630.76855469 C11.46535569 623.63452317 16.04643058 616.84118044 20.64257812 610.02023315 C22.9228623 606.62651616 25.17864961 603.21659607 27.4375 599.80859375 C28.82608255 597.71822988 30.21526032 595.62826246 31.60449219 593.53833008 C32.53565606 592.13653422 33.46599346 590.73418901 34.39550781 589.33129883 C39.67136743 581.37037051 45.00574157 573.46996924 50.60864258 565.73448181 C56.49976705 557.59381304 61.84652902 549.22952443 66.57885742 540.3684082 C71.07824985 531.95820407 76.14325063 524.72610356 82.23046875 517.3984375 C85.96763897 512.88136918 89.15349654 508.12530538 92 503 C92.39703125 502.28714844 92.7940625 501.57429688 93.203125 500.83984375 C95.46845925 496.04714031 96.29514102 491.31833325 96.93058777 486.10717773 C98.40579991 474.03312091 101.23499839 462.64239228 104.6875 451 C105.22822565 449.14454161 105.76891542 447.28907276 106.30957031 445.43359375 C111.14884218 428.97059665 116.96298984 413.23721653 124.08666992 397.63134766 C126.35373735 392.62236523 128.26116031 387.5667629 130.0625 382.375 C133.78035495 371.74015247 138.73812743 361.66898354 143.67016602 351.55615234 C150.05184672 338.37910166 153.52203635 325.39202692 155.89230347 310.98718262 C156.62454244 306.54407839 157.38738204 302.10621264 158.1484375 297.66796875 C158.30257614 296.7660379 158.45671478 295.86410706 158.61552429 294.93484497 C160.09253091 286.34681807 161.7439309 277.79751025 163.4375 269.25 C167.1740788 250.31378311 170.66611787 231.33615973 174.04785156 212.33349609 C174.66468134 208.86887203 175.28885191 205.40572734 175.92089844 201.94384766 C179.32695643 183.25709385 182.037817 165.07057121 182 146 C186.875 147.75 186.875 147.75 188 150 C189.60412987 173.2217325 183.27179392 197.52172678 178.78156662 220.18681335 C177.98339061 224.22934378 177.19837436 228.27442775 176.41235352 232.31933594 C175.17445544 238.68351005 173.93107041 245.04657975 172.68261719 251.40869141 C170.73376665 261.34345286 168.81457148 271.2837744 166.91873169 281.22879028 C166.44472911 283.71212612 165.96747548 286.19482203 165.48999023 288.67749023 C164.10669302 295.90421899 162.78582045 303.13302382 161.62109375 310.3984375 C158.54614939 329.56983095 153.28796947 344.50689815 144.74047852 361.88330078 C140.23758441 371.17428383 136.5570588 380.67753084 133.00292969 390.36474609 C130.64619991 396.75976878 128.15977328 403.00201149 125.28417969 409.18041992 C119.99229649 420.58165747 116.22074547 432.29305338 112.625 444.3125 C112.37178986 445.1542276 112.11857971 445.9959552 111.85769653 446.8631897 C109.19638706 455.7616888 106.73927616 464.68332934 104.69921875 473.74609375 C104.45560104 474.82253899 104.45560104 474.82253899 104.20706177 475.92073059 C103.20839954 480.52546261 102.61751403 485.05783503 102.1875 489.75 C100.57870593 502.55218329 93.66913707 511.89021036 85.765625 521.578125 C79.46441536 529.30865467 74.24461185 537.31865866 69.75 546.1875 C66.20953529 553.13264566 62.08651759 559.31208678 57.43725586 565.55859375 C52.32847735 572.44940209 47.54860027 579.53876634 42.8125 586.6875 C42.42230682 587.27609802 42.03211365 587.86469604 41.63009644 588.47113037 C39.74409503 591.31717895 37.86036302 594.16470818 35.97802734 597.01318359 C33.93147323 600.10347526 31.8679162 603.18171588 29.796875 606.25561523 C28.2496181 608.5587716 26.71915708 610.87269225 25.19384766 613.19042969 C24.35659195 614.45949703 23.51471565 615.72552236 22.66943359 616.98925781 C9.42750322 636.85904303 -3.0976374 659.23668098 -11.359375 681.6953125 C-13.19926835 685.40138339 -14.30550482 686.30874221 -18 688 C-18.79792969 688.38800781 -19.59585937 688.77601563 -20.41796875 689.17578125 C-38.19973875 696.47408177 -57.96038354 700.18419239 -77.11352539 700.29516602 C-78.4873284 700.30664807 -79.86108812 700.32704018 -81.23461914 700.35668945 C-95.52364047 700.66385107 -106.22142841 696.67709897 -118.9375 690.5 C-119.93845703 690.02691406 -120.93941406 689.55382813 -121.97070312 689.06640625 C-132.49454345 684.00430584 -132.49454345 684.00430584 -135 681 C-134.96000726 676.08660579 -133.40741615 672.19438848 -131.4375 667.75 C-123.03282074 647.76867065 -116.18729585 625.14173517 -115.6015625 603.359375 C-115.16078612 591.81161336 -113.61424406 580.52951338 -111.8125 569.125 C-111.65460999 568.11409302 -111.49671997 567.10318604 -111.33404541 566.06164551 C-105.21103753 527.09928734 -91.43915467 491.52311061 -74.18554688 456.12646484 C-64.61139639 436.4575039 -57.22153369 415.95565282 -51 395 C-50.78037598 394.26507324 -50.56075195 393.53014648 -50.33447266 392.77294922 C-44.55133329 373.22728832 -39.79093307 353.30782906 -36.1875 333.25 C-35.89552734 331.62989014 -35.89552734 331.62989014 -35.59765625 329.97705078 C-32.7337463 313.39612144 -31.45829035 296.77803877 -30.4375 280 C-30.34086563 278.440466 -30.34086563 278.440466 -30.24227905 276.84942627 C-28.69535852 251.86964887 -27.82467203 227.02874144 -28 202 C-48.94932921 192.61361224 -70.47653837 183.76412487 -93 179 C-119.48807107 173.35929112 -119.48807107 173.35929112 -129.7109375 165.68359375 C-130.46632813 165.12800781 -131.22171875 164.57242187 -132 164 C-132.69351563 163.43410156 -133.38703125 162.86820313 -134.1015625 162.28515625 C-142.13049905 158.72515608 -151.83358458 161.47028778 -160.0625 163.25 C-161.15014648 163.47526367 -162.23779297 163.70052734 -163.35839844 163.93261719 C-169.0929552 165.12949701 -174.80598733 166.40583932 -180.51171875 167.73242188 C-188.36147176 169.54759164 -195.91551193 170.77253492 -204 171 C-204.97187256 171.03867188 -204.97187256 171.03867188 -205.96337891 171.078125 C-219.35111877 171.57918661 -235.04991456 171.196213 -246.4375 163.3125 C-248.31684586 160.53106813 -248.34580759 158.24140243 -248.6015625 154.953125 C-249.27158438 151.668704 -251.53580767 150.12035154 -254 148 C-257.19086341 144.80913659 -258.17081893 142.84134148 -258.4375 138.4375 C-258.65345509 134.66788146 -258.65345509 134.66788146 -261.25 131.875 C-262.1575 131.25625 -263.065 130.6375 -264 130 C-267.22197456 126.62958759 -269.31537673 123.55197137 -269.5625 118.8125 C-269 115 -269 115 -267.5 112.6875 C-259.77654493 107.47416783 -250.97123568 106.81878061 -241.875 106.75 C-241.18535156 106.729375 -240.49570312 106.70875 -239.78515625 106.6875 C-235.37198583 106.65374726 -232.38401679 107.07064958 -229 110 C-228.44140625 112.12109375 -228.44140625 112.12109375 -228.5625 114.4375 C-228.58441406 115.19933594 -228.60632813 115.96117187 -228.62890625 116.74609375 C-229.02583524 119.15691511 -229.80020434 120.88469761 -231 123 C-229.741875 123.0825 -228.48375 123.165 -227.1875 123.25 C-224.35547769 123.6215774 -223.22446317 123.82315023 -220.9375 125.625 C-219.58190456 129.05917511 -220.17535886 131.4476997 -221 135 C-222.0625 137.4375 -222.0625 137.4375 -223 139 C-222.01 139.928125 -222.01 139.928125 -221 140.875 C-218.49613929 144.78728236 -218.77504686 147.18146975 -219.15234375 151.6953125 C-219.20994905 154.03769668 -219.20994905 154.03769668 -217.74829102 155.64941406 C-216.10828849 157.16130523 -216.10828849 157.16130523 -214.0546875 157.20166016 C-208.24379097 156.43494464 -203.31027464 154.83312109 -198 152.375 C-196.8253418 151.84084473 -196.8253418 151.84084473 -195.62695312 151.29589844 C-189.31530872 148.33452323 -182.81426467 145.08841771 -178.76513672 139.20605469 C-177.7428833 136.98121415 -177.7428833 136.98121415 -178.77587891 134.66015625 C-179.25460449 133.80292969 -179.73333008 132.94570312 -180.2265625 132.0625 C-181.02320313 130.61194214 -181.02320313 130.61194214 -181.8359375 129.13208008 C-182.42632812 128.09849365 -183.01671875 127.06490723 -183.625 126 C-184.223125 124.92709717 -184.82125 123.85419434 -185.4375 122.7487793 C-191.07529959 112.70198849 -196.95896201 102.80854646 -203 93 C-203.53657227 92.12714355 -204.07314453 91.25428711 -204.62597656 90.35498047 C-207.89474948 85.04298455 -211.18154387 79.74246924 -214.47900391 74.44824219 C-215.9136298 72.13902413 -217.33919918 69.82450198 -218.76171875 67.5078125 C-225.73007151 53.99529305 -225.73007151 53.99529305 -235.86230469 44.34985352 C-246.67621209 42.58005803 -260.28685425 48.53751409 -270.0625 52.5 C-271.00786621 52.87946777 -271.95323242 53.25893555 -272.92724609 53.64990234 C-278.89643771 56.1385116 -278.89643771 56.1385116 -283 61 C-283.93605902 67.39640332 -281.63914961 71.42201265 -278.5 76.75 C-278.04584717 77.54204834 -277.59169434 78.33409668 -277.1237793 79.15014648 C-272.91284698 86.38185275 -268.13562374 93.03418255 -262.94921875 99.59375 C-262.30597656 100.4084375 -261.66273438 101.223125 -261 102.0625 C-260.4225 102.77535156 -259.845 103.48820312 -259.25 104.22265625 C-258 106 -258 106 -258 108 C-263.35991428 107.38100727 -268.24587823 106.15303188 -273.375 104.5 C-274.09816406 104.27441406 -274.82132812 104.04882812 -275.56640625 103.81640625 C-280.86300223 102.13699777 -280.86300223 102.13699777 -282 101 C-282.3125 98.125 -282.3125 98.125 -282 95 C-280.125 93.125 -280.125 93.125 -278 92 C-277.34 92 -276.68 92 -276 92 C-277.98698396 87.90270205 -280.00058187 83.90991907 -282.39453125 80.03515625 C-282.99104492 79.05192383 -282.99104492 79.05192383 -283.59960938 78.04882812 C-284.41182872 76.7186718 -285.24021501 75.39826056 -286.08398438 74.08789062 C-288.79798295 69.53177111 -289.47658966 66.2953139 -288.54882812 61.04101562 C-287.46758973 57.02004009 -286.10270032 54.744277 -282.64453125 52.41015625 C-271.21939102 46.97336538 -259.77923854 42.42586479 -247.4375 39.5625 C-246.69999512 39.38638184 -245.96249023 39.21026367 -245.20263672 39.02880859 C-240.54555965 38.02442417 -236.713266 37.85099485 -232 39 C-229.97066263 41.02933737 -228.55590737 42.66613895 -227 45 C-226.60554688 45.57105469 -226.21109375 46.14210938 -225.8046875 46.73046875 C-224.84783734 48.13897895 -223.92079177 49.56765725 -223 51 C-220.53199953 49.84826645 -218.95216435 48.95216435 -217 47 C-212.95355509 47.10436317 -210.69545705 47.42100705 -207.55078125 50.0390625 C-206.81214844 50.89242188 -206.07351563 51.74578125 -205.3125 52.625 C-198.62464289 59.69559592 -191.19529946 63.90133278 -182.11621094 67.20776367 C-173.06164857 70.52606761 -169.60506142 73.85441698 -165.265625 82.42578125 C-164.61664125 83.70156977 -163.96553059 84.97627817 -163.3125 86.25 C-162.81665405 87.21728027 -162.81665405 87.21728027 -162.31079102 88.20410156 C-157.29667686 97.62334719 -150.2573428 106.25286383 -140 110 C-135.30828953 111.26127053 -130.5760295 112.23873701 -125.8125 113.1875 C-124.55501953 113.44724609 -123.29753906 113.70699219 -122.00195312 113.97460938 C-118.67007432 114.66084519 -115.3360342 115.33430794 -112 116 C-111.18217041 116.18699463 -110.36434082 116.37398926 -109.52172852 116.56665039 C-103.80426229 117.54917557 -97.91300465 117.24141429 -92.125 117.25 C-91.40659943 117.25233643 -90.68819885 117.25467285 -89.94802856 117.25708008 C-80.05364591 117.26917036 -70.56894543 116.64557418 -60.78540039 115.07397461 C-47.65954063 113.12240512 -34.23358051 113.74603403 -21 114 C-20.93815521 113.14699814 -20.93815521 113.14699814 -20.87506104 112.27676392 C-16.35395051 50.2152992 -16.35395051 50.2152992 -10.4296875 27.01098633 C-9.50834418 23.377756 -8.77520188 19.77933792 -8.22265625 16.0703125 C-8.09963135 15.2453125 -7.97660645 14.4203125 -7.84985352 13.5703125 C-7.62251448 11.98131891 -7.40991273 10.39012214 -7.21459961 8.796875 C-6.74095863 5.47276285 -6.42315885 3.43155485 -4.03125 0.9921875 C-2 0 -2 0 0 0 Z " fill="#F1F1F1" transform="translate(667,1316)"/>
<path d="M0 0 C2.3515625 0.48828125 2.3515625 0.48828125 4.6015625 3.23828125 C7.14581704 7.96332539 7.47228818 11.38151858 7.4140625 16.73828125 C7.40503906 17.8159375 7.39601563 18.89359375 7.38671875 20.00390625 C7.36931641 21.23367188 7.36931641 21.23367188 7.3515625 22.48828125 C8.16560547 22.07255859 8.16560547 22.07255859 8.99609375 21.6484375 C9.71152344 21.28621094 10.42695312 20.92398438 11.1640625 20.55078125 C12.22560547 20.01130859 12.22560547 20.01130859 13.30859375 19.4609375 C20.44794364 16.06189711 29.81877517 16.46826084 37.44140625 18.18359375 C47.18913381 21.87487908 55.90196215 28.47838457 64.3515625 34.48828125 C65.09212891 34.95733887 65.83269531 35.42639648 66.59570312 35.90966797 C67.17513672 36.43061035 67.75457031 36.95155273 68.3515625 37.48828125 C68.3515625 38.80828125 68.3515625 40.12828125 68.3515625 41.48828125 C65.7115625 41.48828125 63.0715625 41.48828125 60.3515625 41.48828125 C62.27260854 46.55285718 65.95435744 47.83592191 70.65625 50.03125 C86.02190955 56.08980287 102.02055608 56.26815613 118.3515625 56.48828125 C119.37406426 60.96124596 119.16856989 64.69257913 118.3515625 69.17578125 C118.22418701 69.87896484 118.09681152 70.58214844 117.96557617 71.30664062 C116.61111097 77.77723299 113.71191938 82.51866902 109.3515625 87.48828125 C110.16947266 87.67390625 110.16947266 87.67390625 111.00390625 87.86328125 C120.73692838 90.5253044 126.60723394 96.50633697 131.6015625 105.11328125 C136.67774396 114.3064928 140.04721885 123.94325262 141.83203125 134.28515625 C142.35797368 136.51546853 143.10674778 138.12442113 144.2265625 140.11328125 C151.51996257 153.69315675 152.83044345 172.40353127 152.3515625 187.48828125 C151.0315625 187.81828125 149.7115625 188.14828125 148.3515625 188.48828125 C147.866875 187.89660156 147.3821875 187.30492187 146.8828125 186.6953125 C146.2125 185.90511719 145.5421875 185.11492187 144.8515625 184.30078125 C144.201875 183.52347656 143.5521875 182.74617187 142.8828125 181.9453125 C139.69280306 178.84883729 136.18061558 176.71230334 132.3515625 174.48828125 C132.54233663 178.89624932 132.7551817 183.30250425 132.98632812 187.70849609 C133.0616891 189.19942986 133.13157705 190.69065294 133.1953125 192.18212891 C133.83819523 207.05883708 135.35263073 224.22423787 145.51953125 235.97265625 C149.13538198 238.96402103 153.42077415 240.95504457 157.5859375 243.0703125 C160.3515625 244.48828125 160.3515625 244.48828125 161.3515625 245.48828125 C161.6640625 247.86328125 161.6640625 247.86328125 161.3515625 250.48828125 C155.47551719 256.29160323 143.75696122 256.67578125 135.9140625 256.67578125 C134.39265608 256.62927538 132.87128716 256.57358804 131.3515625 256.48828125 C131.38636719 257.61105469 131.42117188 258.73382812 131.45703125 259.890625 C131.88298509 279.25314612 131.88298509 279.25314612 124.875 287.046875 C123.3515625 288.48828125 123.3515625 288.48828125 121.390625 290.0234375 C114.68420053 295.29633257 111.99587673 301.1400168 110.97241211 309.63549805 C110.81400129 313.01348799 110.79839488 316.35705667 110.8515625 319.73828125 C110.86002197 320.95104736 110.86848145 322.16381348 110.87719727 323.41333008 C111.0854224 334.21209717 112.71681003 344.49331655 114.89013672 355.04443359 C115.60983867 358.85618835 116.04691027 362.62035483 116.3515625 366.48828125 C115.3515625 367.48828125 115.3515625 367.48828125 113.109375 367.81640625 C109.35862237 367.37014106 107.94359424 365.81406057 105.2265625 363.23828125 C104.37835937 362.449375 103.53015625 361.66046875 102.65625 360.84765625 C100.67373379 358.81809728 98.97819558 356.80596759 97.3515625 354.48828125 C96.00456569 392.78147634 136.46362057 450.49965493 158.3515625 480.48828125 C159.0940625 481.51179688 159.8365625 482.5353125 160.6015625 483.58984375 C164.14073815 488.38037079 167.79799693 493.06339674 171.54101562 497.69506836 C195.33434149 527.1691671 215.46037216 556.91269541 215.51953125 596.125 C215.52285965 596.92573441 215.52618805 597.72646881 215.52961731 598.5514679 C215.53464781 600.2414188 215.53702684 601.93137951 215.53686523 603.62133789 C215.53901856 606.12469372 215.55712333 608.62758316 215.57617188 611.13085938 C215.65169784 631.1703323 213.3033363 650.6113142 209.68505859 670.30175781 C209.10236314 673.48390887 208.54052463 676.66926437 207.98046875 679.85546875 C204.55366149 698.99157796 199.59295796 717.52378551 193.3515625 735.92578125 C192.88897808 737.30497925 192.42649789 738.68421221 191.96411133 740.06347656 C188.44823454 750.49507211 184.71717494 760.84561054 180.96142578 771.19274902 C171.94192967 796.08469615 165.93888194 820.07169405 161.85998535 846.23828125 C160.17817213 856.98896438 158.46320193 867.73449492 156.7550354 878.48101807 C156.27656964 881.49173934 155.79907007 884.50261154 155.32235718 887.51361084 C152.19794521 907.2426173 148.93780939 926.94001611 145.4765625 946.61328125 C128.95264866 1037.70564987 128.95264866 1037.70564987 144.53125 1127.58984375 C145.53096067 1131.1221548 145.75729243 1133.83257174 145.3515625 1137.48828125 C143.65625 1140.09375 143.65625 1140.09375 141.2265625 1142.67578125 C136.53981997 1147.89778563 132.46326764 1153.40403342 128.4765625 1159.17578125 C127.58432983 1160.46101685 127.58432983 1160.46101685 126.67407227 1161.7722168 C124.34998337 1165.12727593 122.03499109 1168.48837804 119.73193359 1171.85791016 C111.78951747 1183.46874062 103.30912569 1193.53071806 93.3515625 1203.48828125 C92.17354582 1204.69961385 90.99654628 1205.91193607 89.8203125 1207.125 C63.22490222 1234.38814768 25.9314779 1256.52938529 -11.77734375 1263.98046875 C-13.32356163 1264.29393753 -13.32356163 1264.29393753 -14.90101624 1264.61373901 C-26.41389028 1266.90711767 -37.99280272 1268.77873536 -49.5859375 1270.61328125 C-52.73521034 1271.11640657 -55.88421879 1271.62114975 -59.03311157 1272.12664795 C-61.06696019 1272.45313253 -63.10095433 1272.77871209 -65.13510132 1273.10333252 C-71.11164458 1274.06172656 -77.07184895 1275.08717505 -83.02734375 1276.16796875 C-108.83615699 1280.80481726 -133.78968558 1280.37165134 -156.6484375 1266.48828125 C-159.11328125 1264.37890625 -159.11328125 1264.37890625 -160.6484375 1262.48828125 C-160.3984375 1260.23828125 -160.3984375 1260.23828125 -159.6484375 1258.48828125 C-157.9984375 1258.48828125 -156.3484375 1258.48828125 -154.6484375 1258.48828125 C-154.6484375 1259.47828125 -154.6484375 1260.46828125 -154.6484375 1261.48828125 C-132.82857632 1272.79522533 -112.55551632 1274.55224816 -88.32421875 1270.76171875 C-87.16550766 1270.58494598 -86.00679657 1270.40817322 -84.81297302 1270.2260437 C-81.09017786 1269.65474988 -77.36918308 1269.07276527 -73.6484375 1268.48828125 C-72.41468384 1268.29584839 -71.18093018 1268.10341553 -69.90979004 1267.90515137 C-62.2933839 1266.71428918 -54.68268601 1265.49165968 -47.07543945 1264.24365234 C-44.48746023 1263.8215055 -41.89857363 1263.40488611 -39.30883789 1262.99365234 C-20.05390519 1259.93363356 -1.23567039 1256.35897317 16.6640625 1248.36328125 C17.93237915 1247.8074939 17.93237915 1247.8074939 19.22631836 1247.24047852 C43.76699751 1236.27845199 64.84603637 1223.02230912 84.3515625 1204.48828125 C85.33334473 1203.56547363 85.33334473 1203.56547363 86.33496094 1202.62402344 C97.12410077 1192.42620664 106.07459051 1181.7939822 114.3515625 1169.48828125 C115.98994158 1167.06545119 117.62969337 1164.64357694 119.27197266 1162.22338867 C120.35806873 1160.62104978 121.43985306 1159.01577898 122.51708984 1157.4074707 C125.14389797 1153.52913194 127.84204973 1149.81387563 130.87109375 1146.23828125 C131.4343335 1145.57143311 131.99757324 1144.90458496 132.57788086 1144.2175293 C133.64269263 1142.97958509 134.72711167 1141.75812058 135.83422852 1140.55786133 C137.72804887 1138.36560531 139.26725348 1136.45909061 139.52368164 1133.50634766 C139.08575678 1129.16836401 137.67450267 1125.26865394 136.0390625 1121.23828125 C133.8851544 1115.42397442 132.37490503 1109.69265882 131.1640625 1103.61328125 C131.0096167 1102.84854492 130.8551709 1102.08380859 130.69604492 1101.29589844 C127.97562685 1087.01333455 126.93620512 1072.99589843 126.9765625 1058.48828125 C126.97843567 1057.60102356 126.98030884 1056.71376587 126.98223877 1055.79962158 C127.21195548 1004.73574613 137.6458556 953.97181584 146.51586914 903.84130859 C148.85549702 890.58122252 150.99148543 877.29641166 153.0390625 863.98828125 C153.33146184 862.09495817 153.62394115 860.20164744 153.91650391 858.30834961 C155.4885356 848.12410298 155.4885356 848.12410298 157.04199219 837.93701172 C159.41078314 822.35379699 162.23782516 807.41362432 167.3515625 792.48828125 C167.77854307 791.222082 168.20475869 789.95562464 168.63037109 788.68896484 C173.40776229 774.48289763 178.30502865 760.32157162 183.40380859 746.22753906 C185.41544729 740.65792646 187.39483921 735.07740892 189.3515625 729.48828125 C189.67463379 728.56917969 189.99770508 727.65007813 190.33056641 726.703125 C200.18401989 698.15701336 204.87994712 667.41029953 208.3515625 637.48828125 C208.47867363 636.49256355 208.47867363 636.49256355 208.60835266 635.47673035 C209.30126619 629.79686425 209.54156712 624.18806642 209.58984375 618.46875 C209.5979155 617.53009598 209.60598724 616.59144196 209.61430359 615.62434387 C209.6280588 613.64354244 209.63881874 611.66271816 209.64672852 609.68188477 C209.65817137 607.69743679 209.67849877 605.71301768 209.70825195 603.72875977 C210.36064943 560.04728596 190.45112059 530.43258267 164 497.56640625 C138.69342699 465.57348117 117.31645824 427.84493624 102.83203125 389.6171875 C102.444104 388.60229248 102.444104 388.60229248 102.04833984 387.56689453 C101.3515625 385.48828125 101.3515625 385.48828125 100.87744141 383.17138672 C100.01892944 379.429335 99.27508029 377.19344196 96.15942383 374.81445312 C93.27519255 373.23040261 90.34811363 371.84742122 87.3515625 370.48828125 C85.27159447 369.43582662 83.19610918 368.37446996 81.125 367.3046875 C77.91818091 365.67180352 74.71011237 364.04254625 71.4921875 362.43164062 C54.7737442 353.87730201 46.13290506 344.27946171 40.37133789 326.46289062 C39.94805878 325.12557865 39.53666527 323.78443468 39.13842773 322.43945312 C38.01547202 318.81019735 37.62877381 317.67308879 34.3515625 315.48828125 C26.21607538 314.83943872 18.58190597 318.81973664 12.4765625 323.86328125 C10.3515625 325.48828125 10.3515625 325.48828125 8.1015625 325.36328125 C6.3515625 324.48828125 6.3515625 324.48828125 5.3515625 322.48828125 C5.22863459 320.95025294 5.17600435 319.40616807 5.1640625 317.86328125 C5.14988281 317.04601563 5.13570312 316.22875 5.12109375 315.38671875 C5.42289979 311.59112413 6.36007756 308.16422147 7.3515625 304.48828125 C6.80741699 304.75044434 6.26327148 305.01260742 5.70263672 305.28271484 C3.21236774 306.479929 0.71950319 307.67164098 -1.7734375 308.86328125 C-2.629375 309.27578125 -3.4853125 309.68828125 -4.3671875 310.11328125 C-16.25044545 315.7806812 -16.25044545 315.7806812 -22.3984375 315.73828125 C-23.15640625 315.7434375 -23.914375 315.74859375 -24.6953125 315.75390625 C-26.6484375 315.48828125 -26.6484375 315.48828125 -28.6484375 313.48828125 C-28.53864892 310.41420098 -27.43978637 309.2506508 -25.3984375 306.92578125 C-19.03175607 299.55967889 -16.85163937 291.03876891 -16.6484375 281.48828125 C-17.21691406 281.98199219 -17.78539062 282.47570313 -18.37109375 282.984375 C-23.1649161 286.96188703 -26.34927786 289.35425658 -32.6484375 289.48828125 C-34.2109375 287.86328125 -34.2109375 287.86328125 -35.6484375 285.48828125 C-35.51164815 282.13694209 -35.25114161 280.21152619 -33.0859375 277.61328125 C-32.6115625 277.24203125 -32.1371875 276.87078125 -31.6484375 276.48828125 C-31.3184375 279.12828125 -30.9884375 281.76828125 -30.6484375 284.48828125 C-24.66344529 280.75057763 -24.66344529 280.75057763 -19.3984375 276.11328125 C-17.6484375 274.48828125 -17.6484375 274.48828125 -14.8984375 274.23828125 C-14.1559375 274.32078125 -13.4134375 274.40328125 -12.6484375 274.48828125 C-9.0718082 280.91190748 -10.35459642 287.14587611 -12.2734375 293.92578125 C-14.26178429 300.00525884 -17.07127561 305.20600553 -20.6484375 310.48828125 C-18.41730598 309.61804738 -16.18831394 308.74304903 -13.9609375 307.86328125 C-13.28627441 307.59765381 -12.61161133 307.33202637 -11.91650391 307.05834961 C-6.27916741 304.80882918 -0.86692092 302.24041214 4.546875 299.4921875 C7.67004666 298.37428344 9.22448319 298.52037575 12.3515625 299.48828125 C12.46407983 305.56421687 12.04416608 311.45273577 11.3515625 317.48828125 C12.1559375 316.89015625 12.9603125 316.29203125 13.7890625 315.67578125 C20.97638496 310.95700179 28.82641019 309.34615558 37.3515625 310.48828125 C40.77935579 312.01984846 41.87541616 313.42142704 43.390625 316.81640625 C44.46398617 319.68416511 45.41973886 322.57159749 46.3515625 325.48828125 C51.49716158 340.92507849 58.08326903 349.12119089 72.74609375 356.62695312 C73.85339844 357.17931641 74.96070313 357.73167969 76.1015625 358.30078125 C77.22433594 358.87248047 78.34710937 359.44417969 79.50390625 360.03320312 C82.44757752 361.52965728 85.39722038 363.01303574 88.3515625 364.48828125 C89.12661133 364.87588623 89.90166016 365.26349121 90.70019531 365.6628418 C91.24514648 365.93523682 91.79009766 366.20763184 92.3515625 366.48828125 C91.990625 365.42351562 91.6296875 364.35875 91.2578125 363.26171875 C88.22868909 353.9401769 86.01902728 345.39112192 87.3515625 335.48828125 C88.0115625 334.49828125 88.6715625 333.50828125 89.3515625 332.48828125 C91.9765625 332.30078125 91.9765625 332.30078125 94.3515625 332.48828125 C94.78726562 333.69484375 95.22296875 334.90140625 95.671875 336.14453125 C100.45053132 350.07794545 100.45053132 350.07794545 110.3515625 360.48828125 C110.23562744 359.91907959 110.11969238 359.34987793 110.00024414 358.76342773 C109.4694354 356.15129698 108.94172831 353.53854863 108.4140625 350.92578125 C108.23166016 350.03052734 108.04925781 349.13527344 107.86132812 348.21289062 C105.96985162 338.82428907 105.11790538 329.88281958 105.0390625 320.30078125 C105.01005859 319.14513672 104.98105469 317.98949219 104.95117188 316.79882812 C104.87108023 305.82627329 106.7898565 296.25502122 114.546875 288.1484375 C116.17395842 286.65166163 117.83786136 285.31763808 119.6015625 283.98828125 C124.1972237 279.81040744 125.43265103 274.64135105 125.828125 268.62109375 C125.89090206 266.95227011 125.94026664 265.28289076 125.9765625 263.61328125 C126.02746928 261.92826695 126.0819782 260.24335642 126.140625 258.55859375 C126.15818848 257.82398926 126.17575195 257.08938477 126.19384766 256.33251953 C126.3515625 254.48828125 126.3515625 254.48828125 127.3515625 252.48828125 C130.11935702 251.56568308 132.24981032 251.24801919 135.1328125 251.0234375 C136.05707031 250.94544922 136.98132813 250.86746094 137.93359375 250.78710938 C139.87859581 250.62958243 141.82391596 250.47593477 143.76953125 250.32617188 C145.15591797 250.20725586 145.15591797 250.20725586 146.5703125 250.0859375 C147.8377832 249.98551147 147.8377832 249.98551147 149.13085938 249.88305664 C151.63042735 249.5916264 151.63042735 249.5916264 154.3515625 247.48828125 C153.63871094 247.15957031 152.92585938 246.83085938 152.19140625 246.4921875 C141.82102481 241.34189039 136.55137689 234.71664937 132.49536133 223.91821289 C128.7483521 212.68198394 127.88356658 201.68957266 128.01538086 189.94018555 C128.03951714 187.63230887 128.03584329 185.3255534 128.02929688 183.01757812 C128.07172755 171.7681162 128.07172755 171.7681162 130.3515625 169.48828125 C134.27670637 169.81044549 136.84244107 171.20605601 140.0390625 173.42578125 C140.80605469 173.95042969 141.57304688 174.47507812 142.36328125 175.015625 C144.3515625 176.48828125 144.3515625 176.48828125 146.3515625 178.48828125 C145.88260486 163.90369873 143.86663244 149.21788951 136.3515625 136.48828125 C134.67354461 133.54742516 134.19350748 131.60678673 134.1640625 128.23828125 C133.32436934 118.13197427 127.66250466 105.56570438 120.3515625 98.48828125 C116.48065668 95.43357895 112.58886026 93.50194564 107.9140625 91.98828125 C106.7384375 91.49328125 105.5628125 90.99828125 104.3515625 90.48828125 C103.421875 88.140625 103.421875 88.140625 103.3515625 85.48828125 C104.71484375 83.4609375 104.71484375 83.4609375 106.6640625 81.55078125 C112.16780613 75.68667346 112.92083315 69.18986691 114.3515625 61.48828125 C113.29582031 61.5346875 112.24007813 61.58109375 111.15234375 61.62890625 C94.57617774 62.12184954 73.18114756 60.83453555 59.7265625 50.11328125 C57.28072018 47.7678842 56.3723747 46.54414557 55.1640625 43.30078125 C55.38288028 40.01851462 56.31945715 38.97907704 58.3515625 36.48828125 C41.21741599 25.0241344 41.21741599 25.0241344 21.3515625 22.48828125 C16.50593447 23.87071042 12.13841226 25.80268551 8.0390625 28.73828125 C5.13228408 30.6310672 3.7427941 30.88724967 0.3515625 30.48828125 C0.4959375 29.70453125 0.6403125 28.92078125 0.7890625 28.11328125 C2.00422719 20.2822199 2.76366597 14.15025699 0.3515625 6.48828125 C-0.6384375 7.33390625 -1.6284375 8.17953125 -2.6484375 9.05078125 C-3.62296875 9.87642578 -3.62296875 9.87642578 -4.6171875 10.71875 C-5.89710136 11.83375188 -7.15179784 12.97905758 -8.3671875 14.1640625 C-19.98920482 25.25085534 -35.16812789 30.36159011 -50.78979492 32.51977539 C-60.34502668 33.84133354 -70.13388492 35.32531896 -76.82421875 42.9765625 C-78.22038081 44.89890126 -79.60234822 46.81035843 -80.8984375 48.80078125 C-81.4759375 49.68765625 -82.0534375 50.57453125 -82.6484375 51.48828125 C-84.5859375 50.92578125 -84.5859375 50.92578125 -86.6484375 49.48828125 C-87.3984375 45.86328125 -87.3984375 45.86328125 -87.6484375 42.48828125 C-88.19628906 42.86339844 -88.74414062 43.23851562 -89.30859375 43.625 C-94.38217127 46.90013866 -99.40026734 49.27905159 -105.1484375 51.11328125 C-105.79312988 51.31928955 -106.43782227 51.52529785 -107.10205078 51.73754883 C-108.95018846 52.32320646 -110.7992929 52.90581067 -112.6484375 53.48828125 C-125.84372613 57.82159272 -132.16818273 65.28162685 -138.6484375 77.48828125 C-139.73084495 80.02898041 -140.7125582 82.54640641 -141.56640625 85.171875 C-144.68220563 91.84216031 -149.21608115 94.79228986 -155.6484375 97.80078125 C-156.34710937 98.14689453 -157.04578125 98.49300781 -157.765625 98.84960938 C-163.27643455 101.51663324 -167.92981868 102.63074542 -174.0859375 102.61328125 C-174.99214844 102.61585938 -175.89835938 102.6184375 -176.83203125 102.62109375 C-179.83492432 102.47948714 -182.69490503 102.03635944 -185.6484375 101.48828125 C-184.91266462 103.74384729 -184.16068236 105.99166482 -183.3984375 108.23828125 C-183.19347656 108.8725 -182.98851562 109.50671875 -182.77734375 110.16015625 C-181.39837148 114.17171194 -179.97726677 116.83037881 -176.6484375 119.48828125 C-175.1634375 119.98328125 -175.1634375 119.98328125 -173.6484375 120.48828125 C-173.6484375 122.13828125 -173.6484375 123.78828125 -173.6484375 125.48828125 C-174.26589844 125.69582031 -174.88335938 125.90335938 -175.51953125 126.1171875 C-184.55695319 129.40477326 -192.27344119 133.97147823 -196.71875 142.80078125 C-198.583111 148.19019457 -199.10969645 153.83552065 -199.6484375 159.48828125 C-199.22433594 159.06675781 -198.80023437 158.64523437 -198.36328125 158.2109375 C-194.12897955 154.25582053 -191.45832578 152.72541955 -185.6484375 152.48828125 C-184.5234375 156.23828125 -184.5234375 156.23828125 -185.6484375 158.48828125 C-186.13234616 164.29518514 -185.41718589 168.6195363 -183.6484375 174.17578125 C-181.17834947 182.3358935 -179.54965813 191.62276454 -183.0859375 199.73828125 C-186.15710826 204.87551234 -190.52618493 209.18986404 -194.6484375 213.48828125 C-191.0184375 213.15828125 -187.3884375 212.82828125 -183.6484375 212.48828125 C-184.6484375 217.48828125 -184.6484375 217.48828125 -185.6953125 219.359375 C-187.07675126 222.44496568 -186.91257502 225.18958695 -186.8984375 228.55078125 C-186.90359375 229.77925781 -186.90875 231.00773438 -186.9140625 232.2734375 C-186.89718014 235.63982792 -186.89718014 235.63982792 -184.6484375 238.48828125 C-184.2565625 237.97265625 -183.8646875 237.45703125 -183.4609375 236.92578125 C-181.6484375 235.48828125 -181.6484375 235.48828125 -179.0859375 235.61328125 C-176.6484375 236.48828125 -176.6484375 236.48828125 -174.6484375 239.48828125 C-174.26343859 241.14377656 -173.92050615 242.81052455 -173.6484375 244.48828125 C-173.3184375 242.17828125 -172.9884375 239.86828125 -172.6484375 237.48828125 C-171.3284375 237.48828125 -170.0084375 237.48828125 -168.6484375 237.48828125 C-167.6584375 243.92328125 -167.6584375 243.92328125 -166.6484375 250.48828125 C-161.38888934 240.65854317 -157.23791407 231.39134048 -154.6484375 220.48828125 C-153.3284375 220.15828125 -152.0084375 219.82828125 -150.6484375 219.48828125 C-148.0084375 225.75828125 -145.3684375 232.02828125 -142.6484375 238.48828125 C-141.9884375 238.48828125 -141.3284375 238.48828125 -140.6484375 238.48828125 C-140.44089844 237.85921875 -140.23335937 237.23015625 -140.01953125 236.58203125 C-137.65100376 230.00168711 -134.56828124 225.43576456 -129.6484375 220.48828125 C-128.3284375 220.81828125 -127.0084375 221.14828125 -125.6484375 221.48828125 C-124.64258521 225.55776 -124.66975916 229.1863663 -124.8359375 233.36328125 C-124.92377667 243.31838688 -122.49908151 252.2953023 -118.6484375 261.48828125 C-118.32230469 260.46347656 -117.99617187 259.43867187 -117.66015625 258.3828125 C-117.21907503 257.02203002 -116.77765057 255.66135876 -116.3359375 254.30078125 C-116.12259766 253.62724609 -115.90925781 252.95371094 -115.68945312 252.25976562 C-114.40663616 248.33472863 -112.94745617 244.96040622 -110.6484375 241.48828125 C-108.9984375 241.81828125 -107.3484375 242.14828125 -105.6484375 242.48828125 C-105.44347656 243.18695312 -105.23851562 243.885625 -105.02734375 244.60546875 C-104.75792969 245.51554688 -104.48851562 246.425625 -104.2109375 247.36328125 C-103.94410156 248.26820313 -103.67726563 249.173125 -103.40234375 250.10546875 C-102.72229924 252.47103506 -102.72229924 252.47103506 -101.6484375 254.48828125 C-101.69484375 253.49570312 -101.74125 252.503125 -101.7890625 251.48046875 C-102.11343055 241.28496258 -101.31304416 231.81749456 -96.6484375 222.48828125 C-91.7734375 223.36328125 -91.7734375 223.36328125 -90.6484375 224.48828125 C-90.57367187 223.65425781 -90.49890625 222.82023438 -90.421875 221.9609375 C-89.37784237 213.02524644 -87.53658257 206.4338318 -80.359375 200.640625 C-73.51726593 195.92692446 -67.95080286 194.55126889 -59.6484375 195.48828125 C-49.40809645 198.70152609 -42.07398049 206.44660649 -36.99584961 215.6730957 C-32.65612317 224.74020669 -32.18598084 234.22230457 -32.3359375 244.11328125 C-32.3464917 245.33442627 -32.3570459 246.55557129 -32.36791992 247.8137207 C-32.8580919 281.44484165 -32.8580919 281.44484165 -42.6171875 291.82421875 C-47.13662071 295.5266775 -52.83911294 297.05047395 -58.6484375 296.48828125 C-53.9181112 292.67350198 -53.9181112 292.67350198 -51.453125 290.98046875 C-44.6051141 286.1213191 -41.70365795 281.80620084 -40.06933594 273.56982422 C-38.71312194 264.66419587 -38.30678725 255.96940175 -38.33276367 246.97290039 C-38.33595861 244.66050463 -38.31222919 242.34935152 -38.28710938 240.03710938 C-38.22684064 226.53817958 -40.65846567 217.88035878 -49.6484375 207.48828125 C-55.29436623 202.41253542 -60.34933771 201.04817228 -67.796875 201.15625 C-73.29374068 201.796296 -76.70035276 204.3142006 -80.33203125 208.3671875 C-84.82051352 214.44510739 -86.74742061 221.2532346 -88.6484375 228.48828125 C-90.2984375 228.48828125 -91.9484375 228.48828125 -93.6484375 228.48828125 C-95.90904905 237.42980731 -97.08623593 246.97359985 -94.5859375 255.98828125 C-93.66770549 259.41634742 -93.6061337 261.1529091 -94.6484375 264.48828125 C-96.4296875 265.17578125 -96.4296875 265.17578125 -98.6484375 265.48828125 C-103.7317427 262.09941112 -106.92711101 256.82208117 -109.6484375 251.48828125 C-111.40467065 256.8640681 -112.04160624 261.7893838 -112.2734375 267.42578125 C-112.31210937 268.20501953 -112.35078125 268.98425781 -112.390625 269.78710938 C-112.48387877 271.68715504 -112.56719712 273.58768403 -112.6484375 275.48828125 C-113.9684375 275.81828125 -115.2884375 276.14828125 -116.6484375 276.48828125 C-120.29288339 271.06083473 -123.03313062 265.66187468 -125.3359375 259.55078125 C-125.63048828 258.80376953 -125.92503906 258.05675781 -126.22851562 257.28710938 C-128.89549337 250.34098083 -130.64579286 243.35290944 -131.2734375 235.92578125 C-131.38558594 234.65541016 -131.38558594 234.65541016 -131.5 233.359375 C-131.54898438 232.74191406 -131.59796875 232.12445312 -131.6484375 231.48828125 C-134.52784663 237.90333695 -136.1949196 243.45875373 -136.6484375 250.48828125 C-137.9684375 250.81828125 -139.2884375 251.14828125 -140.6484375 251.48828125 C-142.13686263 249.09778029 -143.61421845 246.7015369 -145.0859375 244.30078125 C-145.50681641 243.62724609 -145.92769531 242.95371094 -146.36132812 242.25976562 C-148.53780038 238.69035113 -150.1951632 235.73257698 -150.6484375 231.48828125 C-151.3084375 231.48828125 -151.9684375 231.48828125 -152.6484375 231.48828125 C-152.72835937 232.30683594 -152.80828125 233.12539063 -152.890625 233.96875 C-153.8395261 238.37575975 -155.63690275 241.85971121 -157.7734375 245.80078125 C-158.17288574 246.55407715 -158.57233398 247.30737305 -158.98388672 248.08349609 C-161.67044469 253.03219361 -164.60073175 257.36332374 -168.53125 261.43359375 C-170.31140175 264.70757913 -169.55695925 266.96107916 -168.6484375 270.48828125 C-166.91884171 273.35851732 -166.91884171 273.35851732 -164.6484375 276.11328125 C-160.4544174 281.75019427 -157.48641577 287.66955349 -154.7109375 294.11328125 C-154.14536133 295.40032959 -154.14536133 295.40032959 -153.56835938 296.71337891 C-144.61888076 318.1130657 -149.2025331 338.80605018 -154.6484375 360.48828125 C-154.0618335 360.5437915 -153.47522949 360.59930176 -152.87084961 360.65649414 C-148.52051501 361.09825883 -144.40527753 361.63056905 -140.2109375 362.92578125 C-138.97537109 363.29509766 -138.97537109 363.29509766 -137.71484375 363.671875 C-135.6484375 364.48828125 -135.6484375 364.48828125 -133.6484375 366.48828125 C-133.56420898 368.33251953 -133.56420898 368.33251953 -133.76953125 370.55859375 C-134.76968744 379.84930276 -134.76968744 379.84930276 -131.72265625 388.2421875 C-130.11807008 389.50896606 -128.47035955 390.7233344 -126.78125 391.875 C-123.86349381 394.0820207 -123.38772703 395.94210276 -122.84375 399.45703125 C-122.77929688 400.12734375 -122.71484375 400.79765625 -122.6484375 401.48828125 C-122.54273438 402.24109375 -122.43703125 402.99390625 -122.328125 403.76953125 C-122.06695983 405.67134943 -121.85294557 407.57953924 -121.6484375 409.48828125 C-119.7921875 409.82859375 -119.7921875 409.82859375 -117.8984375 410.17578125 C-114.95246363 410.93955225 -113.69418275 411.44871779 -111.3359375 413.48828125 C-109.39699524 416.93528972 -108.35824205 420.27261563 -107.359375 424.0859375 C-106.64584673 426.49703576 -106.05785845 428.40108144 -104.6484375 430.48828125 C-102.31793706 431.63125013 -102.31793706 431.63125013 -99.6484375 432.48828125 C-97.90496013 433.37742793 -96.17616621 434.29579221 -94.4609375 435.23828125 C-93.50445313 435.76164062 -92.54796875 436.285 -91.5625 436.82421875 C-87.96529287 438.87838797 -84.48867501 441.10000854 -81.03515625 443.38671875 C-77.95978941 444.80611883 -76.00505575 444.93062629 -72.6484375 444.48828125 C-70.00937822 442.97559319 -70.00937822 442.97559319 -67.5859375 440.73828125 C-66.63203125 439.9184375 -65.678125 439.09859375 -64.6953125 438.25390625 C-62.60834427 436.38292438 -60.56594461 434.47094253 -58.5390625 432.53515625 C-51.06789709 425.41271405 -43.46793227 419.83095785 -34.6484375 414.48828125 C-31.71282386 412.56678869 -28.78216419 410.63816651 -25.85546875 408.703125 C-23.6484375 407.48828125 -23.6484375 407.48828125 -20.6484375 407.48828125 C-27.22316422 414.48267138 -33.57445443 420.41193736 -41.75390625 425.546875 C-45.64420904 428.15616041 -48.98873716 431.20605894 -52.39453125 434.41015625 C-54.6484375 436.48828125 -54.6484375 436.48828125 -57.37109375 438.62890625 C-59.7179826 440.28570975 -59.7179826 440.28570975 -60.6484375 442.48828125 C-59.8234375 442.67390625 -58.9984375 442.85953125 -58.1484375 443.05078125 C-50.67332661 446.12091608 -44.92854457 452.13288964 -41.6484375 459.48828125 C-38.70489858 467.46432219 -38.30720686 475.50476559 -38.1484375 483.92578125 C-38.1023938 485.34721436 -38.1023938 485.34721436 -38.05541992 486.79736328 C-38.05428089 491.07327514 -38.09770095 494.44061899 -40.75 497.9296875 C-43.81943024 500.63922498 -46.81706541 502.36234825 -50.5234375 503.98828125 C-61.74887923 509.2662592 -72.13184356 515.94155088 -82.6484375 522.48828125 C-85.30704981 524.14098364 -87.9658824 525.79332798 -90.62524414 527.44482422 C-92.34915393 528.51553318 -94.07229924 529.587474 -95.79467773 530.66064453 C-101.17527138 534.00039325 -106.60861351 537.23237701 -112.08398438 540.4140625 C-124.51629865 547.64395796 -136.49098945 555.38671614 -147.6484375 564.48828125 C-148.24953379 561.60301907 -148.45716624 560.25804505 -147.6484375 557.48828125 C-144.77880739 554.21263633 -141.23656801 551.92200723 -137.6484375 549.48828125 C-137.0797998 549.09688965 -136.51116211 548.70549805 -135.92529297 548.30224609 C-125.7459005 541.33768736 -115.08569879 535.2251575 -104.38037109 529.11376953 C-97.74884537 525.31619618 -91.21082834 521.41871763 -84.7734375 517.30078125 C-78.23526677 513.11954065 -71.66388362 509.00568341 -65.0234375 504.98828125 C-63.81518311 504.24928589 -63.81518311 504.24928589 -62.58251953 503.49536133 C-58.00472428 500.74002168 -53.42855446 498.39387961 -48.48291016 496.36523438 C-46.46275847 495.5245948 -46.46275847 495.5245948 -44.6484375 493.48828125 C-44.15859008 489.53039644 -44.27799923 485.53544955 -44.2734375 481.55078125 C-44.24894531 480.45958984 -44.22445312 479.36839844 -44.19921875 478.24414062 C-44.16395777 468.36519066 -46.04017458 459.41541258 -52.98828125 452.05859375 C-55.78043435 449.4175454 -58.65871745 446.90305514 -61.6484375 444.48828125 C-64.71992658 445.57233622 -66.86412001 446.65603431 -69.4609375 448.67578125 C-73.50180188 450.97352766 -76.30445242 450.61344148 -80.6484375 449.48828125 C-83.7732002 448.16084053 -86.66306652 446.52215216 -89.5859375 444.80078125 C-90.37500488 444.34743408 -91.16407227 443.89408691 -91.97705078 443.42700195 C-110.35163633 432.78538674 -110.35163633 432.78538674 -113.3984375 422.92578125 C-114.71475999 418.92479988 -114.71475999 418.92479988 -117.57421875 415.9921875 C-119.66550778 414.96634062 -119.66550778 414.96634062 -121.74609375 414.26953125 C-124.07890617 413.3114974 -125.16732708 412.54388299 -126.6484375 410.48828125 C-127.02734375 407.66796875 -127.02734375 407.66796875 -127.2109375 404.36328125 C-127.92878796 398.62047761 -129.33282919 396.14437479 -133.7109375 392.36328125 C-134.60941406 391.68007812 -135.50789062 390.996875 -136.43359375 390.29296875 C-138.6484375 388.48828125 -138.6484375 388.48828125 -139.6484375 385.48828125 C-139.74263087 383.69860721 -139.77834748 381.90542562 -139.7734375 380.11328125 C-139.77730469 378.70949219 -139.77730469 378.70949219 -139.78125 377.27734375 C-139.65285191 374.58098378 -139.25032459 372.11556616 -138.6484375 369.48828125 C-140.31479052 369.02880891 -141.98153943 368.5707723 -143.6484375 368.11328125 C-144.64746094 367.83871094 -145.64648438 367.56414062 -146.67578125 367.28125 C-149.1798813 366.61327062 -151.68587112 366.00705804 -154.2109375 365.42578125 C-157.6484375 364.48828125 -157.6484375 364.48828125 -159.6484375 362.48828125 C-160.17463503 355.97658684 -158.79066699 350.4416125 -157.1484375 344.17578125 C-155.34341909 336.7918416 -154.17418085 329.78823693 -154.2109375 322.17578125 C-154.21351563 321.43094482 -154.21609375 320.6861084 -154.21875 319.91870117 C-154.4777627 310.33199371 -157.28521504 302.267679 -161.2734375 293.61328125 C-161.71349121 292.64745117 -162.15354492 291.68162109 -162.60693359 290.68652344 C-165.58422577 284.32394376 -168.79857327 278.77072358 -173.25 273.31640625 C-174.6484375 271.48828125 -174.6484375 271.48828125 -174.6484375 269.48828125 C-176.2984375 269.15828125 -177.9484375 268.82828125 -179.6484375 268.48828125 C-179.17289204 265.51612213 -178.24189222 263.81494064 -176.6484375 261.17578125 C-174.57212321 257.59011673 -173.5715889 254.71495402 -173.6484375 250.48828125 C-175.060718 248.06405173 -176.62886047 246.50785828 -178.6484375 244.48828125 C-179.3084375 243.82828125 -179.9684375 243.16828125 -180.6484375 242.48828125 C-180.9784375 244.79828125 -181.3084375 247.10828125 -181.6484375 249.48828125 C-182.9684375 249.81828125 -184.2884375 250.14828125 -185.6484375 250.48828125 C-192.39464051 241.41580134 -193.42296589 232.70404809 -192.6484375 221.48828125 C-192.1534375 220.49828125 -192.1534375 220.49828125 -191.6484375 219.48828125 C-195.6084375 219.81828125 -199.5684375 220.14828125 -203.6484375 220.48828125 C-204.3084375 219.16828125 -204.9684375 217.84828125 -205.6484375 216.48828125 C-205.04370605 215.90711548 -205.04370605 215.90711548 -204.42675781 215.31420898 C-202.57584197 213.52628381 -200.73718174 211.72621832 -198.8984375 209.92578125 C-198.26421875 209.31669922 -197.63 208.70761719 -196.9765625 208.08007812 C-192.20930398 203.38730802 -188.24330133 199.09245622 -187.1171875 192.26953125 C-187.19318145 184.29016628 -188.40529841 177.51760356 -190.7734375 169.9609375 C-191.6866991 166.33643054 -191.80054292 163.21011064 -191.6484375 159.48828125 C-196.34111739 163.52920005 -198.4135049 167.7573647 -200.6484375 173.48828125 C-201.9684375 173.15828125 -203.2884375 172.82828125 -204.6484375 172.48828125 C-204.73701613 169.19679015 -204.7893479 165.9056132 -204.8359375 162.61328125 C-204.86107422 161.69546875 -204.88621094 160.77765625 -204.91210938 159.83203125 C-205.02432268 149.20917151 -202.15505718 139.96881926 -195.6484375 131.48828125 C-191.50347731 127.48396841 -187.28641102 124.89777463 -181.6484375 123.48828125 C-182.02355469 122.95203125 -182.39867187 122.41578125 -182.78515625 121.86328125 C-186.29116369 116.49387943 -188.63534299 111.20399818 -190.5234375 105.11328125 C-190.73830811 104.42363281 -190.95317871 103.73398437 -191.17456055 103.0234375 C-192.16832091 99.66739258 -192.6484375 97.02227518 -192.6484375 93.48828125 C-189.58174442 93.92638026 -186.79841668 94.43341599 -183.8828125 95.5 C-173.20721208 98.76198902 -163.25993714 96.51521621 -153.6484375 91.48828125 C-152.21564453 90.87146484 -152.21564453 90.87146484 -150.75390625 90.2421875 C-147.94062581 88.8858563 -145.85946329 87.69930704 -143.6484375 85.48828125 C-142.69698052 82.51170482 -142.39400258 79.75300238 -142.10546875 76.64453125 C-140.73732799 67.19617458 -133.96246292 59.22340595 -126.6484375 53.48828125 C-120.70283592 49.88317045 -114.19829014 48.01788861 -107.5859375 46.05078125 C-99.004035 43.49708785 -90.72013574 40.32636035 -85.6484375 32.48828125 C-83.6684375 32.98328125 -83.6684375 32.98328125 -81.6484375 33.48828125 C-81.6484375 35.79828125 -81.6484375 38.10828125 -81.6484375 40.48828125 C-80.90013672 39.69164062 -80.90013672 39.69164062 -80.13671875 38.87890625 C-71.90960857 30.78472962 -62.97006635 29.05034662 -52.00244141 27.09936523 C-33.2403884 23.75751092 -17.23314166 17.92546384 -4.9375 2.6484375 C-2.6484375 0.48828125 -2.6484375 0.48828125 0 0 Z " fill="#F1F1F1" transform="translate(818.6484375,742.51171875)"/>
<path d="M0 0 C3.48614288 1.47071653 5.47046563 3.40405403 8 6.1875 C15.69133824 14.01708125 24.72731774 18.26632052 35.08984375 21.56640625 C41.69297579 24.81922432 44.44630226 31.43374766 47.6875 37.6875 C53.37636699 48.23937888 60.21332452 58.71393619 72 63 C74.6116926 63.634149 77.1964119 64.08216538 79.85546875 64.47265625 C83.59020819 65.09897901 87.21604208 66.04037996 90.875 67 C110.84735901 72.06653469 129.39227134 71.56387355 149.7277832 69.07421875 C164.45039862 67.4057292 179.20858586 67.7275854 194 68 C193.88930176 69.0430127 193.77860352 70.08602539 193.66455078 71.16064453 C191.00362742 96.42086967 189.07421438 121.622777 188 147 C186.37892334 146.22293701 186.37892334 146.22293701 184.72509766 145.43017578 C176.04609544 141.29251049 167.35878926 137.3170511 158.375 133.875 C157.27454346 133.45323486 156.17408691 133.03146973 155.0402832 132.59692383 C142.37313594 127.86025941 129.42500695 124.66571148 116.25 121.703125 C103.46687663 118.8115723 94.03638026 115.26021431 83.3125 107.5859375 C79.07810661 104.68194474 75.78873138 102.93611674 70.5 103.125 C67.02391401 103.8671799 67.02391401 103.8671799 64.12109375 105.39453125 C58.55478524 107.82951519 52.51293823 108.54343521 46.5625 109.5625 C37.48740913 111.09081552 37.48740913 111.09081552 28.515625 113.11328125 C23.03255592 114.49623312 17.6353236 114.75121261 12 115 C11.28875977 115.03399902 10.57751953 115.06799805 9.84472656 115.10302734 C0.68514005 115.49041217 -7.960714 115.16571596 -16.9375 113.1875 C-17.68862061 113.0222583 -18.43974121 112.8570166 -19.21362305 112.68676758 C-23.08281914 111.74268195 -26.03473034 110.70203424 -29 108 C-28.9921875 105.80078125 -28.9921875 105.80078125 -28 103 C-25.58111132 101.01915959 -22.88850233 99.63173035 -20.125 98.1875 C-19.39152344 97.78080078 -18.65804688 97.37410156 -17.90234375 96.95507812 C-12.44910714 94 -12.44910714 94 -9 94 C-8.4502728 99.63470383 -10.04952165 102.38987758 -13 107 C-12.278125 106.7525 -11.55625 106.505 -10.8125 106.25 C-9.884375 106.1675 -8.95625 106.085 -8 106 C-7.29875 106.639375 -6.5975 107.27875 -5.875 107.9375 C-1.4791663 111.09103287 2.73888348 110.55791947 8 110 C11.67576808 109.01144875 15.04598682 107.58792637 18.5 106 C19.40983643 105.59571777 20.31967285 105.19143555 21.25708008 104.77490234 C29.01063513 101.2221426 37.15379285 97.26931072 42 90 C41.83439587 83.73070089 39.29179748 79.10242754 36.3125 73.6875 C35.89033203 72.89666016 35.46816406 72.10582031 35.03320312 71.29101562 C29.79641505 61.5678088 23.92777057 52.22699105 18.0625 42.875 C16.74997208 40.77866331 15.437473 38.68230857 14.125 36.5859375 C13.45210938 35.51182617 12.77921875 34.43771484 12.0859375 33.33105469 C8.5742136 27.72314728 5.06866633 22.1113834 1.5625 16.5 C0.29299675 14.4687325 -0.97653186 12.43748085 -2.24609375 10.40625 C-3.62304688 8.203125 -3.62304688 8.203125 -5 6 C-3.35 4.02 -1.7 2.04 0 0 Z " fill="#020202" transform="translate(452,1367)"/>
<path d="M0 0 C1.3958955 4.67413495 1.30940722 8.63187779 -1 13 C-4.41697695 15.55711268 -8.13998127 17.21385913 -12 19 C-14.06778109 20.25950234 -16.0183887 21.60751638 -18 23 C-22.85261154 20.93236552 -25.39001627 17.48381821 -28 13 C-28.75 9.75 -28.75 9.75 -28 7 C-20.93160466 0.12794897 -9.36453464 -0.55938592 0 0 Z " fill="#050505" transform="translate(441,1444)"/>
<path d="M0 0 C0.93457031 0.00322266 1.86914062 0.00644531 2.83203125 0.00976562 C3.80011719 0.01814453 4.76820313 0.02652344 5.765625 0.03515625 C6.74917969 0.03966797 7.73273438 0.04417969 8.74609375 0.04882812 C11.16933291 0.06059142 13.59244773 0.07702941 16.015625 0.09765625 C17.30765304 4.72354027 16.31890254 7.49785316 15.015625 12.09765625 C14.07460938 12.35160156 13.13359375 12.60554688 12.1640625 12.8671875 C10.29621094 13.38345703 10.29621094 13.38345703 8.390625 13.91015625 C7.16085937 14.24660156 5.93109375 14.58304688 4.6640625 14.9296875 C1.0057636 15.99809462 1.0057636 15.99809462 -2.2578125 17.734375 C-4.984375 19.09765625 -4.984375 19.09765625 -7.984375 19.09765625 C-9.84375 17.0859375 -9.84375 17.0859375 -11.734375 14.41015625 C-12.36859375 13.54003906 -13.0028125 12.66992188 -13.65625 11.7734375 C-14.984375 9.09765625 -14.984375 9.09765625 -14.83203125 6.375 C-13.6431452 3.18089602 -12.01945284 2.50932036 -8.984375 1.09765625 C-5.92840582 0.15602871 -3.19087424 -0.01945655 0 0 Z " fill="#040404" transform="translate(416.984375,1427.90234375)"/>
<path d="M0 0 C2.475 0.495 2.475 0.495 5 1 C4.42919153 4.60719243 3.16004929 6.11884361 0.5 8.5625 C-2.63280615 11.5735363 -5.42175018 14.66065753 -8.125 18.0625 C-12.48821406 23.50136753 -17.18209074 28.56729763 -21.96484375 33.63818359 C-25.62042981 37.51474463 -29.19186661 41.44115006 -32.66796875 45.48046875 C-34.35946171 47.41006042 -36.14932182 49.22334894 -38 51 C-38.99 50.34 -39.98 49.68 -41 49 C-39.49924845 43.92420971 -36.40155458 40.8930432 -32.8125 37.1875 C-31.62549509 35.93696342 -30.43928977 34.68566735 -29.25390625 33.43359375 C-28.68687988 32.83788574 -28.11985352 32.24217773 -27.53564453 31.62841797 C-25.17293378 29.12296793 -22.92172325 26.52813486 -20.671875 23.921875 C-18.64241927 21.58894926 -16.572353 19.29488755 -14.5 17 C-6.96484002 8.73668098 -6.96484002 8.73668098 0 0 Z " fill="#EFEFEF" transform="translate(632,1057)"/>
<path d="M0 0 C0.99 0.33 1.98 0.66 3 1 C2.40812719 4.60558847 1.43235577 7.5018051 -0.21484375 10.7578125 C-0.65376953 11.63050781 -1.09269531 12.50320313 -1.54492188 13.40234375 C-2.00447266 14.30082031 -2.46402344 15.19929688 -2.9375 16.125 C-3.39318359 17.03121094 -3.84886719 17.93742187 -4.31835938 18.87109375 C-6.09038342 22.3736303 -7.82005816 25.73008725 -10 29 C-11.32 28.34 -12.64 27.68 -14 27 C-12.36138149 21.0833116 -9.41647172 16.00845461 -6.4375 10.6875 C-5.93025391 9.76904297 -5.42300781 8.85058594 -4.90039062 7.90429688 C-1.15299263 1.15299263 -1.15299263 1.15299263 0 0 Z " fill="#ECECEC" transform="translate(654,1117)"/>
<path d="M0 0 C2.81169728 1.3179831 3.61334879 3.23353014 5 5.9375 C1.7 5.2775 -1.6 4.6175 -5 3.9375 C-5 3.2775 -5 2.6175 -5 1.9375 C-2 -0.0625 -2 -0.0625 0 0 Z " fill="#1E1E1E" transform="translate(394,1411.0625)"/>
<path d="M0 0 C2.45976489 3.68964734 3.12465307 5.27428479 3.0625 9.625 C3.05347656 10.44226562 3.04445313 11.25953125 3.03515625 12.1015625 C3.02355469 12.72804688 3.01195312 13.35453125 3 14 C-0.16470185 9.25294723 -0.10927475 5.68228705 0 0 Z " fill="#222222" transform="translate(911,1086)"/>
</svg>
