<?xml version="1.0" encoding="UTF-8"?>
<svg version="1.1" xmlns="http://www.w3.org/2000/svg" width="1206" height="2622">
<path d="M0 0 C397.98 0 795.96 0 1206 0 C1206 865.26 1206 1730.52 1206 2622 C808.02 2622 410.04 2622 0 2622 C0 1756.74 0 891.48 0 0 Z " fill="#000000" transform="translate(0,0)"/>
<path d="M0 0 C2.3515625 0.48828125 2.3515625 0.48828125 4.6015625 3.23828125 C7.14581704 7.96332539 7.47228818 11.38151858 7.4140625 16.73828125 C7.40503906 17.8159375 7.39601563 18.89359375 7.38671875 20.00390625 C7.36931641 21.23367188 7.36931641 21.23367188 7.3515625 22.48828125 C7.89425781 22.21113281 8.43695312 21.93398438 8.99609375 21.6484375 C9.71152344 21.28621094 10.42695312 20.92398438 11.1640625 20.55078125 C12.22560547 20.01130859 12.22560547 20.01130859 13.30859375 19.4609375 C20.44794364 16.06189711 29.81877517 16.46826084 37.44140625 18.18359375 C47.18913381 21.87487908 55.90196215 28.47838457 64.3515625 34.48828125 C65.09212891 34.95733887 65.83269531 35.42639648 66.59570312 35.90966797 C67.17513672 36.43061035 67.75457031 36.95155273 68.3515625 37.48828125 C68.3515625 38.80828125 68.3515625 40.12828125 68.3515625 41.48828125 C65.7115625 41.48828125 63.0715625 41.48828125 60.3515625 41.48828125 C62.27260854 46.55285718 65.95435744 47.83592191 70.65625 50.03125 C86.02190955 56.08980287 102.02055608 56.26815613 118.3515625 56.48828125 C120.1762949 64.71131307 118.57463561 73.49094851 114.4375 80.83203125 C112.892956 83.18773864 111.20552163 85.36947082 109.3515625 87.48828125 C110.16947266 87.67390625 110.16947266 87.67390625 111.00390625 87.86328125 C120.73692838 90.5253044 126.60723394 96.50633697 131.6015625 105.11328125 C136.67774396 114.3064928 140.04721885 123.94325262 141.83203125 134.28515625 C142.35797368 136.51546853 143.10674778 138.12442113 144.2265625 140.11328125 C151.51996257 153.69315675 152.83044345 172.40353127 152.3515625 187.48828125 C151.0315625 187.81828125 149.7115625 188.14828125 148.3515625 188.48828125 C147.866875 187.89660156 147.3821875 187.30492187 146.8828125 186.6953125 C146.2125 185.90511719 145.5421875 185.11492187 144.8515625 184.30078125 C144.201875 183.52347656 143.5521875 182.74617187 142.8828125 181.9453125 C139.69280306 178.84883729 136.18061558 176.71230334 132.3515625 174.48828125 C132.54233663 178.89624932 132.7551817 183.30250425 132.98632812 187.70849609 C133.0616891 189.19942986 133.13157705 190.69065294 133.1953125 192.18212891 C133.83819523 207.05883708 135.35263073 224.22423787 145.51953125 235.97265625 C149.13538198 238.96402103 153.42077415 240.95504457 157.5859375 243.0703125 C160.3515625 244.48828125 160.3515625 244.48828125 161.3515625 245.48828125 C161.6640625 247.86328125 161.6640625 247.86328125 161.3515625 250.48828125 C155.47551719 256.29160323 143.75696122 256.67578125 135.9140625 256.67578125 C134.39265608 256.62927538 132.87128716 256.57358804 131.3515625 256.48828125 C131.38636719 257.52726562 131.42117188 258.56625 131.45703125 259.63671875 C131.6815879 269.13193125 131.73456809 277.55875882 126.1640625 285.67578125 C123.3515625 288.48828125 123.3515625 288.48828125 121.390625 290.01953125 C114.68858507 295.30143632 111.99645677 301.135202 110.97241211 309.63549805 C110.81400129 313.01348799 110.79839488 316.35705667 110.8515625 319.73828125 C110.86425171 321.55743042 110.86425171 321.55743042 110.87719727 323.41333008 C111.0854224 334.21209717 112.71681003 344.49331655 114.89013672 355.04443359 C115.60983867 358.85618835 116.04691027 362.62035483 116.3515625 366.48828125 C115.3515625 367.48828125 115.3515625 367.48828125 113.109375 367.81640625 C109.35862237 367.37014106 107.94359424 365.81406057 105.2265625 363.23828125 C104.37835937 362.449375 103.53015625 361.66046875 102.65625 360.84765625 C100.67373379 358.81809728 98.97819558 356.80596759 97.3515625 354.48828125 C96.00456569 392.78147634 136.46362057 450.49965493 158.3515625 480.48828125 C159.0940625 481.51179688 159.8365625 482.5353125 160.6015625 483.58984375 C164.65790991 489.0803997 168.88503867 494.4214396 173.1640625 499.73828125 C175.23209995 502.31723397 177.29439525 504.90064949 179.3515625 507.48828125 C179.85623047 508.1225 180.36089844 508.75671875 180.88085938 509.41015625 C189.13583515 519.86433407 195.96562497 530.8078802 202.3515625 542.48828125 C202.96 543.56851563 203.5684375 544.64875 204.1953125 545.76171875 C207.13662233 551.23915797 209.2771232 556.81255625 211.1015625 562.73828125 C211.30056152 563.36879395 211.49956055 563.99930664 211.70458984 564.64892578 C215.58725228 578.16325726 215.72964765 592.3549477 215.6640625 606.30078125 C215.66157501 607.15365723 215.65908752 608.0065332 215.65652466 608.88525391 C215.4042186 665.20258728 199.92510431 718.90218906 180.89404297 771.39187622 C171.90818413 796.20909432 165.92883804 820.12832191 161.86322021 846.21563721 C160.16038951 857.10721296 158.42683232 867.99401125 156.69790649 878.88146973 C156.21615759 881.91528354 155.73524299 884.94922788 155.25497437 887.98327637 C152.33303181 906.43403277 149.3079092 924.85610194 145.9765625 943.23828125 C128.98552174 1035.71826024 128.98552174 1035.71826024 144.3984375 1127.12109375 C145.4560532 1130.85742462 145.80482725 1133.62664331 145.3515625 1137.48828125 C143.65625 1140.09375 143.65625 1140.09375 141.2265625 1142.67578125 C136.53981997 1147.89778563 132.46326764 1153.40403342 128.4765625 1159.17578125 C127.88174072 1160.03260498 127.28691895 1160.88942871 126.67407227 1161.7722168 C124.34998337 1165.12727593 122.03499109 1168.48837804 119.73193359 1171.85791016 C111.78951747 1183.46874062 103.30912569 1193.53071806 93.3515625 1203.48828125 C92.17354582 1204.69961385 90.99654628 1205.91193607 89.8203125 1207.125 C76.60727833 1220.66977701 62.70910589 1231.02991273 46.3515625 1240.48828125 C45.71492676 1240.85695313 45.07829102 1241.225625 44.42236328 1241.60546875 C19.63203738 1255.78279031 -6.27095262 1263.37085787 -34.27423096 1268.08734131 C-36.94755328 1268.5387939 -39.62003313 1268.99505691 -42.29248047 1269.45166016 C-48.63888853 1270.53477979 -54.9870706 1271.60717801 -61.3359375 1272.67578125 C-62.88649841 1272.93751129 -62.88649841 1272.93751129 -64.46838379 1273.20452881 C-127.98799286 1283.8953366 -127.98799286 1283.8953366 -156.6484375 1266.48828125 C-159.11328125 1264.37890625 -159.11328125 1264.37890625 -160.6484375 1262.48828125 C-160.3984375 1260.23828125 -160.3984375 1260.23828125 -159.6484375 1258.48828125 C-157.9984375 1258.48828125 -156.3484375 1258.48828125 -154.6484375 1258.48828125 C-154.6484375 1259.47828125 -154.6484375 1260.46828125 -154.6484375 1261.48828125 C-132.62309343 1272.33747232 -112.59460071 1274.63312929 -88.28125 1270.7734375 C-86.54783607 1270.50700943 -86.54783607 1270.50700943 -84.77940369 1270.23519897 C-81.06767743 1269.66152605 -77.35801049 1269.07570376 -73.6484375 1268.48828125 C-71.15421621 1268.09838407 -68.65999421 1267.7084915 -66.16577148 1267.31860352 C-59.79840638 1266.31712705 -53.43604523 1265.28714194 -47.07543945 1264.24365234 C-44.48746023 1263.8215055 -41.89857363 1263.40488611 -39.30883789 1262.99365234 C-20.05390519 1259.93363356 -1.23567039 1256.35897317 16.6640625 1248.36328125 C17.50960693 1247.99275635 18.35515137 1247.62223145 19.22631836 1247.24047852 C43.76699751 1236.27845199 64.84603637 1223.02230912 84.3515625 1204.48828125 C85.33334473 1203.56547363 85.33334473 1203.56547363 86.33496094 1202.62402344 C97.12410077 1192.42620664 106.07459051 1181.7939822 114.3515625 1169.48828125 C115.98994158 1167.06545119 117.62969337 1164.64357694 119.27197266 1162.22338867 C120.35806873 1160.62104978 121.43985306 1159.01577898 122.51708984 1157.4074707 C125.14389797 1153.52913194 127.84204973 1149.81387563 130.87109375 1146.23828125 C131.4343335 1145.57143311 131.99757324 1144.90458496 132.57788086 1144.2175293 C133.64269263 1142.97958509 134.72711167 1141.75812058 135.83422852 1140.55786133 C137.72804887 1138.36560531 139.26725348 1136.45909061 139.52368164 1133.50634766 C139.08575678 1129.16836401 137.67450267 1125.26865394 136.0390625 1121.23828125 C133.8851544 1115.42397442 132.37490503 1109.69265882 131.1640625 1103.61328125 C131.0096167 1102.84854492 130.8551709 1102.08380859 130.69604492 1101.29589844 C127.97509534 1087.01054406 126.94539778 1072.99770792 126.9765625 1058.48828125 C126.97644165 1057.61265533 126.9763208 1056.73702942 126.97619629 1055.83486938 C127.01477997 1035.89585399 128.88253006 1016.256235 131.3515625 996.48828125 C131.50641113 995.22306641 131.66125977 993.95785156 131.82080078 992.65429688 C133.65202503 978.01261459 136.19644862 963.50708138 138.84631348 948.99624634 C142.0290795 931.5621748 144.99379475 914.09284718 147.9140625 896.61328125 C148.03385342 895.89730648 148.15364433 895.18133171 148.27706528 894.44366074 C151.55422816 874.85184285 154.7391497 855.25288222 157.33813477 835.55712891 C159.92920289 816.34781113 165.14723729 798.18713423 171.5390625 779.92578125 C172.20780755 777.99025828 172.87576635 776.05446349 173.54296875 774.1184082 C177.23177998 763.44146276 181.01709745 752.80112408 184.8515625 742.17578125 C186.36465798 737.95115023 187.86567888 733.7225594 189.3515625 729.48828125 C189.6702832 728.58223145 189.98900391 727.67618164 190.31738281 726.74267578 C197.06586565 707.19076145 200.78402709 686.81729205 204.3515625 666.48828125 C204.56323059 665.28504211 204.56323059 665.28504211 204.7791748 664.05749512 C208.20453309 644.34211298 209.81906959 624.87741312 209.9140625 604.86328125 C209.92300537 603.93609283 209.93194824 603.00890442 209.94116211 602.05361938 C210.21910256 559.32455801 189.83303693 529.66459832 164 497.56640625 C138.69342699 465.57348117 117.31645824 427.84493624 102.83203125 389.6171875 C102.57341309 388.94059082 102.31479492 388.26399414 102.04833984 387.56689453 C101.3515625 385.48828125 101.3515625 385.48828125 100.87744141 383.17138672 C100.01892944 379.429335 99.27508029 377.19344196 96.15942383 374.81445312 C93.27519255 373.23040261 90.34811363 371.84742122 87.3515625 370.48828125 C85.27159447 369.43582662 83.19610918 368.37446996 81.125 367.3046875 C77.91818091 365.67180352 74.71011237 364.04254625 71.4921875 362.43164062 C54.7737442 353.87730201 46.13290506 344.27946171 40.37133789 326.46289062 C39.94805878 325.12557865 39.53666527 323.78443468 39.13842773 322.43945312 C38.01547202 318.81019735 37.62877381 317.67308879 34.3515625 315.48828125 C26.21607538 314.83943872 18.58190597 318.81973664 12.4765625 323.86328125 C10.3515625 325.48828125 10.3515625 325.48828125 8.1015625 325.36328125 C6.3515625 324.48828125 6.3515625 324.48828125 5.3515625 322.48828125 C5.22863459 320.95025294 5.17600435 319.40616807 5.1640625 317.86328125 C5.14988281 317.04601563 5.13570312 316.22875 5.12109375 315.38671875 C5.42289979 311.59112413 6.36007756 308.16422147 7.3515625 304.48828125 C6.80741699 304.75044434 6.26327148 305.01260742 5.70263672 305.28271484 C3.21236774 306.479929 0.71950319 307.67164098 -1.7734375 308.86328125 C-2.629375 309.27578125 -3.4853125 309.68828125 -4.3671875 310.11328125 C-16.25044545 315.7806812 -16.25044545 315.7806812 -22.3984375 315.73828125 C-23.15640625 315.7434375 -23.914375 315.74859375 -24.6953125 315.75390625 C-26.6484375 315.48828125 -26.6484375 315.48828125 -28.6484375 313.48828125 C-28.53864892 310.41420098 -27.43978637 309.2506508 -25.3984375 306.92578125 C-19.03175607 299.55967889 -16.85163937 291.03876891 -16.6484375 281.48828125 C-17.21691406 281.98199219 -17.78539062 282.47570313 -18.37109375 282.984375 C-23.1649161 286.96188703 -26.34927786 289.35425658 -32.6484375 289.48828125 C-34.2109375 287.86328125 -34.2109375 287.86328125 -35.6484375 285.48828125 C-35.51164815 282.13694209 -35.25114161 280.21152619 -33.0859375 277.61328125 C-32.6115625 277.24203125 -32.1371875 276.87078125 -31.6484375 276.48828125 C-31.3184375 279.12828125 -30.9884375 281.76828125 -30.6484375 284.48828125 C-24.66344529 280.75057763 -24.66344529 280.75057763 -19.3984375 276.11328125 C-17.6484375 274.48828125 -17.6484375 274.48828125 -14.8984375 274.23828125 C-14.1559375 274.32078125 -13.4134375 274.40328125 -12.6484375 274.48828125 C-9.0718082 280.91190748 -10.35459642 287.14587611 -12.2734375 293.92578125 C-14.26178429 300.00525884 -17.07127561 305.20600553 -20.6484375 310.48828125 C-18.41730598 309.61804738 -16.18831394 308.74304903 -13.9609375 307.86328125 C-13.28627441 307.59765381 -12.61161133 307.33202637 -11.91650391 307.05834961 C-6.27916741 304.80882918 -0.86692092 302.24041214 4.546875 299.4921875 C7.67004666 298.37428344 9.22448319 298.52037575 12.3515625 299.48828125 C12.46407983 305.56421687 12.04416608 311.45273577 11.3515625 317.48828125 C12.1559375 316.89015625 12.9603125 316.29203125 13.7890625 315.67578125 C20.97638496 310.95700179 28.82641019 309.34615558 37.3515625 310.48828125 C40.77935579 312.01984846 41.87541616 313.42142704 43.390625 316.81640625 C44.46398617 319.68416511 45.41973886 322.57159749 46.3515625 325.48828125 C51.49716158 340.92507849 58.08326903 349.12119089 72.74609375 356.62695312 C73.85339844 357.17931641 74.96070313 357.73167969 76.1015625 358.30078125 C77.22433594 358.87248047 78.34710937 359.44417969 79.50390625 360.03320312 C82.44757752 361.52965728 85.39722038 363.01303574 88.3515625 364.48828125 C89.12661133 364.87588623 89.90166016 365.26349121 90.70019531 365.6628418 C91.24514648 365.93523682 91.79009766 366.20763184 92.3515625 366.48828125 C91.81015625 364.89113281 91.81015625 364.89113281 91.2578125 363.26171875 C88.22868909 353.9401769 86.01902728 345.39112192 87.3515625 335.48828125 C88.0115625 334.49828125 88.6715625 333.50828125 89.3515625 332.48828125 C91.9765625 332.30078125 91.9765625 332.30078125 94.3515625 332.48828125 C94.78726563 333.69484375 95.22296875 334.90140625 95.671875 336.14453125 C100.45053132 350.07794545 100.45053132 350.07794545 110.3515625 360.48828125 C110.23562744 359.91907959 110.11969238 359.34987793 110.00024414 358.76342773 C109.4694354 356.15129698 108.94172831 353.53854863 108.4140625 350.92578125 C108.23166016 350.03052734 108.04925781 349.13527344 107.86132812 348.21289062 C105.96985162 338.82428907 105.11790538 329.88281958 105.0390625 320.30078125 C105.01005859 319.14513672 104.98105469 317.98949219 104.95117188 316.79882812 C104.87108023 305.82627329 106.7898565 296.25502122 114.546875 288.1484375 C116.17395842 286.65166163 117.83786136 285.31763808 119.6015625 283.98828125 C124.1970866 279.81053207 125.45254873 274.68340676 125.7578125 268.65625 C125.82516674 266.14235199 125.85205292 263.6298572 125.87890625 261.11523438 C125.90082031 260.30376953 125.92273438 259.49230469 125.9453125 258.65625 C125.95594727 257.56219849 125.95594727 257.56219849 125.96679688 256.44604492 C126.4655604 253.90823738 127.29744573 253.02664576 129.3515625 251.48828125 C131.95467457 251.15777376 134.36827619 250.98056963 136.9765625 250.92578125 C143.00162024 250.68741388 148.50058267 250.05550799 154.3515625 248.48828125 C152.35250023 246.94149551 150.37200049 245.50054404 148.203125 244.19921875 C138.03210594 238.09660732 133.60733709 228.65936291 130.3515625 217.48828125 C128.23699442 208.40174167 128.03915483 199.44045792 128.09082031 190.16650391 C128.10170792 187.83210241 128.09077747 185.49844321 128.078125 183.1640625 C128.07944392 181.67577956 128.08200075 180.18749707 128.0859375 178.69921875 C128.08188904 178.00347748 128.07784058 177.30773621 128.07366943 176.59091187 C128.12153071 171.71831304 128.12153071 171.71831304 130.3515625 169.48828125 C134.27670637 169.81044549 136.84244107 171.20605601 140.0390625 173.42578125 C140.80605469 173.95042969 141.57304688 174.47507812 142.36328125 175.015625 C144.3515625 176.48828125 144.3515625 176.48828125 146.3515625 178.48828125 C145.88260486 163.90369873 143.86663244 149.21788951 136.3515625 136.48828125 C134.67354461 133.54742516 134.19350748 131.60678673 134.1640625 128.23828125 C133.32436934 118.13197427 127.66250466 105.56570438 120.3515625 98.48828125 C116.48065668 95.43357895 112.58886026 93.50194564 107.9140625 91.98828125 C106.7384375 91.49328125 105.5628125 90.99828125 104.3515625 90.48828125 C103.421875 88.140625 103.421875 88.140625 103.3515625 85.48828125 C104.71484375 83.4609375 104.71484375 83.4609375 106.6640625 81.55078125 C112.16780613 75.68667346 112.92083315 69.18986691 114.3515625 61.48828125 C113.29582031 61.5346875 112.24007812 61.58109375 111.15234375 61.62890625 C94.57617774 62.12184954 73.18114756 60.83453555 59.7265625 50.11328125 C57.28072018 47.7678842 56.3723747 46.54414557 55.1640625 43.30078125 C55.38288028 40.01851462 56.31945715 38.97907704 58.3515625 36.48828125 C41.22598742 25.00172536 41.22598742 25.00172536 21.3515625 22.48828125 C16.52678002 23.90219031 12.12870899 25.8021248 8.0390625 28.73828125 C5.13228408 30.6310672 3.7427941 30.88724967 0.3515625 30.48828125 C0.4959375 29.70453125 0.6403125 28.92078125 0.7890625 28.11328125 C2.00422719 20.2822199 2.76366597 14.15025699 0.3515625 6.48828125 C-1.1334375 7.75671875 -1.1334375 7.75671875 -2.6484375 9.05078125 C-3.298125 9.60121094 -3.9478125 10.15164063 -4.6171875 10.71875 C-5.89710136 11.83375188 -7.15179784 12.97905758 -8.3671875 14.1640625 C-19.98920482 25.25085534 -35.16812789 30.36159011 -50.78979492 32.51977539 C-60.34502668 33.84133354 -70.13388492 35.32531896 -76.82421875 42.9765625 C-78.22038081 44.89890126 -79.60234822 46.81035843 -80.8984375 48.80078125 C-81.4759375 49.68765625 -82.0534375 50.57453125 -82.6484375 51.48828125 C-84.5859375 50.92578125 -84.5859375 50.92578125 -86.6484375 49.48828125 C-87.3984375 45.86328125 -87.3984375 45.86328125 -87.6484375 42.48828125 C-88.19628906 42.86339844 -88.74414062 43.23851562 -89.30859375 43.625 C-94.38217127 46.90013866 -99.40026734 49.27905159 -105.1484375 51.11328125 C-105.79312988 51.31928955 -106.43782227 51.52529785 -107.10205078 51.73754883 C-108.95018846 52.32320646 -110.7992929 52.90581067 -112.6484375 53.48828125 C-125.84372613 57.82159272 -132.16818273 65.28162685 -138.6484375 77.48828125 C-139.41416242 79.28564199 -140.148141 81.09718172 -140.8359375 82.92578125 C-144.28445126 92.04813174 -149.99527391 95.52954649 -158.6484375 99.48828125 C-167.65698669 103.17171561 -176.15695308 103.20895971 -185.6484375 101.48828125 C-184.91266462 103.74384729 -184.16068236 105.99166482 -183.3984375 108.23828125 C-183.19347656 108.8725 -182.98851562 109.50671875 -182.77734375 110.16015625 C-181.39837148 114.17171194 -179.97726677 116.83037881 -176.6484375 119.48828125 C-175.6584375 119.81828125 -174.6684375 120.14828125 -173.6484375 120.48828125 C-173.6484375 122.13828125 -173.6484375 123.78828125 -173.6484375 125.48828125 C-174.26589844 125.69582031 -174.88335938 125.90335938 -175.51953125 126.1171875 C-184.55695319 129.40477326 -192.27344119 133.97147823 -196.71875 142.80078125 C-198.583111 148.19019457 -199.10969645 153.83552065 -199.6484375 159.48828125 C-199.22433594 159.06675781 -198.80023437 158.64523437 -198.36328125 158.2109375 C-194.12897955 154.25582053 -191.45832578 152.72541955 -185.6484375 152.48828125 C-184.5234375 156.23828125 -184.5234375 156.23828125 -185.6484375 158.48828125 C-186.13234616 164.29518514 -185.41718589 168.6195363 -183.6484375 174.17578125 C-181.17834947 182.3358935 -179.54965813 191.62276454 -183.0859375 199.73828125 C-186.15710826 204.87551234 -190.52618493 209.18986404 -194.6484375 213.48828125 C-191.0184375 213.15828125 -187.3884375 212.82828125 -183.6484375 212.48828125 C-184.6484375 217.48828125 -184.6484375 217.48828125 -185.6953125 219.359375 C-187.07675126 222.44496568 -186.91257502 225.18958695 -186.8984375 228.55078125 C-186.90359375 229.77925781 -186.90875 231.00773438 -186.9140625 232.2734375 C-186.89718014 235.63982792 -186.89718014 235.63982792 -184.6484375 238.48828125 C-184.2565625 237.97265625 -183.8646875 237.45703125 -183.4609375 236.92578125 C-181.6484375 235.48828125 -181.6484375 235.48828125 -179.0859375 235.61328125 C-176.6484375 236.48828125 -176.6484375 236.48828125 -174.6484375 239.48828125 C-174.26343859 241.14377656 -173.92050615 242.81052455 -173.6484375 244.48828125 C-173.3184375 242.17828125 -172.9884375 239.86828125 -172.6484375 237.48828125 C-171.3284375 237.48828125 -170.0084375 237.48828125 -168.6484375 237.48828125 C-167.9884375 241.77828125 -167.3284375 246.06828125 -166.6484375 250.48828125 C-161.38888934 240.65854317 -157.23791407 231.39134048 -154.6484375 220.48828125 C-153.3284375 220.15828125 -152.0084375 219.82828125 -150.6484375 219.48828125 C-148.0084375 225.75828125 -145.3684375 232.02828125 -142.6484375 238.48828125 C-141.9884375 238.48828125 -141.3284375 238.48828125 -140.6484375 238.48828125 C-140.44089844 237.85921875 -140.23335937 237.23015625 -140.01953125 236.58203125 C-137.65100376 230.00168711 -134.56828124 225.43576456 -129.6484375 220.48828125 C-128.3284375 220.81828125 -127.0084375 221.14828125 -125.6484375 221.48828125 C-125.62265625 222.75800781 -125.596875 224.02773438 -125.5703125 225.3359375 C-125.19037816 238.1947713 -123.63722571 249.5196638 -118.6484375 261.48828125 C-118.32230469 260.46347656 -117.99617188 259.43867187 -117.66015625 258.3828125 C-117.21907503 257.02203002 -116.77765057 255.66135876 -116.3359375 254.30078125 C-116.12259766 253.62724609 -115.90925781 252.95371094 -115.68945312 252.25976562 C-114.40663616 248.33472863 -112.94745617 244.96040622 -110.6484375 241.48828125 C-108.9984375 241.81828125 -107.3484375 242.14828125 -105.6484375 242.48828125 C-105.44347656 243.18695312 -105.23851562 243.885625 -105.02734375 244.60546875 C-104.62322266 245.97058594 -104.62322266 245.97058594 -104.2109375 247.36328125 C-103.94410156 248.26820313 -103.67726563 249.173125 -103.40234375 250.10546875 C-102.72229924 252.47103506 -102.72229924 252.47103506 -101.6484375 254.48828125 C-101.69484375 253.49570312 -101.74125 252.503125 -101.7890625 251.48046875 C-102.11343055 241.28496258 -101.31304416 231.81749456 -96.6484375 222.48828125 C-91.7734375 223.36328125 -91.7734375 223.36328125 -90.6484375 224.48828125 C-90.57367187 223.65425781 -90.49890625 222.82023438 -90.421875 221.9609375 C-89.37784237 213.02524644 -87.53658257 206.4338318 -80.359375 200.640625 C-73.51726593 195.92692446 -67.95080286 194.55126889 -59.6484375 195.48828125 C-49.40809645 198.70152609 -42.07398049 206.44660649 -36.99584961 215.6730957 C-32.65612317 224.74020669 -32.18598084 234.22230457 -32.3359375 244.11328125 C-32.3464917 245.33442627 -32.3570459 246.55557129 -32.36791992 247.8137207 C-32.8580919 281.44484165 -32.8580919 281.44484165 -42.6171875 291.82421875 C-47.13662071 295.5266775 -52.83911294 297.05047395 -58.6484375 296.48828125 C-53.9181112 292.67350198 -53.9181112 292.67350198 -51.453125 290.98046875 C-44.6051141 286.1213191 -41.70365795 281.80620084 -40.06933594 273.56982422 C-38.71312194 264.66419587 -38.30678725 255.96940175 -38.33276367 246.97290039 C-38.33595861 244.66050463 -38.31222919 242.34935152 -38.28710938 240.03710938 C-38.22684064 226.53817958 -40.65846567 217.88035878 -49.6484375 207.48828125 C-55.29436623 202.41253542 -60.34933771 201.04817228 -67.796875 201.15625 C-73.29374068 201.796296 -76.70035276 204.3142006 -80.33203125 208.3671875 C-84.82051352 214.44510739 -86.74742061 221.2532346 -88.6484375 228.48828125 C-90.2984375 228.48828125 -91.9484375 228.48828125 -93.6484375 228.48828125 C-95.90904905 237.42980731 -97.08623593 246.97359985 -94.5859375 255.98828125 C-93.66770549 259.41634742 -93.6061337 261.1529091 -94.6484375 264.48828125 C-96.4296875 265.17578125 -96.4296875 265.17578125 -98.6484375 265.48828125 C-103.7317427 262.09941112 -106.92711101 256.82208117 -109.6484375 251.48828125 C-111.40467065 256.8640681 -112.04160624 261.7893838 -112.2734375 267.42578125 C-112.31210937 268.20501953 -112.35078125 268.98425781 -112.390625 269.78710938 C-112.48387877 271.68715504 -112.56719712 273.58768403 -112.6484375 275.48828125 C-113.9684375 275.81828125 -115.2884375 276.14828125 -116.6484375 276.48828125 C-120.27374383 271.08107581 -123.03985301 265.69966534 -125.3359375 259.61328125 C-125.63773926 258.82244141 -125.93954102 258.03160156 -126.25048828 257.21679688 C-129.54228475 248.38789041 -130.89111527 239.85516147 -131.6484375 230.48828125 C-134.35377156 237.22015902 -136.17276625 243.23429467 -136.6484375 250.48828125 C-137.9684375 250.81828125 -139.2884375 251.14828125 -140.6484375 251.48828125 C-142.13686263 249.09778029 -143.61421845 246.7015369 -145.0859375 244.30078125 C-145.50681641 243.62724609 -145.92769531 242.95371094 -146.36132812 242.25976562 C-148.53780038 238.69035113 -150.1951632 235.73257698 -150.6484375 231.48828125 C-151.3084375 231.48828125 -151.9684375 231.48828125 -152.6484375 231.48828125 C-152.72835938 232.30683594 -152.80828125 233.12539063 -152.890625 233.96875 C-153.8395261 238.37575975 -155.63690275 241.85971121 -157.7734375 245.80078125 C-158.17288574 246.55407715 -158.57233398 247.30737305 -158.98388672 248.08349609 C-161.67044469 253.03219361 -164.60073175 257.36332374 -168.53125 261.43359375 C-170.31140175 264.70757913 -169.55695925 266.96107916 -168.6484375 270.48828125 C-166.91884171 273.35851732 -166.91884171 273.35851732 -164.6484375 276.11328125 C-160.4544174 281.75019427 -157.48641577 287.66955349 -154.7109375 294.11328125 C-154.33388672 294.97131348 -153.95683594 295.8293457 -153.56835938 296.71337891 C-145.903622 315.04103646 -148.35909608 332.74471244 -152.6484375 351.48828125 C-153.02712344 353.18725924 -153.40477078 354.88646915 -153.78125 356.5859375 C-154.06742188 357.87371094 -154.35359375 359.16148437 -154.6484375 360.48828125 C-153.3696875 360.59140625 -152.0909375 360.69453125 -150.7734375 360.80078125 C-144.98505382 361.44291573 -137.88781496 362.24890379 -133.6484375 366.48828125 C-133.56420898 368.33251953 -133.56420898 368.33251953 -133.76953125 370.55859375 C-134.73491776 379.89320001 -134.73491776 379.89320001 -131.72265625 388.3828125 C-129.34495944 390.45010867 -129.34495944 390.45010867 -126.8125 392.015625 C-124.32643121 393.70740828 -123.61201208 394.66279954 -122.6484375 397.48828125 C-122.36362944 399.56254375 -122.15969526 401.64899564 -122.0234375 403.73828125 C-121.94867187 404.8159375 -121.87390625 405.89359375 -121.796875 407.00390625 C-121.74789063 407.82375 -121.69890625 408.64359375 -121.6484375 409.48828125 C-119.7921875 409.82859375 -119.7921875 409.82859375 -117.8984375 410.17578125 C-114.95246363 410.93955225 -113.69418275 411.44871779 -111.3359375 413.48828125 C-109.39699524 416.93528972 -108.35824205 420.27261563 -107.359375 424.0859375 C-106.64584673 426.49703576 -106.05785845 428.40108144 -104.6484375 430.48828125 C-102.31793706 431.63125013 -102.31793706 431.63125013 -99.6484375 432.48828125 C-97.90496013 433.37742793 -96.17616621 434.29579221 -94.4609375 435.23828125 C-93.50445313 435.76164062 -92.54796875 436.285 -91.5625 436.82421875 C-87.96529287 438.87838797 -84.48867501 441.10000854 -81.03515625 443.38671875 C-77.95978941 444.80611883 -76.00505575 444.93062629 -72.6484375 444.48828125 C-70.00937822 442.97559319 -70.00937822 442.97559319 -67.5859375 440.73828125 C-66.63203125 439.9184375 -65.678125 439.09859375 -64.6953125 438.25390625 C-62.60834427 436.38292438 -60.56594461 434.47094253 -58.5390625 432.53515625 C-51.06789709 425.41271405 -43.46793227 419.83095785 -34.6484375 414.48828125 C-31.71282386 412.56678869 -28.78216419 410.63816651 -25.85546875 408.703125 C-23.6484375 407.48828125 -23.6484375 407.48828125 -20.6484375 407.48828125 C-27.18748904 414.44471906 -33.48456605 420.30977246 -41.6171875 425.4140625 C-48.65506138 430.22992723 -54.66412016 436.44750808 -60.6484375 442.48828125 C-59.8234375 442.67390625 -58.9984375 442.85953125 -58.1484375 443.05078125 C-50.67332661 446.12091608 -44.92854457 452.13288964 -41.6484375 459.48828125 C-38.70489858 467.46432219 -38.30720686 475.50476559 -38.1484375 483.92578125 C-38.1023938 485.34721436 -38.1023938 485.34721436 -38.05541992 486.79736328 C-38.05428089 491.07327514 -38.09770095 494.44061899 -40.75 497.9296875 C-43.81943024 500.63922498 -46.81706541 502.36234825 -50.5234375 503.98828125 C-61.74887923 509.2662592 -72.13184356 515.94155088 -82.6484375 522.48828125 C-85.30704981 524.14098364 -87.9658824 525.79332798 -90.62524414 527.44482422 C-92.34915393 528.51553318 -94.07229924 529.587474 -95.79467773 530.66064453 C-101.175111 534.0002937 -106.60802842 537.23258919 -112.08374023 540.41333008 C-119.94613774 544.98728273 -127.67969974 549.66566629 -135.1484375 554.86328125 C-135.82422852 555.32677979 -136.50001953 555.79027832 -137.19628906 556.26782227 C-146.25967288 562.72669276 -150.6294388 569.5593048 -152.640625 580.45703125 C-152.94158496 582.29970118 -153.23552701 584.14352735 -153.5234375 585.98828125 C-155.06015107 595.35068207 -156.86019741 604.62435095 -158.89794922 613.890625 C-162.30886403 629.6920406 -163.47821003 645.58956408 -164.7109375 661.67578125 C-164.97005305 665.04620811 -165.23052573 668.41649833 -165.49571228 671.78645325 C-165.65961137 673.86957686 -165.820036 675.95297746 -165.97657776 678.03666687 C-166.05012985 678.97226944 -166.12368195 679.90787201 -166.19946289 680.87182617 C-166.26226944 681.69341721 -166.32507599 682.51500824 -166.38978577 683.36149597 C-166.6484375 685.48828125 -166.6484375 685.48828125 -167.6484375 688.48828125 C-166.9884375 688.48828125 -166.3284375 688.48828125 -165.6484375 688.48828125 C-165.96232422 689.35638428 -166.27621094 690.2244873 -166.59960938 691.11889648 C-167.58697492 694.29083127 -168.09162363 697.10311212 -168.4296875 700.3984375 C-168.60951172 702.13577148 -168.60951172 702.13577148 -168.79296875 703.90820312 C-168.91027344 705.11025391 -169.02757812 706.31230469 -169.1484375 707.55078125 C-169.26574219 708.66388672 -169.38304687 709.77699219 -169.50390625 710.92382812 C-171.82671235 733.93958965 -172.92099031 756.99532189 -173.48214722 780.11383057 C-174.05314908 803.46177667 -174.86525361 826.78965099 -176.0859375 850.11328125 C-176.14151825 851.22982086 -176.197099 852.34636047 -176.25436401 853.49673462 C-177.30060237 874.27915772 -179.20518203 894.99625229 -183.2734375 915.42578125 C-183.52577148 916.70461182 -183.77810547 917.98344238 -184.03808594 919.30102539 C-187.17994065 934.88045553 -191.27500267 950.21468998 -195.6484375 965.48828125 C-195.84479797 966.17531128 -196.04115845 966.86234131 -196.24346924 967.57019043 C-203.80555768 993.9125679 -213.73734701 1018.76694915 -225.8515625 1043.38476562 C-231.38196321 1054.74468728 -235.98434302 1066.41130788 -240.42138672 1078.234375 C-241.56864144 1081.27667721 -242.74658093 1084.30507071 -243.93359375 1087.33203125 C-254.84786412 1115.56487516 -260.6649909 1148.62775459 -261.1484375 1178.92578125 C-261.56952744 1198.83965593 -268.51363809 1217.98268664 -274.95263672 1236.63574219 C-275.18878189 1237.32055161 -275.42492706 1238.00536102 -275.66822815 1238.71092224 C-276.31443623 1240.5768321 -276.96717892 1242.44047521 -277.62036133 1244.30395508 C-278.50243002 1247.03604294 -279.16290048 1249.66312712 -279.6484375 1252.48828125 C-248.17515235 1270.07760657 -220.26992643 1270.75102397 -185.6484375 1261.48828125 C-184.74851074 1261.25866699 -183.84858398 1261.02905273 -182.92138672 1260.79248047 C-174.40112522 1258.89075001 -174.40112522 1258.89075001 -168.32080078 1253.21411133 C-167.00409773 1250.33724034 -165.82116753 1247.42653682 -164.6484375 1244.48828125 C-163.8264198 1242.68110347 -162.9906167 1240.88012777 -162.140625 1239.0859375 C-161.71716797 1238.18633301 -161.29371094 1237.28672852 -160.85742188 1236.35986328 C-156.81136466 1227.83974353 -152.66351822 1219.39586376 -148.1484375 1211.11328125 C-147.75897949 1210.39148682 -147.36952148 1209.66969238 -146.96826172 1208.92602539 C-139.23834209 1194.98538777 -129.94986858 1181.84706907 -121.11401367 1168.59399414 C-119.58064929 1166.29284513 -118.05102061 1163.98924162 -116.52148438 1161.68554688 C-111.10528349 1153.54643295 -105.59177328 1145.50112784 -99.85571289 1137.58374023 C-94.41464807 1129.95325015 -89.48286414 1122.12040652 -85.06958008 1113.85668945 C-80.57018765 1105.44648532 -75.50518687 1098.21438481 -69.41796875 1090.88671875 C-65.68079853 1086.36965043 -62.49494096 1081.61358663 -59.6484375 1076.48828125 C-59.05289063 1075.41900391 -59.05289063 1075.41900391 -58.4453125 1074.328125 C-56.17997825 1069.53542156 -55.35329648 1064.8066145 -54.71784973 1059.59545898 C-53.24263759 1047.52140216 -50.41343911 1036.13067353 -46.9609375 1024.48828125 C-46.42021185 1022.63282286 -45.87952208 1020.77735401 -45.33886719 1018.921875 C-40.49959532 1002.4588779 -34.68544766 986.72549778 -27.56176758 971.11962891 C-25.29470015 966.11064648 -23.38727719 961.05504415 -21.5859375 955.86328125 C-17.86808255 945.22843372 -12.91031007 935.15726479 -7.97827148 925.04443359 C-1.5753426 911.82371216 1.87888525 898.80812058 4.24523926 884.35461426 C4.96945907 879.93858314 5.72322167 875.5276596 6.48046875 871.1171875 C6.71012833 869.77846085 6.71012833 869.77846085 6.94442749 868.41268921 C8.69560532 858.32504749 10.78249568 848.31040686 12.9543457 838.3059082 C14.46905761 831.21723707 15.74004474 824.16486248 16.76953125 816.9921875 C18.57347112 804.44327455 21.06797798 792.037058 23.52026367 779.60180664 C26.70333244 763.41830632 29.49705147 747.58392211 29.9765625 731.05078125 C30.01523437 729.92607422 30.05390625 728.80136719 30.09375 727.64257812 C30.18627613 724.92462303 30.27218946 722.20664656 30.3515625 719.48828125 C32.0015625 720.14828125 33.6515625 720.80828125 35.3515625 721.48828125 C35.40702252 724.46771664 35.44591143 727.44605961 35.4765625 730.42578125 C35.49332031 731.23724609 35.51007813 732.04871094 35.52734375 732.88476562 C35.63786948 747.41889857 32.90898907 761.80426271 30.20703125 776.03125 C29.89827277 777.67994891 29.58994964 779.3287294 29.2820282 780.97758484 C28.31385797 786.14946684 27.33367385 791.31903124 26.3515625 796.48828125 C26.0317447 798.17433411 25.7119407 799.86038959 25.39215088 801.54644775 C22.83610765 815.01300096 20.26360141 828.476445 17.67749023 841.93725586 C16.70686481 846.99128156 15.74024063 852.0460587 14.77734375 857.1015625 C14.5465767 858.3122641 14.5465767 858.3122641 14.31114769 859.54742432 C12.21020508 870.5995365 10.2500658 881.65731189 8.61543274 892.78987122 C6.32514516 908.07893085 0.28007237 920.98568101 -6.54980469 934.75634766 C-11.21960601 944.28512356 -15.05121069 953.99587619 -18.69628906 963.95507812 C-21.03369967 970.31623486 -23.5024486 976.52082652 -26.36206055 982.66430664 C-31.65521237 994.06680944 -35.42721725 1005.77974759 -39.0234375 1017.80078125 C-39.27664764 1018.64250885 -39.52985779 1019.48423645 -39.79074097 1020.35147095 C-43.91608546 1034.14519716 -47.60432993 1048.0424225 -49.71115112 1062.3013916 C-51.73141213 1075.64028679 -57.53427931 1084.73721229 -65.84765625 1094.99609375 C-72.1342258 1102.77333742 -77.3904962 1110.78063802 -81.8984375 1119.67578125 C-85.43763864 1126.61844823 -89.558187 1132.796637 -94.20678711 1139.0402832 C-99.36253748 1145.99288035 -104.1815627 1153.1501458 -108.9609375 1160.36328125 C-109.33507782 1160.92746765 -109.70921814 1161.49165405 -110.09469604 1162.07293701 C-111.90994053 1164.81119817 -113.7224605 1167.55124022 -115.53320312 1170.29248047 C-117.62122312 1173.44716442 -119.72136622 1176.59347027 -121.82421875 1179.73828125 C-133.69760688 1197.54178255 -144.33614064 1215.75131147 -153.9609375 1234.86328125 C-154.45271484 1235.83740967 -154.94449219 1236.81153809 -155.45117188 1237.81518555 C-158.41263038 1243.76479598 -160.99113593 1249.73157538 -163.26635742 1255.97900391 C-166.35478971 1261.58630069 -173.86574487 1263.51104081 -179.6484375 1265.48828125 C-184.53441982 1266.85454668 -189.45738433 1268.02687375 -194.3984375 1269.17578125 C-195.6993745 1269.48567503 -197.0001569 1269.79621853 -198.30078125 1270.10742188 C-208.40607701 1272.50023025 -217.73484101 1273.72566864 -228.11376953 1273.78344727 C-229.5429071 1273.79491785 -230.97200351 1273.81529129 -232.40087891 1273.8449707 C-246.799027 1274.14305866 -257.70097069 1270.24742463 -270.5859375 1263.98828125 C-271.58689453 1263.51519531 -272.58785156 1263.04210938 -273.61914062 1262.5546875 C-284.14298095 1257.49258709 -284.14298095 1257.49258709 -286.6484375 1254.48828125 C-286.60844476 1249.57488704 -285.05585365 1245.68266973 -283.0859375 1241.23828125 C-274.30394997 1220.35993721 -267.76058533 1197.22516819 -267.07373047 1174.51855469 C-266.68397162 1163.86242529 -264.8765401 1153.40737292 -263.18359375 1142.89453125 C-262.66869236 1139.61720269 -262.19834664 1136.3367418 -261.7421875 1133.05078125 C-256.5635274 1096.62451669 -241.87992531 1062.48821954 -225.82958984 1029.6015625 C-216.24498152 1009.94314323 -208.87466501 989.43598496 -202.6484375 968.48828125 C-202.32697754 967.41779541 -202.32697754 967.41779541 -201.99902344 966.32568359 C-200.43647439 961.07496702 -199.02121315 955.79148235 -197.6484375 950.48828125 C-197.3479248 949.33489258 -197.04741211 948.18150391 -196.73779297 946.99316406 C-192.83165336 931.86092806 -189.28167996 916.73247205 -186.7734375 901.30078125 C-186.58265625 900.13522705 -186.391875 898.96967285 -186.1953125 897.76879883 C-183.19714484 878.24133096 -182.18937022 858.49875459 -181.21582031 838.78686523 C-181.02486446 834.95442011 -180.82140396 831.12277416 -180.6171875 827.29101562 C-179.73048685 810.00118235 -179.47511866 792.79701608 -179.6484375 775.48828125 C-200.6382602 766.15574809 -222.10569902 757.25648353 -244.6484375 752.48828125 C-271.13650857 746.84757237 -271.13650857 746.84757237 -281.359375 739.171875 C-282.11476563 738.61628906 -282.87015625 738.06070313 -283.6484375 737.48828125 C-284.34195313 736.92238281 -285.03546875 736.35648438 -285.75 735.7734375 C-293.77910615 732.21336213 -303.48183935 734.95880798 -311.7109375 736.73828125 C-312.80003418 736.96354492 -313.88913086 737.18880859 -315.01123047 737.42089844 C-319.93689396 738.44789312 -324.84861957 739.52181819 -329.74609375 740.67578125 C-339.09237465 742.87769163 -348.00164519 744.24013225 -357.6484375 744.48828125 C-358.88207031 744.53984375 -360.11570312 744.59140625 -361.38671875 744.64453125 C-372.28047878 744.91602683 -388.41588947 744.47383824 -397.234375 737.17578125 C-400.6453628 733.55749584 -400.6484375 731.21559505 -400.6484375 726.48828125 C-402.87721475 723.84254624 -402.87721475 723.84254624 -405.6484375 721.48828125 C-408.83930091 718.29741784 -409.81925643 716.32962273 -410.0859375 711.92578125 C-410.30189259 708.15616271 -410.30189259 708.15616271 -412.8984375 705.36328125 C-414.2596875 704.43515625 -414.2596875 704.43515625 -415.6484375 703.48828125 C-418.87041206 700.11786884 -420.96381423 697.04025262 -421.2109375 692.30078125 C-420.6484375 688.48828125 -420.6484375 688.48828125 -419.1484375 686.17578125 C-411.42498243 680.96244908 -402.61967318 680.30706186 -393.5234375 680.23828125 C-392.48896484 680.20734375 -392.48896484 680.20734375 -391.43359375 680.17578125 C-387.02042333 680.14202851 -384.03245429 680.55893083 -380.6484375 683.48828125 C-380.08984375 685.609375 -380.08984375 685.609375 -380.2109375 687.92578125 C-380.23285156 688.68761719 -380.25476563 689.44945312 -380.27734375 690.234375 C-380.67427274 692.64519636 -381.44864184 694.37297886 -382.6484375 696.48828125 C-381.3903125 696.57078125 -380.1321875 696.65328125 -378.8359375 696.73828125 C-376.00391519 697.10985865 -374.87290067 697.31143148 -372.5859375 699.11328125 C-371.23034206 702.54745636 -371.82379636 704.93598095 -372.6484375 708.48828125 C-373.7109375 710.92578125 -373.7109375 710.92578125 -374.6484375 712.48828125 C-373.9884375 713.10703125 -373.3284375 713.72578125 -372.6484375 714.36328125 C-370.14457679 718.27556361 -370.42348436 720.669751 -370.80078125 725.18359375 C-370.85838655 727.52597793 -370.85838655 727.52597793 -369.39672852 729.13769531 C-367.75672599 730.64958648 -367.75672599 730.64958648 -365.703125 730.68994141 C-359.89222847 729.92322589 -354.95871214 728.32140234 -349.6484375 725.86328125 C-348.86533203 725.50717773 -348.08222656 725.15107422 -347.27539062 724.78417969 C-340.96374622 721.82280448 -334.46270217 718.57669896 -330.41357422 712.69433594 C-329.3913208 710.4694954 -329.3913208 710.4694954 -330.42431641 708.1484375 C-330.90304199 707.29121094 -331.38176758 706.43398437 -331.875 705.55078125 C-332.40609375 704.58374268 -332.9371875 703.6167041 -333.484375 702.62036133 C-334.07476562 701.5867749 -334.66515625 700.55318848 -335.2734375 699.48828125 C-335.8715625 698.41537842 -336.4696875 697.34247559 -337.0859375 696.23706055 C-342.72373709 686.19026974 -348.60739951 676.29682771 -354.6484375 666.48828125 C-355.18500977 665.6154248 -355.72158203 664.74256836 -356.27441406 663.84326172 C-359.54318698 658.5312658 -362.82998137 653.23075049 -366.12744141 647.93652344 C-367.5620673 645.62730538 -368.98763668 643.31278323 -370.41015625 640.99609375 C-377.37850901 627.4835743 -377.37850901 627.4835743 -387.51074219 617.83813477 C-398.32464959 616.06833928 -411.93529175 622.02579534 -421.7109375 625.98828125 C-422.65630371 626.36774902 -423.60166992 626.7472168 -424.57568359 627.13818359 C-430.54487521 629.62679285 -430.54487521 629.62679285 -434.6484375 634.48828125 C-435.58449652 640.88468457 -433.28758711 644.9102939 -430.1484375 650.23828125 C-429.69428467 651.03032959 -429.24013184 651.82237793 -428.7722168 652.63842773 C-424.56128448 659.870134 -419.78406124 666.5224638 -414.59765625 673.08203125 C-413.95441406 673.89671875 -413.31117188 674.71140625 -412.6484375 675.55078125 C-412.0709375 676.26363281 -411.4934375 676.97648437 -410.8984375 677.7109375 C-409.6484375 679.48828125 -409.6484375 679.48828125 -409.6484375 681.48828125 C-415.00835178 680.86928852 -419.89431573 679.64131313 -425.0234375 677.98828125 C-425.74660156 677.76269531 -426.46976562 677.53710938 -427.21484375 677.3046875 C-432.51143973 675.62527902 -432.51143973 675.62527902 -433.6484375 674.48828125 C-433.9609375 671.61328125 -433.9609375 671.61328125 -433.6484375 668.48828125 C-431.7734375 666.61328125 -431.7734375 666.61328125 -429.6484375 665.48828125 C-428.9884375 665.48828125 -428.3284375 665.48828125 -427.6484375 665.48828125 C-430.43065847 659.69198757 -433.53518005 654.14374715 -436.91796875 648.67724609 C-439.69486476 643.9991832 -441.04158888 639.68886572 -440.37109375 634.23046875 C-438.71060579 629.53394066 -436.75522427 627.12657957 -432.3671875 624.765625 C-431.47 624.34410156 -430.5728125 623.92257812 -429.6484375 623.48828125 C-428.483125 622.93269531 -427.3178125 622.37710938 -426.1171875 621.8046875 C-417.97265445 618.11307199 -409.728447 615.52008083 -401.0234375 613.48828125 C-400.09966309 613.26849609 -399.17588867 613.04871094 -398.22412109 612.82226562 C-393.09118423 611.70262446 -388.83968266 611.12499177 -383.6484375 612.48828125 C-381.61910013 614.51761862 -380.20434487 616.1544202 -378.6484375 618.48828125 C-378.05675781 619.34486328 -378.05675781 619.34486328 -377.453125 620.21875 C-376.49627484 621.6272602 -375.56922927 623.0559385 -374.6484375 624.48828125 C-372.18043703 623.3365477 -370.60060185 622.4404456 -368.6484375 620.48828125 C-364.60199259 620.59264442 -362.34389455 620.9092883 -359.19921875 623.52734375 C-358.46058594 624.38070312 -357.72195313 625.2340625 -356.9609375 626.11328125 C-350.27308039 633.18387717 -342.84373696 637.38961403 -333.76464844 640.69604492 C-324.71008607 644.01434886 -321.25349892 647.34269823 -316.9140625 655.9140625 C-316.26507875 657.18985102 -315.61396809 658.46455942 -314.9609375 659.73828125 C-314.63037354 660.38313477 -314.29980957 661.02798828 -313.95922852 661.69238281 C-308.94511436 671.11162844 -301.9057803 679.74114508 -291.6484375 683.48828125 C-286.95672703 684.74955178 -282.224467 685.72701826 -277.4609375 686.67578125 C-276.20345703 686.93552734 -274.94597656 687.19527344 -273.65039062 687.46289062 C-270.31851182 688.14912644 -266.9844717 688.82258919 -263.6484375 689.48828125 C-262.81344727 689.67527588 -261.97845703 689.86227051 -261.11816406 690.05493164 C-245.57071443 692.78295883 -227.96204352 690.55247779 -212.45469666 688.58258057 C-203.69412102 687.53888818 -195.08944417 687.30699962 -186.2734375 687.39453125 C-184.94010804 687.40208483 -183.60677433 687.40892359 -182.2734375 687.41503906 C-179.06499105 687.43247627 -175.85677344 687.45698119 -172.6484375 687.48828125 C-172.59245895 686.80162384 -172.53648041 686.11496643 -172.47880554 685.40750122 C-171.94277488 678.84906807 -171.39933309 672.29129272 -170.84811687 665.73411751 C-170.56516428 662.36520801 -170.28481303 658.99612936 -170.01098633 655.62646484 C-168.49937434 637.1083572 -166.62746881 619.1183042 -162.14086914 601.07006836 C-160.34923746 593.75527526 -159.26335199 586.3144319 -158.21899414 578.86083984 C-156.41306712 566.94864836 -151.7836278 559.92763244 -142.17285156 552.60107422 C-139.40937552 550.64825187 -136.60671375 548.77583609 -133.7734375 546.92578125 C-132.73550049 546.24032227 -131.69756348 545.55486328 -130.62817383 544.84863281 C-121.94747848 539.18570107 -113.03764605 533.97345423 -104.02539062 528.85986328 C-97.50379108 525.15690455 -91.08952852 521.34425075 -84.7734375 517.30078125 C-78.23543828 513.11928137 -71.66387547 509.00567848 -65.0234375 504.98828125 C-64.21793457 504.49561768 -63.41243164 504.0029541 -62.58251953 503.49536133 C-58.00472428 500.74002168 -53.42855446 498.39387961 -48.48291016 496.36523438 C-46.46275847 495.5245948 -46.46275847 495.5245948 -44.6484375 493.48828125 C-44.15859008 489.53039644 -44.27799923 485.53544955 -44.2734375 481.55078125 C-44.24894531 480.45958984 -44.22445313 479.36839844 -44.19921875 478.24414062 C-44.16395777 468.36519066 -46.04017458 459.41541258 -52.98828125 452.05859375 C-55.78043435 449.4175454 -58.65871745 446.90305514 -61.6484375 444.48828125 C-64.71992658 445.57233622 -66.86412001 446.65603431 -69.4609375 448.67578125 C-73.50180188 450.97352766 -76.30445242 450.61344148 -80.6484375 449.48828125 C-83.7732002 448.16084053 -86.66306652 446.52215216 -89.5859375 444.80078125 C-90.37500488 444.34743408 -91.16407227 443.89408691 -91.97705078 443.42700195 C-110.35163633 432.78538674 -110.35163633 432.78538674 -113.3984375 422.92578125 C-114.71475999 418.92479988 -114.71475999 418.92479988 -117.57421875 415.9921875 C-119.66550778 414.96634062 -119.66550778 414.96634062 -121.74609375 414.26953125 C-124.07890617 413.3114974 -125.16732708 412.54388299 -126.6484375 410.48828125 C-127.02734375 407.66796875 -127.02734375 407.66796875 -127.2109375 404.36328125 C-127.92878796 398.62047761 -129.33282919 396.14437479 -133.7109375 392.36328125 C-134.60941406 391.68007812 -135.50789063 390.996875 -136.43359375 390.29296875 C-138.6484375 388.48828125 -138.6484375 388.48828125 -139.6484375 385.48828125 C-139.74263087 383.69860721 -139.77834748 381.90542562 -139.7734375 380.11328125 C-139.77601563 379.17742187 -139.77859375 378.2415625 -139.78125 377.27734375 C-139.65285191 374.58098378 -139.25032459 372.11556616 -138.6484375 369.48828125 C-140.31479052 369.02880891 -141.98153943 368.5707723 -143.6484375 368.11328125 C-144.64746094 367.83871094 -145.64648438 367.56414062 -146.67578125 367.28125 C-149.1798813 366.61327062 -151.68587112 366.00705804 -154.2109375 365.42578125 C-157.6484375 364.48828125 -157.6484375 364.48828125 -159.6484375 362.48828125 C-160.17463503 355.97658684 -158.79066699 350.4416125 -157.1484375 344.17578125 C-155.34341909 336.7918416 -154.17418085 329.78823693 -154.2109375 322.17578125 C-154.21351563 321.43094482 -154.21609375 320.6861084 -154.21875 319.91870117 C-154.4777627 310.33199371 -157.28521504 302.267679 -161.2734375 293.61328125 C-161.93351807 292.16453613 -161.93351807 292.16453613 -162.60693359 290.68652344 C-165.58422577 284.32394376 -168.79857327 278.77072358 -173.25 273.31640625 C-174.6484375 271.48828125 -174.6484375 271.48828125 -174.6484375 269.48828125 C-176.2984375 269.15828125 -177.9484375 268.82828125 -179.6484375 268.48828125 C-179.17289204 265.51612213 -178.24189222 263.81494064 -176.6484375 261.17578125 C-174.57212321 257.59011673 -173.5715889 254.71495402 -173.6484375 250.48828125 C-175.060718 248.06405173 -176.62886047 246.50785828 -178.6484375 244.48828125 C-179.3084375 243.82828125 -179.9684375 243.16828125 -180.6484375 242.48828125 C-180.9784375 244.79828125 -181.3084375 247.10828125 -181.6484375 249.48828125 C-182.9684375 249.81828125 -184.2884375 250.14828125 -185.6484375 250.48828125 C-192.11047534 240.99253863 -193.28770443 232.95048601 -192.6484375 221.48828125 C-192.3184375 220.82828125 -191.9884375 220.16828125 -191.6484375 219.48828125 C-195.6084375 219.81828125 -199.5684375 220.14828125 -203.6484375 220.48828125 C-204.6484375 215.48828125 -204.6484375 215.48828125 -203.63208008 213.83837891 C-203.10767334 213.3644873 -202.5832666 212.8905957 -202.04296875 212.40234375 C-201.18541992 211.59410156 -201.18541992 211.59410156 -200.31054688 210.76953125 C-199.70017578 210.22296875 -199.08980469 209.67640625 -198.4609375 209.11328125 C-193.05632831 204.18606938 -188.36166366 199.80959266 -187.1171875 192.26953125 C-187.19318145 184.29016628 -188.40529841 177.51760356 -190.7734375 169.9609375 C-191.6866991 166.33643054 -191.80054292 163.21011064 -191.6484375 159.48828125 C-196.34111739 163.52920005 -198.4135049 167.7573647 -200.6484375 173.48828125 C-201.9684375 173.15828125 -203.2884375 172.82828125 -204.6484375 172.48828125 C-204.73701613 169.19679015 -204.7893479 165.9056132 -204.8359375 162.61328125 C-204.86107422 161.69546875 -204.88621094 160.77765625 -204.91210938 159.83203125 C-205.02432268 149.20917151 -202.15505718 139.96881926 -195.6484375 131.48828125 C-191.50347731 127.48396841 -187.28641102 124.89777463 -181.6484375 123.48828125 C-182.21111328 122.68390625 -182.21111328 122.68390625 -182.78515625 121.86328125 C-186.29116369 116.49387943 -188.63534299 111.20399818 -190.5234375 105.11328125 C-190.84574341 104.07880859 -190.84574341 104.07880859 -191.17456055 103.0234375 C-192.16832091 99.66739258 -192.6484375 97.02227518 -192.6484375 93.48828125 C-189.58174442 93.92638026 -186.79841668 94.43341599 -183.8828125 95.5 C-173.20721208 98.76198902 -163.25993714 96.51521621 -153.6484375 91.48828125 C-152.69324219 91.07707031 -151.73804688 90.66585937 -150.75390625 90.2421875 C-147.94062581 88.8858563 -145.85946329 87.69930704 -143.6484375 85.48828125 C-142.69712114 82.51214474 -142.3943995 79.75674519 -142.109375 76.6484375 C-140.80910471 67.73387254 -134.64893132 59.87510192 -127.6484375 54.48828125 C-120.67515805 50.09615598 -113.29024751 47.68083317 -105.45800781 45.38208008 C-97.54804423 42.9840498 -90.26406278 39.62152032 -85.6484375 32.48828125 C-84.3284375 32.81828125 -83.0084375 33.14828125 -81.6484375 33.48828125 C-81.6484375 35.79828125 -81.6484375 38.10828125 -81.6484375 40.48828125 C-81.14957031 39.9571875 -80.65070313 39.42609375 -80.13671875 38.87890625 C-71.90960857 30.78472962 -62.97006635 29.05034662 -52.00244141 27.09936523 C-33.2403884 23.75751092 -17.23314166 17.92546384 -4.9375 2.6484375 C-2.6484375 0.48828125 -2.6484375 0.48828125 0 0 Z " fill="#F1F1F1" transform="translate(818.6484375,742.51171875)"/>
<path d="M0 0 C2.3515625 0.48828125 2.3515625 0.48828125 4.6015625 3.23828125 C7.14581704 7.96332539 7.47228818 11.38151858 7.4140625 16.73828125 C7.40503906 17.8159375 7.39601563 18.89359375 7.38671875 20.00390625 C7.36931641 21.23367188 7.36931641 21.23367188 7.3515625 22.48828125 C8.16560547 22.07255859 8.16560547 22.07255859 8.99609375 21.6484375 C9.71152344 21.28621094 10.42695312 20.92398438 11.1640625 20.55078125 C12.22560547 20.01130859 12.22560547 20.01130859 13.30859375 19.4609375 C20.44794364 16.06189711 29.81877517 16.46826084 37.44140625 18.18359375 C47.18913381 21.87487908 55.90196215 28.47838457 64.3515625 34.48828125 C65.09212891 34.95733887 65.83269531 35.42639648 66.59570312 35.90966797 C67.17513672 36.43061035 67.75457031 36.95155273 68.3515625 37.48828125 C68.3515625 38.80828125 68.3515625 40.12828125 68.3515625 41.48828125 C65.7115625 41.48828125 63.0715625 41.48828125 60.3515625 41.48828125 C62.27260854 46.55285718 65.95435744 47.83592191 70.65625 50.03125 C86.02190955 56.08980287 102.02055608 56.26815613 118.3515625 56.48828125 C120.1762949 64.71131307 118.57463561 73.49094851 114.4375 80.83203125 C112.892956 83.18773864 111.20552163 85.36947082 109.3515625 87.48828125 C110.16947266 87.67390625 110.16947266 87.67390625 111.00390625 87.86328125 C120.73692838 90.5253044 126.60723394 96.50633697 131.6015625 105.11328125 C136.67774396 114.3064928 140.04721885 123.94325262 141.83203125 134.28515625 C142.35797368 136.51546853 143.10674778 138.12442113 144.2265625 140.11328125 C151.51996257 153.69315675 152.83044345 172.40353127 152.3515625 187.48828125 C151.0315625 187.81828125 149.7115625 188.14828125 148.3515625 188.48828125 C147.866875 187.89660156 147.3821875 187.30492187 146.8828125 186.6953125 C146.2125 185.90511719 145.5421875 185.11492187 144.8515625 184.30078125 C144.201875 183.52347656 143.5521875 182.74617187 142.8828125 181.9453125 C139.69280306 178.84883729 136.18061558 176.71230334 132.3515625 174.48828125 C132.54233663 178.89624932 132.7551817 183.30250425 132.98632812 187.70849609 C133.0616891 189.19942986 133.13157705 190.69065294 133.1953125 192.18212891 C133.83819523 207.05883708 135.35263073 224.22423787 145.51953125 235.97265625 C149.13538198 238.96402103 153.42077415 240.95504457 157.5859375 243.0703125 C160.3515625 244.48828125 160.3515625 244.48828125 161.3515625 245.48828125 C161.6640625 247.86328125 161.6640625 247.86328125 161.3515625 250.48828125 C155.47551719 256.29160323 143.75696122 256.67578125 135.9140625 256.67578125 C134.39265608 256.62927538 132.87128716 256.57358804 131.3515625 256.48828125 C131.38636719 257.52726562 131.42117188 258.56625 131.45703125 259.63671875 C131.6815879 269.13193125 131.73456809 277.55875882 126.1640625 285.67578125 C123.3515625 288.48828125 123.3515625 288.48828125 121.390625 290.01953125 C114.68858507 295.30143632 111.99645677 301.135202 110.97241211 309.63549805 C110.81400129 313.01348799 110.79839488 316.35705667 110.8515625 319.73828125 C110.86002197 320.95104736 110.86848145 322.16381348 110.87719727 323.41333008 C111.0854224 334.21209717 112.71681003 344.49331655 114.89013672 355.04443359 C115.60983867 358.85618835 116.04691027 362.62035483 116.3515625 366.48828125 C115.3515625 367.48828125 115.3515625 367.48828125 113.109375 367.81640625 C109.35862237 367.37014106 107.94359424 365.81406057 105.2265625 363.23828125 C104.37835937 362.449375 103.53015625 361.66046875 102.65625 360.84765625 C100.67373379 358.81809728 98.97819558 356.80596759 97.3515625 354.48828125 C96.00456569 392.78147634 136.46362057 450.49965493 158.3515625 480.48828125 C159.0940625 481.51179688 159.8365625 482.5353125 160.6015625 483.58984375 C164.65790991 489.0803997 168.88503867 494.4214396 173.1640625 499.73828125 C175.23209995 502.31723397 177.29439525 504.90064949 179.3515625 507.48828125 C179.85623047 508.1225 180.36089844 508.75671875 180.88085938 509.41015625 C189.13583515 519.86433407 195.96562497 530.8078802 202.3515625 542.48828125 C202.96 543.56851563 203.5684375 544.64875 204.1953125 545.76171875 C207.13662233 551.23915797 209.2771232 556.81255625 211.1015625 562.73828125 C211.30056152 563.36879395 211.49956055 563.99930664 211.70458984 564.64892578 C215.58725228 578.16325726 215.72964765 592.3549477 215.6640625 606.30078125 C215.66157501 607.15365723 215.65908752 608.0065332 215.65652466 608.88525391 C215.4042186 665.20258728 199.92510431 718.90218906 180.89404297 771.39187622 C171.90818413 796.20909432 165.92883804 820.12832191 161.86322021 846.21563721 C160.16038951 857.10721296 158.42683232 867.99401125 156.69790649 878.88146973 C156.21615759 881.91528354 155.73524299 884.94922788 155.25497437 887.98327637 C152.33303181 906.43403277 149.3079092 924.85610194 145.9765625 943.23828125 C128.98552174 1035.71826024 128.98552174 1035.71826024 144.3984375 1127.12109375 C145.4560532 1130.85742462 145.80482725 1133.62664331 145.3515625 1137.48828125 C143.65625 1140.09375 143.65625 1140.09375 141.2265625 1142.67578125 C136.53981997 1147.89778563 132.46326764 1153.40403342 128.4765625 1159.17578125 C127.58432983 1160.46101685 127.58432983 1160.46101685 126.67407227 1161.7722168 C124.34998337 1165.12727593 122.03499109 1168.48837804 119.73193359 1171.85791016 C111.78951747 1183.46874062 103.30912569 1193.53071806 93.3515625 1203.48828125 C92.17354582 1204.69961385 90.99654628 1205.91193607 89.8203125 1207.125 C76.60727833 1220.66977701 62.70910589 1231.02991273 46.3515625 1240.48828125 C45.39660889 1241.04128906 45.39660889 1241.04128906 44.42236328 1241.60546875 C19.63203738 1255.78279031 -6.27095262 1263.37085787 -34.27423096 1268.08734131 C-36.94755328 1268.5387939 -39.62003313 1268.99505691 -42.29248047 1269.45166016 C-48.63888853 1270.53477979 -54.9870706 1271.60717801 -61.3359375 1272.67578125 C-62.88649841 1272.93751129 -62.88649841 1272.93751129 -64.46838379 1273.20452881 C-127.98799286 1283.8953366 -127.98799286 1283.8953366 -156.6484375 1266.48828125 C-159.11328125 1264.37890625 -159.11328125 1264.37890625 -160.6484375 1262.48828125 C-160.3984375 1260.23828125 -160.3984375 1260.23828125 -159.6484375 1258.48828125 C-157.9984375 1258.48828125 -156.3484375 1258.48828125 -154.6484375 1258.48828125 C-154.6484375 1259.47828125 -154.6484375 1260.46828125 -154.6484375 1261.48828125 C-132.62309343 1272.33747232 -112.59460071 1274.63312929 -88.28125 1270.7734375 C-87.12564072 1270.59581879 -85.97003143 1270.41820007 -84.77940369 1270.23519897 C-81.06767743 1269.66152605 -77.35801049 1269.07570376 -73.6484375 1268.48828125 C-71.15421621 1268.09838407 -68.65999421 1267.7084915 -66.16577148 1267.31860352 C-59.79840638 1266.31712705 -53.43604523 1265.28714194 -47.07543945 1264.24365234 C-44.48746023 1263.8215055 -41.89857363 1263.40488611 -39.30883789 1262.99365234 C-20.05390519 1259.93363356 -1.23567039 1256.35897317 16.6640625 1248.36328125 C17.93237915 1247.8074939 17.93237915 1247.8074939 19.22631836 1247.24047852 C43.76699751 1236.27845199 64.84603637 1223.02230912 84.3515625 1204.48828125 C85.33334473 1203.56547363 85.33334473 1203.56547363 86.33496094 1202.62402344 C97.12410077 1192.42620664 106.07459051 1181.7939822 114.3515625 1169.48828125 C115.98994158 1167.06545119 117.62969337 1164.64357694 119.27197266 1162.22338867 C120.35806873 1160.62104978 121.43985306 1159.01577898 122.51708984 1157.4074707 C125.14389797 1153.52913194 127.84204973 1149.81387563 130.87109375 1146.23828125 C131.4343335 1145.57143311 131.99757324 1144.90458496 132.57788086 1144.2175293 C133.64269263 1142.97958509 134.72711167 1141.75812058 135.83422852 1140.55786133 C137.72804887 1138.36560531 139.26725348 1136.45909061 139.52368164 1133.50634766 C139.08575678 1129.16836401 137.67450267 1125.26865394 136.0390625 1121.23828125 C133.8851544 1115.42397442 132.37490503 1109.69265882 131.1640625 1103.61328125 C131.0096167 1102.84854492 130.8551709 1102.08380859 130.69604492 1101.29589844 C127.97509534 1087.01054406 126.94539778 1072.99770792 126.9765625 1058.48828125 C126.97644165 1057.61265533 126.9763208 1056.73702942 126.97619629 1055.83486938 C127.01477997 1035.89585399 128.88253006 1016.256235 131.3515625 996.48828125 C131.50641113 995.22306641 131.66125977 993.95785156 131.82080078 992.65429688 C133.65202503 978.01261459 136.19644862 963.50708138 138.84631348 948.99624634 C142.0290795 931.5621748 144.99379475 914.09284718 147.9140625 896.61328125 C148.03385342 895.89730648 148.15364433 895.18133171 148.27706528 894.44366074 C151.55422816 874.85184285 154.7391497 855.25288222 157.33813477 835.55712891 C159.92920289 816.34781113 165.14723729 798.18713423 171.5390625 779.92578125 C172.20780755 777.99025828 172.87576635 776.05446349 173.54296875 774.1184082 C177.23177998 763.44146276 181.01709745 752.80112408 184.8515625 742.17578125 C186.36465798 737.95115023 187.86567888 733.7225594 189.3515625 729.48828125 C189.6702832 728.58223145 189.98900391 727.67618164 190.31738281 726.74267578 C197.06586565 707.19076145 200.78402709 686.81729205 204.3515625 666.48828125 C204.49267456 665.68612183 204.63378662 664.8839624 204.7791748 664.05749512 C208.20453309 644.34211298 209.81906959 624.87741312 209.9140625 604.86328125 C209.92300537 603.93609283 209.93194824 603.00890442 209.94116211 602.05361938 C210.21910256 559.32455801 189.83303693 529.66459832 164 497.56640625 C138.69342699 465.57348117 117.31645824 427.84493624 102.83203125 389.6171875 C102.444104 388.60229248 102.444104 388.60229248 102.04833984 387.56689453 C101.3515625 385.48828125 101.3515625 385.48828125 100.87744141 383.17138672 C100.01892944 379.429335 99.27508029 377.19344196 96.15942383 374.81445312 C93.27519255 373.23040261 90.34811363 371.84742122 87.3515625 370.48828125 C85.27159447 369.43582662 83.19610918 368.37446996 81.125 367.3046875 C77.91818091 365.67180352 74.71011237 364.04254625 71.4921875 362.43164062 C54.7737442 353.87730201 46.13290506 344.27946171 40.37133789 326.46289062 C39.94805878 325.12557865 39.53666527 323.78443468 39.13842773 322.43945312 C38.01547202 318.81019735 37.62877381 317.67308879 34.3515625 315.48828125 C26.21607538 314.83943872 18.58190597 318.81973664 12.4765625 323.86328125 C10.3515625 325.48828125 10.3515625 325.48828125 8.1015625 325.36328125 C6.3515625 324.48828125 6.3515625 324.48828125 5.3515625 322.48828125 C5.22863459 320.95025294 5.17600435 319.40616807 5.1640625 317.86328125 C5.14988281 317.04601563 5.13570312 316.22875 5.12109375 315.38671875 C5.42289979 311.59112413 6.36007756 308.16422147 7.3515625 304.48828125 C6.80741699 304.75044434 6.26327148 305.01260742 5.70263672 305.28271484 C3.21236774 306.479929 0.71950319 307.67164098 -1.7734375 308.86328125 C-2.629375 309.27578125 -3.4853125 309.68828125 -4.3671875 310.11328125 C-16.25044545 315.7806812 -16.25044545 315.7806812 -22.3984375 315.73828125 C-23.15640625 315.7434375 -23.914375 315.74859375 -24.6953125 315.75390625 C-26.6484375 315.48828125 -26.6484375 315.48828125 -28.6484375 313.48828125 C-28.53864892 310.41420098 -27.43978637 309.2506508 -25.3984375 306.92578125 C-19.03175607 299.55967889 -16.85163937 291.03876891 -16.6484375 281.48828125 C-17.21691406 281.98199219 -17.78539062 282.47570313 -18.37109375 282.984375 C-23.1649161 286.96188703 -26.34927786 289.35425658 -32.6484375 289.48828125 C-34.2109375 287.86328125 -34.2109375 287.86328125 -35.6484375 285.48828125 C-35.51164815 282.13694209 -35.25114161 280.21152619 -33.0859375 277.61328125 C-32.6115625 277.24203125 -32.1371875 276.87078125 -31.6484375 276.48828125 C-31.3184375 279.12828125 -30.9884375 281.76828125 -30.6484375 284.48828125 C-24.66344529 280.75057763 -24.66344529 280.75057763 -19.3984375 276.11328125 C-17.6484375 274.48828125 -17.6484375 274.48828125 -14.8984375 274.23828125 C-14.1559375 274.32078125 -13.4134375 274.40328125 -12.6484375 274.48828125 C-9.0718082 280.91190748 -10.35459642 287.14587611 -12.2734375 293.92578125 C-14.26178429 300.00525884 -17.07127561 305.20600553 -20.6484375 310.48828125 C-18.41730598 309.61804738 -16.18831394 308.74304903 -13.9609375 307.86328125 C-13.28627441 307.59765381 -12.61161133 307.33202637 -11.91650391 307.05834961 C-6.27916741 304.80882918 -0.86692092 302.24041214 4.546875 299.4921875 C7.67004666 298.37428344 9.22448319 298.52037575 12.3515625 299.48828125 C12.46407983 305.56421687 12.04416608 311.45273577 11.3515625 317.48828125 C12.1559375 316.89015625 12.9603125 316.29203125 13.7890625 315.67578125 C20.97638496 310.95700179 28.82641019 309.34615558 37.3515625 310.48828125 C40.77935579 312.01984846 41.87541616 313.42142704 43.390625 316.81640625 C44.46398617 319.68416511 45.41973886 322.57159749 46.3515625 325.48828125 C51.49716158 340.92507849 58.08326903 349.12119089 72.74609375 356.62695312 C73.85339844 357.17931641 74.96070313 357.73167969 76.1015625 358.30078125 C77.22433594 358.87248047 78.34710937 359.44417969 79.50390625 360.03320312 C82.44757752 361.52965728 85.39722038 363.01303574 88.3515625 364.48828125 C89.12661133 364.87588623 89.90166016 365.26349121 90.70019531 365.6628418 C91.24514648 365.93523682 91.79009766 366.20763184 92.3515625 366.48828125 C91.990625 365.42351562 91.6296875 364.35875 91.2578125 363.26171875 C88.22868909 353.9401769 86.01902728 345.39112192 87.3515625 335.48828125 C88.0115625 334.49828125 88.6715625 333.50828125 89.3515625 332.48828125 C91.9765625 332.30078125 91.9765625 332.30078125 94.3515625 332.48828125 C94.78726562 333.69484375 95.22296875 334.90140625 95.671875 336.14453125 C100.45053132 350.07794545 100.45053132 350.07794545 110.3515625 360.48828125 C110.23562744 359.91907959 110.11969238 359.34987793 110.00024414 358.76342773 C109.4694354 356.15129698 108.94172831 353.53854863 108.4140625 350.92578125 C108.23166016 350.03052734 108.04925781 349.13527344 107.86132812 348.21289062 C105.96985162 338.82428907 105.11790538 329.88281958 105.0390625 320.30078125 C105.01005859 319.14513672 104.98105469 317.98949219 104.95117188 316.79882812 C104.87108023 305.82627329 106.7898565 296.25502122 114.546875 288.1484375 C116.17395842 286.65166163 117.83786136 285.31763808 119.6015625 283.98828125 C124.1970866 279.81053207 125.45254873 274.68340676 125.7578125 268.65625 C125.82516674 266.14235199 125.85205292 263.6298572 125.87890625 261.11523438 C125.91177734 259.89803711 125.91177734 259.89803711 125.9453125 258.65625 C125.95594727 257.56219849 125.95594727 257.56219849 125.96679688 256.44604492 C126.4655604 253.90823738 127.29744573 253.02664576 129.3515625 251.48828125 C131.95467457 251.15777376 134.36827619 250.98056963 136.9765625 250.92578125 C143.00162024 250.68741388 148.50058267 250.05550799 154.3515625 248.48828125 C152.35250023 246.94149551 150.37200049 245.50054404 148.203125 244.19921875 C138.03210594 238.09660732 133.60733709 228.65936291 130.3515625 217.48828125 C128.23699442 208.40174167 128.03915483 199.44045792 128.09082031 190.16650391 C128.10170792 187.83210241 128.09077747 185.49844321 128.078125 183.1640625 C128.07944392 181.67577956 128.08200075 180.18749707 128.0859375 178.69921875 C128.08188904 178.00347748 128.07784058 177.30773621 128.07366943 176.59091187 C128.12153071 171.71831304 128.12153071 171.71831304 130.3515625 169.48828125 C134.27670637 169.81044549 136.84244107 171.20605601 140.0390625 173.42578125 C140.80605469 173.95042969 141.57304688 174.47507812 142.36328125 175.015625 C144.3515625 176.48828125 144.3515625 176.48828125 146.3515625 178.48828125 C145.88260486 163.90369873 143.86663244 149.21788951 136.3515625 136.48828125 C134.67354461 133.54742516 134.19350748 131.60678673 134.1640625 128.23828125 C133.32436934 118.13197427 127.66250466 105.56570438 120.3515625 98.48828125 C116.48065668 95.43357895 112.58886026 93.50194564 107.9140625 91.98828125 C106.7384375 91.49328125 105.5628125 90.99828125 104.3515625 90.48828125 C103.421875 88.140625 103.421875 88.140625 103.3515625 85.48828125 C104.71484375 83.4609375 104.71484375 83.4609375 106.6640625 81.55078125 C112.16780613 75.68667346 112.92083315 69.18986691 114.3515625 61.48828125 C113.29582031 61.5346875 112.24007813 61.58109375 111.15234375 61.62890625 C94.57617774 62.12184954 73.18114756 60.83453555 59.7265625 50.11328125 C57.28072018 47.7678842 56.3723747 46.54414557 55.1640625 43.30078125 C55.38288028 40.01851462 56.31945715 38.97907704 58.3515625 36.48828125 C41.22598742 25.00172536 41.22598742 25.00172536 21.3515625 22.48828125 C16.52678002 23.90219031 12.12870899 25.8021248 8.0390625 28.73828125 C5.13228408 30.6310672 3.7427941 30.88724967 0.3515625 30.48828125 C0.4959375 29.70453125 0.6403125 28.92078125 0.7890625 28.11328125 C2.00422719 20.2822199 2.76366597 14.15025699 0.3515625 6.48828125 C-0.6384375 7.33390625 -1.6284375 8.17953125 -2.6484375 9.05078125 C-3.62296875 9.87642578 -3.62296875 9.87642578 -4.6171875 10.71875 C-5.89710136 11.83375188 -7.15179784 12.97905758 -8.3671875 14.1640625 C-19.98920482 25.25085534 -35.16812789 30.36159011 -50.78979492 32.51977539 C-60.34502668 33.84133354 -70.13388492 35.32531896 -76.82421875 42.9765625 C-78.22038081 44.89890126 -79.60234822 46.81035843 -80.8984375 48.80078125 C-81.4759375 49.68765625 -82.0534375 50.57453125 -82.6484375 51.48828125 C-84.5859375 50.92578125 -84.5859375 50.92578125 -86.6484375 49.48828125 C-87.3984375 45.86328125 -87.3984375 45.86328125 -87.6484375 42.48828125 C-88.19628906 42.86339844 -88.74414062 43.23851562 -89.30859375 43.625 C-94.38217127 46.90013866 -99.40026734 49.27905159 -105.1484375 51.11328125 C-105.79312988 51.31928955 -106.43782227 51.52529785 -107.10205078 51.73754883 C-108.95018846 52.32320646 -110.7992929 52.90581067 -112.6484375 53.48828125 C-125.84372613 57.82159272 -132.16818273 65.28162685 -138.6484375 77.48828125 C-139.41416242 79.28564199 -140.148141 81.09718172 -140.8359375 82.92578125 C-144.28445126 92.04813174 -149.99527391 95.52954649 -158.6484375 99.48828125 C-167.65698669 103.17171561 -176.15695308 103.20895971 -185.6484375 101.48828125 C-184.91266462 103.74384729 -184.16068236 105.99166482 -183.3984375 108.23828125 C-183.19347656 108.8725 -182.98851562 109.50671875 -182.77734375 110.16015625 C-181.39837148 114.17171194 -179.97726677 116.83037881 -176.6484375 119.48828125 C-175.1634375 119.98328125 -175.1634375 119.98328125 -173.6484375 120.48828125 C-173.6484375 122.13828125 -173.6484375 123.78828125 -173.6484375 125.48828125 C-174.26589844 125.69582031 -174.88335938 125.90335938 -175.51953125 126.1171875 C-184.55695319 129.40477326 -192.27344119 133.97147823 -196.71875 142.80078125 C-198.583111 148.19019457 -199.10969645 153.83552065 -199.6484375 159.48828125 C-199.22433594 159.06675781 -198.80023437 158.64523437 -198.36328125 158.2109375 C-194.12897955 154.25582053 -191.45832578 152.72541955 -185.6484375 152.48828125 C-184.5234375 156.23828125 -184.5234375 156.23828125 -185.6484375 158.48828125 C-186.13234616 164.29518514 -185.41718589 168.6195363 -183.6484375 174.17578125 C-181.17834947 182.3358935 -179.54965813 191.62276454 -183.0859375 199.73828125 C-186.15710826 204.87551234 -190.52618493 209.18986404 -194.6484375 213.48828125 C-191.0184375 213.15828125 -187.3884375 212.82828125 -183.6484375 212.48828125 C-184.6484375 217.48828125 -184.6484375 217.48828125 -185.6953125 219.359375 C-187.07675126 222.44496568 -186.91257502 225.18958695 -186.8984375 228.55078125 C-186.90359375 229.77925781 -186.90875 231.00773438 -186.9140625 232.2734375 C-186.89718014 235.63982792 -186.89718014 235.63982792 -184.6484375 238.48828125 C-184.2565625 237.97265625 -183.8646875 237.45703125 -183.4609375 236.92578125 C-181.6484375 235.48828125 -181.6484375 235.48828125 -179.0859375 235.61328125 C-176.6484375 236.48828125 -176.6484375 236.48828125 -174.6484375 239.48828125 C-174.26343859 241.14377656 -173.92050615 242.81052455 -173.6484375 244.48828125 C-173.3184375 242.17828125 -172.9884375 239.86828125 -172.6484375 237.48828125 C-171.3284375 237.48828125 -170.0084375 237.48828125 -168.6484375 237.48828125 C-167.6584375 243.92328125 -167.6584375 243.92328125 -166.6484375 250.48828125 C-161.38888934 240.65854317 -157.23791407 231.39134048 -154.6484375 220.48828125 C-153.3284375 220.15828125 -152.0084375 219.82828125 -150.6484375 219.48828125 C-148.0084375 225.75828125 -145.3684375 232.02828125 -142.6484375 238.48828125 C-141.9884375 238.48828125 -141.3284375 238.48828125 -140.6484375 238.48828125 C-140.44089844 237.85921875 -140.23335937 237.23015625 -140.01953125 236.58203125 C-137.65100376 230.00168711 -134.56828124 225.43576456 -129.6484375 220.48828125 C-128.3284375 220.81828125 -127.0084375 221.14828125 -125.6484375 221.48828125 C-125.62265625 222.75800781 -125.596875 224.02773438 -125.5703125 225.3359375 C-125.19037816 238.1947713 -123.63722571 249.5196638 -118.6484375 261.48828125 C-118.32230469 260.46347656 -117.99617187 259.43867187 -117.66015625 258.3828125 C-117.21907503 257.02203002 -116.77765057 255.66135876 -116.3359375 254.30078125 C-116.12259766 253.62724609 -115.90925781 252.95371094 -115.68945312 252.25976562 C-114.40663616 248.33472863 -112.94745617 244.96040622 -110.6484375 241.48828125 C-108.9984375 241.81828125 -107.3484375 242.14828125 -105.6484375 242.48828125 C-105.44347656 243.18695312 -105.23851562 243.885625 -105.02734375 244.60546875 C-104.75792969 245.51554688 -104.48851562 246.425625 -104.2109375 247.36328125 C-103.94410156 248.26820313 -103.67726563 249.173125 -103.40234375 250.10546875 C-102.72229924 252.47103506 -102.72229924 252.47103506 -101.6484375 254.48828125 C-101.69484375 253.49570312 -101.74125 252.503125 -101.7890625 251.48046875 C-102.11343055 241.28496258 -101.31304416 231.81749456 -96.6484375 222.48828125 C-91.7734375 223.36328125 -91.7734375 223.36328125 -90.6484375 224.48828125 C-90.57367187 223.65425781 -90.49890625 222.82023438 -90.421875 221.9609375 C-89.37784237 213.02524644 -87.53658257 206.4338318 -80.359375 200.640625 C-73.51726593 195.92692446 -67.95080286 194.55126889 -59.6484375 195.48828125 C-49.40809645 198.70152609 -42.07398049 206.44660649 -36.99584961 215.6730957 C-32.65612317 224.74020669 -32.18598084 234.22230457 -32.3359375 244.11328125 C-32.3464917 245.33442627 -32.3570459 246.55557129 -32.36791992 247.8137207 C-32.8580919 281.44484165 -32.8580919 281.44484165 -42.6171875 291.82421875 C-47.13662071 295.5266775 -52.83911294 297.05047395 -58.6484375 296.48828125 C-53.9181112 292.67350198 -53.9181112 292.67350198 -51.453125 290.98046875 C-44.6051141 286.1213191 -41.70365795 281.80620084 -40.06933594 273.56982422 C-38.71312194 264.66419587 -38.30678725 255.96940175 -38.33276367 246.97290039 C-38.33595861 244.66050463 -38.31222919 242.34935152 -38.28710938 240.03710938 C-38.22684064 226.53817958 -40.65846567 217.88035878 -49.6484375 207.48828125 C-55.29436623 202.41253542 -60.34933771 201.04817228 -67.796875 201.15625 C-73.29374068 201.796296 -76.70035276 204.3142006 -80.33203125 208.3671875 C-84.82051352 214.44510739 -86.74742061 221.2532346 -88.6484375 228.48828125 C-90.2984375 228.48828125 -91.9484375 228.48828125 -93.6484375 228.48828125 C-95.90904905 237.42980731 -97.08623593 246.97359985 -94.5859375 255.98828125 C-93.66770549 259.41634742 -93.6061337 261.1529091 -94.6484375 264.48828125 C-96.4296875 265.17578125 -96.4296875 265.17578125 -98.6484375 265.48828125 C-103.7317427 262.09941112 -106.92711101 256.82208117 -109.6484375 251.48828125 C-111.40467065 256.8640681 -112.04160624 261.7893838 -112.2734375 267.42578125 C-112.31210937 268.20501953 -112.35078125 268.98425781 -112.390625 269.78710938 C-112.48387877 271.68715504 -112.56719712 273.58768403 -112.6484375 275.48828125 C-113.9684375 275.81828125 -115.2884375 276.14828125 -116.6484375 276.48828125 C-120.27374383 271.08107581 -123.03985301 265.69966534 -125.3359375 259.61328125 C-125.78864014 258.42702148 -125.78864014 258.42702148 -126.25048828 257.21679688 C-129.54228475 248.38789041 -130.89111527 239.85516147 -131.6484375 230.48828125 C-134.35377156 237.22015902 -136.17276625 243.23429467 -136.6484375 250.48828125 C-137.9684375 250.81828125 -139.2884375 251.14828125 -140.6484375 251.48828125 C-142.13686263 249.09778029 -143.61421845 246.7015369 -145.0859375 244.30078125 C-145.50681641 243.62724609 -145.92769531 242.95371094 -146.36132812 242.25976562 C-148.53780038 238.69035113 -150.1951632 235.73257698 -150.6484375 231.48828125 C-151.3084375 231.48828125 -151.9684375 231.48828125 -152.6484375 231.48828125 C-152.72835937 232.30683594 -152.80828125 233.12539063 -152.890625 233.96875 C-153.8395261 238.37575975 -155.63690275 241.85971121 -157.7734375 245.80078125 C-158.17288574 246.55407715 -158.57233398 247.30737305 -158.98388672 248.08349609 C-161.67044469 253.03219361 -164.60073175 257.36332374 -168.53125 261.43359375 C-170.31140175 264.70757913 -169.55695925 266.96107916 -168.6484375 270.48828125 C-166.91884171 273.35851732 -166.91884171 273.35851732 -164.6484375 276.11328125 C-160.4544174 281.75019427 -157.48641577 287.66955349 -154.7109375 294.11328125 C-154.14536133 295.40032959 -154.14536133 295.40032959 -153.56835938 296.71337891 C-145.903622 315.04103646 -148.35909608 332.74471244 -152.6484375 351.48828125 C-153.02712344 353.18725924 -153.40477078 354.88646915 -153.78125 356.5859375 C-154.21050781 358.51759766 -154.21050781 358.51759766 -154.6484375 360.48828125 C-153.3696875 360.59140625 -152.0909375 360.69453125 -150.7734375 360.80078125 C-144.98505382 361.44291573 -137.88781496 362.24890379 -133.6484375 366.48828125 C-133.56420898 368.33251953 -133.56420898 368.33251953 -133.76953125 370.55859375 C-134.73491776 379.89320001 -134.73491776 379.89320001 -131.72265625 388.3828125 C-129.34495944 390.45010867 -129.34495944 390.45010867 -126.8125 392.015625 C-124.32643121 393.70740828 -123.61201208 394.66279954 -122.6484375 397.48828125 C-122.36362944 399.56254375 -122.15969526 401.64899564 -122.0234375 403.73828125 C-121.94867187 404.8159375 -121.87390625 405.89359375 -121.796875 407.00390625 C-121.72339844 408.23367188 -121.72339844 408.23367188 -121.6484375 409.48828125 C-119.7921875 409.82859375 -119.7921875 409.82859375 -117.8984375 410.17578125 C-114.95246363 410.93955225 -113.69418275 411.44871779 -111.3359375 413.48828125 C-109.39699524 416.93528972 -108.35824205 420.27261563 -107.359375 424.0859375 C-106.64584673 426.49703576 -106.05785845 428.40108144 -104.6484375 430.48828125 C-102.31793706 431.63125013 -102.31793706 431.63125013 -99.6484375 432.48828125 C-97.90496013 433.37742793 -96.17616621 434.29579221 -94.4609375 435.23828125 C-93.50445313 435.76164062 -92.54796875 436.285 -91.5625 436.82421875 C-87.96529287 438.87838797 -84.48867501 441.10000854 -81.03515625 443.38671875 C-77.95978941 444.80611883 -76.00505575 444.93062629 -72.6484375 444.48828125 C-70.00937822 442.97559319 -70.00937822 442.97559319 -67.5859375 440.73828125 C-66.63203125 439.9184375 -65.678125 439.09859375 -64.6953125 438.25390625 C-62.60834427 436.38292438 -60.56594461 434.47094253 -58.5390625 432.53515625 C-51.06789709 425.41271405 -43.46793227 419.83095785 -34.6484375 414.48828125 C-31.71282386 412.56678869 -28.78216419 410.63816651 -25.85546875 408.703125 C-23.6484375 407.48828125 -23.6484375 407.48828125 -20.6484375 407.48828125 C-27.18487306 414.4419361 -33.47632142 420.31394971 -41.61328125 425.40625 C-46.206108 428.55679911 -50.13244017 432.3307254 -54.15234375 436.16796875 C-56.6484375 438.48828125 -56.6484375 438.48828125 -59.6484375 440.48828125 C-59.9371875 441.14828125 -60.2259375 441.80828125 -60.5234375 442.48828125 C-62.07472864 445.24613217 -63.70844908 445.41919455 -66.6484375 446.48828125 C-67.5765625 447.21015625 -68.5046875 447.93203125 -69.4609375 448.67578125 C-73.50180188 450.97352766 -76.30445242 450.61344148 -80.6484375 449.48828125 C-83.7732002 448.16084053 -86.66306652 446.52215216 -89.5859375 444.80078125 C-90.37500488 444.34743408 -91.16407227 443.89408691 -91.97705078 443.42700195 C-110.35163633 432.78538674 -110.35163633 432.78538674 -113.3984375 422.92578125 C-114.71475999 418.92479988 -114.71475999 418.92479988 -117.57421875 415.9921875 C-119.66550778 414.96634062 -119.66550778 414.96634062 -121.74609375 414.26953125 C-124.07890617 413.3114974 -125.16732708 412.54388299 -126.6484375 410.48828125 C-127.02734375 407.66796875 -127.02734375 407.66796875 -127.2109375 404.36328125 C-127.92878796 398.62047761 -129.33282919 396.14437479 -133.7109375 392.36328125 C-134.60941406 391.68007812 -135.50789062 390.996875 -136.43359375 390.29296875 C-138.6484375 388.48828125 -138.6484375 388.48828125 -139.6484375 385.48828125 C-139.74263087 383.69860721 -139.77834748 381.90542562 -139.7734375 380.11328125 C-139.77730469 378.70949219 -139.77730469 378.70949219 -139.78125 377.27734375 C-139.65285191 374.58098378 -139.25032459 372.11556616 -138.6484375 369.48828125 C-140.31479052 369.02880891 -141.98153943 368.5707723 -143.6484375 368.11328125 C-144.64746094 367.83871094 -145.64648438 367.56414062 -146.67578125 367.28125 C-149.1798813 366.61327062 -151.68587112 366.00705804 -154.2109375 365.42578125 C-157.6484375 364.48828125 -157.6484375 364.48828125 -159.6484375 362.48828125 C-160.17463503 355.97658684 -158.79066699 350.4416125 -157.1484375 344.17578125 C-155.34341909 336.7918416 -154.17418085 329.78823693 -154.2109375 322.17578125 C-154.21351563 321.43094482 -154.21609375 320.6861084 -154.21875 319.91870117 C-154.4777627 310.33199371 -157.28521504 302.267679 -161.2734375 293.61328125 C-161.71349121 292.64745117 -162.15354492 291.68162109 -162.60693359 290.68652344 C-165.58422577 284.32394376 -168.79857327 278.77072358 -173.25 273.31640625 C-174.6484375 271.48828125 -174.6484375 271.48828125 -174.6484375 269.48828125 C-176.2984375 269.15828125 -177.9484375 268.82828125 -179.6484375 268.48828125 C-179.17289204 265.51612213 -178.24189222 263.81494064 -176.6484375 261.17578125 C-174.57212321 257.59011673 -173.5715889 254.71495402 -173.6484375 250.48828125 C-175.060718 248.06405173 -176.62886047 246.50785828 -178.6484375 244.48828125 C-179.3084375 243.82828125 -179.9684375 243.16828125 -180.6484375 242.48828125 C-180.9784375 244.79828125 -181.3084375 247.10828125 -181.6484375 249.48828125 C-182.9684375 249.81828125 -184.2884375 250.14828125 -185.6484375 250.48828125 C-192.11047534 240.99253863 -193.28770443 232.95048601 -192.6484375 221.48828125 C-192.1534375 220.49828125 -192.1534375 220.49828125 -191.6484375 219.48828125 C-195.6084375 219.81828125 -199.5684375 220.14828125 -203.6484375 220.48828125 C-204.6484375 215.48828125 -204.6484375 215.48828125 -203.63208008 213.83837891 C-203.10767334 213.3644873 -202.5832666 212.8905957 -202.04296875 212.40234375 C-201.47126953 211.86351562 -200.89957031 211.3246875 -200.31054688 210.76953125 C-199.70017578 210.22296875 -199.08980469 209.67640625 -198.4609375 209.11328125 C-193.05632831 204.18606938 -188.36166366 199.80959266 -187.1171875 192.26953125 C-187.19318145 184.29016628 -188.40529841 177.51760356 -190.7734375 169.9609375 C-191.6866991 166.33643054 -191.80054292 163.21011064 -191.6484375 159.48828125 C-196.34111739 163.52920005 -198.4135049 167.7573647 -200.6484375 173.48828125 C-201.9684375 173.15828125 -203.2884375 172.82828125 -204.6484375 172.48828125 C-204.73701613 169.19679015 -204.7893479 165.9056132 -204.8359375 162.61328125 C-204.86107422 161.69546875 -204.88621094 160.77765625 -204.91210938 159.83203125 C-205.02432268 149.20917151 -202.15505718 139.96881926 -195.6484375 131.48828125 C-191.50347731 127.48396841 -187.28641102 124.89777463 -181.6484375 123.48828125 C-182.02355469 122.95203125 -182.39867187 122.41578125 -182.78515625 121.86328125 C-186.29116369 116.49387943 -188.63534299 111.20399818 -190.5234375 105.11328125 C-190.73830811 104.42363281 -190.95317871 103.73398437 -191.17456055 103.0234375 C-192.16832091 99.66739258 -192.6484375 97.02227518 -192.6484375 93.48828125 C-189.58174442 93.92638026 -186.79841668 94.43341599 -183.8828125 95.5 C-173.20721208 98.76198902 -163.25993714 96.51521621 -153.6484375 91.48828125 C-152.21564453 90.87146484 -152.21564453 90.87146484 -150.75390625 90.2421875 C-147.94062581 88.8858563 -145.85946329 87.69930704 -143.6484375 85.48828125 C-142.69712114 82.51214474 -142.3943995 79.75674519 -142.109375 76.6484375 C-140.80910471 67.73387254 -134.64893132 59.87510192 -127.6484375 54.48828125 C-120.67515805 50.09615598 -113.29024751 47.68083317 -105.45800781 45.38208008 C-97.54804423 42.9840498 -90.26406278 39.62152032 -85.6484375 32.48828125 C-83.6684375 32.98328125 -83.6684375 32.98328125 -81.6484375 33.48828125 C-81.6484375 35.79828125 -81.6484375 38.10828125 -81.6484375 40.48828125 C-80.90013672 39.69164062 -80.90013672 39.69164062 -80.13671875 38.87890625 C-71.90960857 30.78472962 -62.97006635 29.05034662 -52.00244141 27.09936523 C-33.2403884 23.75751092 -17.23314166 17.92546384 -4.9375 2.6484375 C-2.6484375 0.48828125 -2.6484375 0.48828125 0 0 Z " fill="#F1F1F1" transform="translate(818.6484375,742.51171875)"/>
<path d="M0 0 C3.48614288 1.47071653 5.47046563 3.40405403 8 6.1875 C15.69133824 14.01708125 24.72731774 18.26632052 35.08984375 21.56640625 C41.69297579 24.81922432 44.44630226 31.43374766 47.6875 37.6875 C53.37636699 48.23937888 60.21332452 58.71393619 72 63 C74.6116926 63.634149 77.1964119 64.08216538 79.85546875 64.47265625 C83.59021837 65.09898072 87.21600988 66.04048523 90.875 67 C110.90966968 72.07700725 129.74036417 71.68683841 150.13647461 69.07421875 C164.70921024 67.35014964 179.35276462 67.73188671 194 68 C193.88930176 69.00748291 193.77860352 70.01496582 193.66455078 71.05297852 C190.90852967 96.3481448 189.03680986 121.57708507 188 147 C186.92363281 146.48268311 185.84726562 145.96536621 184.73828125 145.43237305 C175.93970044 141.23028392 167.12587331 137.26410745 158 133.8125 C156.32719971 133.17707275 156.32719971 133.17707275 154.62060547 132.52880859 C142.43772042 127.9595664 130.45944552 124.39961894 117.6875 121.9375 C105.76968327 119.62161447 96.28916025 116.71905678 86.33666992 109.61669922 C81.40895016 106.10887638 76.75402151 102.90164209 70.5 103.125 C67.02391401 103.8671799 67.02391401 103.8671799 64.12109375 105.39453125 C58.55478524 107.82951519 52.51293823 108.54343521 46.5625 109.5625 C37.48740913 111.09081552 37.48740913 111.09081552 28.515625 113.11328125 C23.03255592 114.49623312 17.6353236 114.75121261 12 115 C11.28875977 115.03399902 10.57751953 115.06799805 9.84472656 115.10302734 C0.68514005 115.49041217 -7.960714 115.16571596 -16.9375 113.1875 C-17.68862061 113.0222583 -18.43974121 112.8570166 -19.21362305 112.68676758 C-23.08281914 111.74268195 -26.03473034 110.70203424 -29 108 C-28.9921875 105.80078125 -28.9921875 105.80078125 -28 103 C-25.58111132 101.01915959 -22.88850233 99.63173035 -20.125 98.1875 C-19.39152344 97.78080078 -18.65804688 97.37410156 -17.90234375 96.95507812 C-12.44910714 94 -12.44910714 94 -9 94 C-8.4502728 99.63470383 -10.04952165 102.38987758 -13 107 C-12.278125 106.7525 -11.55625 106.505 -10.8125 106.25 C-9.884375 106.1675 -8.95625 106.085 -8 106 C-7.29875 106.639375 -6.5975 107.27875 -5.875 107.9375 C-1.4791663 111.09103287 2.73888348 110.55791947 8 110 C11.67576808 109.01144875 15.04598682 107.58792637 18.5 106 C19.40983643 105.59571777 20.31967285 105.19143555 21.25708008 104.77490234 C29.01063513 101.2221426 37.15379285 97.26931072 42 90 C41.83439587 83.73070089 39.29179748 79.10242754 36.3125 73.6875 C35.89033203 72.89666016 35.46816406 72.10582031 35.03320312 71.29101562 C29.79641505 61.5678088 23.92777057 52.22699105 18.0625 42.875 C16.74997208 40.77866331 15.437473 38.68230857 14.125 36.5859375 C13.45210938 35.51182617 12.77921875 34.43771484 12.0859375 33.33105469 C8.5742136 27.72314728 5.06866633 22.1113834 1.5625 16.5 C0.29299675 14.4687325 -0.97653186 12.43748085 -2.24609375 10.40625 C-3.62304688 8.203125 -3.62304688 8.203125 -5 6 C-3.35 4.02 -1.7 2.04 0 0 Z " fill="#020202" transform="translate(452,1367)"/>
<path d="M0 0 C-0.3267961 2.33425788 -0.66140041 4.66742506 -1 7 C-1.06960938 8.00546875 -1.13921875 9.0109375 -1.2109375 10.046875 C-2 13 -2 13 -4.29296875 14.7578125 C-5.24816406 15.20898438 -6.20335937 15.66015625 -7.1875 16.125 C-8.1775 16.61484375 -9.1675 17.1046875 -10.1875 17.609375 C-11.115625 18.06828125 -12.04375 18.5271875 -13 19 C-15.06233961 20.26552658 -17.01964373 21.6083983 -19 23 C-23.85261154 20.93236552 -26.39001627 17.48381821 -29 13 C-29.75 9.75 -29.75 9.75 -29 7 C-21.64367697 -0.15198072 -9.68223611 -0.51460704 0 0 Z " fill="#050505" transform="translate(442,1444)"/>
<path d="M0 0 C0.93457031 0.00322266 1.86914062 0.00644531 2.83203125 0.00976562 C3.80011719 0.01814453 4.76820313 0.02652344 5.765625 0.03515625 C6.74917969 0.03966797 7.73273438 0.04417969 8.74609375 0.04882812 C11.16933291 0.06059142 13.59244773 0.07702941 16.015625 0.09765625 C17.30765304 4.72354027 16.31890254 7.49785316 15.015625 12.09765625 C14.07460938 12.35160156 13.13359375 12.60554688 12.1640625 12.8671875 C10.29621094 13.38345703 10.29621094 13.38345703 8.390625 13.91015625 C7.16085937 14.24660156 5.93109375 14.58304688 4.6640625 14.9296875 C1.0057636 15.99809462 1.0057636 15.99809462 -2.2578125 17.734375 C-4.984375 19.09765625 -4.984375 19.09765625 -7.984375 19.09765625 C-9.84375 17.0859375 -9.84375 17.0859375 -11.734375 14.41015625 C-12.36859375 13.54003906 -13.0028125 12.66992188 -13.65625 11.7734375 C-14.984375 9.09765625 -14.984375 9.09765625 -14.83203125 6.375 C-13.6431452 3.18089602 -12.01945284 2.50932036 -8.984375 1.09765625 C-5.92840582 0.15602871 -3.19087424 -0.01945655 0 0 Z " fill="#050505" transform="translate(416.984375,1427.90234375)"/>
<path d="M0 0 C2.81169728 1.3179831 3.61334879 3.23353014 5 5.9375 C1.7 5.2775 -1.6 4.6175 -5 3.9375 C-5 3.2775 -5 2.6175 -5 1.9375 C-2 -0.0625 -2 -0.0625 0 0 Z " fill="#1E1E1E" transform="translate(394,1411.0625)"/>
<path d="M0 0 C2.45976489 3.68964734 3.12465307 5.27428479 3.0625 9.625 C3.05347656 10.44226562 3.04445313 11.25953125 3.03515625 12.1015625 C3.02355469 12.72804688 3.01195312 13.35453125 3 14 C-0.16470185 9.25294723 -0.10927475 5.68228705 0 0 Z " fill="#222222" transform="translate(911,1086)"/>
<path d="M0 0 C0.66 0.33 1.32 0.66 2 1 C-1.465 3.97 -1.465 3.97 -5 7 C-5.66 6.34 -6.32 5.68 -7 5 C-4.69 3.35 -2.38 1.7 0 0 Z " fill="#B3B3B3" transform="translate(796,1149)"/>
</svg>
