<?xml version="1.0" standalone="no"?>
<!DOCTYPE svg PUBLIC "-//W3C//DTD SVG 20010904//EN"
 "http://www.w3.org/TR/2001/REC-SVG-20010904/DTD/svg10.dtd">
<svg version="1.0" xmlns="http://www.w3.org/2000/svg"
 width="589.000000pt" height="1280.000000pt" viewBox="0 0 589.000000 1280.000000"
 preserveAspectRatio="xMidYMid meet">

<g transform="translate(0.000000,1280.000000) scale(0.100000,-0.100000)"
fill="#000000" stroke="none">
<path d="M0 6400 l0 -6400 2945 0 2945 0 0 6400 0 6400 -2945 0 -2945 0 0
-6400z m4020 2751 c5 -11 10 -34 10 -51 0 -27 3 -31 18 -25 34 14 101 17 133
6 47 -16 149 -84 149 -98 0 -7 -9 -13 -21 -13 -31 0 -13 -19 40 -43 30 -13 78
-22 136 -26 l90 -6 -3 -45 c-2 -25 -11 -56 -21 -70 l-19 -26 39 -22 c45 -26
82 -85 103 -163 8 -31 21 -70 29 -86 26 -49 50 -223 31 -223 -4 0 -23 14 -43
32 l-36 32 -3 -83 c-5 -141 15 -185 114 -255 l27 -19 -21 -17 c-12 -10 -46
-21 -77 -25 -54 -6 -55 -7 -55 -38 0 -53 -19 -104 -45 -121 -44 -29 -59 -72
-57 -166 1 -47 8 -113 15 -148 9 -38 10 -65 4 -69 -13 -8 -58 27 -84 67 -13
18 -23 29 -23 25 0 -25 60 -176 114 -290 80 -167 154 -286 270 -440 178 -235
207 -301 214 -495 7 -213 -37 -462 -130 -725 -82 -232 -102 -307 -133 -502
-14 -92 -44 -269 -65 -393 -56 -321 -72 -456 -73 -610 -1 -142 9 -213 44 -321
l22 -66 -60 -79 c-33 -44 -74 -101 -92 -128 -89 -130 -234 -253 -386 -329
-128 -63 -222 -90 -445 -127 -219 -36 -322 -40 -401 -16 -61 18 -119 50 -119
67 0 6 3 9 8 7 155 -80 209 -83 502 -34 280 47 397 86 546 181 83 53 215 185
286 285 33 47 77 105 96 129 35 43 35 44 22 90 -7 25 -19 69 -27 96 -21 74
-27 272 -14 415 7 69 30 231 52 360 22 129 49 289 59 355 11 66 27 163 35 216
15 94 46 197 138 464 83 239 131 561 109 736 -15 125 -59 212 -200 401 -149
199 -247 371 -341 603 -5 11 -52 43 -109 73 -56 29 -112 66 -126 82 -13 16
-34 59 -46 96 l-22 66 -36 -6 c-20 -3 -49 -15 -65 -27 -42 -31 -60 -19 -52 36
l7 44 -51 -24 c-28 -14 -67 -25 -86 -25 -34 0 -46 12 -24 26 16 9 49 85 49
111 l0 22 -35 -20 c-19 -11 -39 -18 -45 -14 -13 8 -13 55 0 55 6 0 10 -7 10
-15 0 -20 6 -19 44 10 29 22 35 23 46 10 15 -18 6 -74 -21 -128 l-20 -39 23 7
c13 4 45 18 71 31 27 13 53 22 58 18 5 -3 6 -24 2 -46 -6 -38 -5 -41 13 -33
101 42 133 31 157 -54 21 -73 53 -108 156 -162 54 -29 72 -35 67 -23 -15 40
-27 110 -21 131 8 35 32 27 46 -14 13 -41 48 -97 56 -90 2 3 -1 50 -8 105 -17
134 -5 190 53 249 37 37 42 48 46 100 3 32 10 61 16 65 6 4 31 8 56 8 60 0 84
15 48 29 -71 27 -110 118 -111 260 -1 109 4 118 50 91 20 -11 37 -19 39 -17 8
8 -19 135 -36 172 -10 22 -24 61 -30 88 -18 69 -58 124 -107 148 -24 12 -43
23 -43 27 0 3 9 16 21 28 21 22 42 88 31 98 -3 4 -33 6 -67 6 -75 0 -156 23
-192 55 -24 21 -26 26 -16 44 11 18 8 23 -43 51 -73 43 -119 48 -172 21 -56
-29 -61 -27 -55 19 10 69 -1 76 -50 36 -57 -47 -116 -72 -202 -87 -83 -14
-119 -30 -141 -64 -20 -30 -34 -32 -34 -5 0 20 0 20 -38 1 -20 -10 -56 -24
-78 -30 -69 -18 -106 -51 -144 -126 -44 -87 -86 -115 -173 -115 -56 0 -58 -1
-52 -22 10 -32 34 -68 45 -68 26 0 5 -28 -36 -50 -47 -24 -83 -78 -84 -123 0
-16 2 -16 25 -1 35 23 47 14 50 -36 1 -25 5 -66 10 -92 10 -58 2 -88 -32 -129
l-28 -32 29 7 c26 6 28 5 21 -16 -24 -76 -18 -116 14 -98 17 9 23 6 35 -17
l15 -28 1 25 c0 20 2 22 10 10 5 -8 10 -26 10 -40 0 -24 1 -24 20 8 11 18 26
53 32 78 7 24 16 44 20 44 4 0 17 -23 29 -51 l22 -51 24 46 c13 25 28 46 33
46 6 0 13 1 18 3 4 1 7 -23 8 -53 1 -54 21 -140 33 -140 3 0 13 21 21 47 18
57 38 67 46 24 4 -17 11 -34 16 -37 6 -4 8 5 4 22 -9 44 15 129 37 128 9 -1
17 4 17 12 0 32 33 91 59 107 79 47 182 -15 212 -127 15 -53 5 -232 -14 -279
-16 -37 -51 -67 -79 -67 -12 0 -6 11 23 38 39 36 40 39 50 132 15 146 2 205
-61 265 -60 57 -143 31 -171 -54 -7 -20 -10 -37 -8 -38 2 -2 -7 -10 -20 -19
-22 -16 -23 -21 -18 -95 6 -91 -6 -103 -46 -44 -28 42 -37 32 -37 -41 0 -31
-4 -44 -14 -44 -17 0 -54 86 -70 162 -12 57 -13 59 -24 33 -7 -14 -12 -37 -12
-50 0 -38 -16 -30 -46 21 l-27 46 -33 -62 c-18 -35 -41 -71 -50 -81 -16 -18
-15 -21 10 -59 76 -115 100 -232 73 -350 -9 -35 -13 -68 -11 -72 3 -5 17 -8
32 -8 15 0 38 -7 50 -16 19 -13 21 -21 16 -54 -6 -35 -3 -44 25 -75 17 -20 31
-47 31 -61 0 -17 8 -27 24 -34 15 -5 32 -26 44 -53 16 -36 31 -50 86 -80 37
-21 71 -37 76 -37 5 0 45 30 89 68 44 37 99 77 123 90 l43 23 -36 -33 c-21
-18 -61 -53 -91 -78 l-54 -45 42 -40 c47 -45 64 -91 64 -172 0 -54 -22 -93
-53 -93 -8 0 -61 -30 -118 -66 -57 -36 -135 -84 -174 -106 -38 -22 -93 -58
-122 -79 -58 -43 -63 -45 -63 -25 0 19 321 226 457 295 52 26 60 51 45 135 -9
49 -19 68 -51 99 -38 38 -40 39 -62 23 -34 -23 -56 -19 -129 22 -51 29 -70 47
-87 81 -12 24 -32 49 -45 55 -13 7 -25 24 -29 44 -4 19 -19 46 -33 61 -20 21
-26 37 -26 73 0 46 0 46 -38 53 -68 11 -68 12 -48 114 21 103 17 154 -20 237
-26 58 -61 114 -80 126 -9 6 -7 18 7 44 17 34 17 38 1 60 -21 29 -32 30 -32 4
0 -11 -5 -20 -11 -20 -16 0 -39 65 -39 110 0 38 -2 40 -30 40 -16 0 -30 5 -30
11 0 7 20 34 45 60 51 55 54 71 26 169 l-19 65 -16 -37 c-23 -55 -36 -47 -36
22 0 87 31 141 107 185 1 1 -6 19 -17 41 -11 21 -23 54 -26 73 -7 31 -5 34 12
26 10 -4 42 -9 69 -12 41 -3 59 1 99 24 42 24 50 35 66 83 23 69 59 101 145
130 37 12 82 35 100 51 20 18 36 26 40 19 3 -5 3 -14 0 -20 -3 -5 -2 -10 4
-10 5 0 13 5 16 10 12 20 63 39 130 50 84 13 162 49 206 95 39 40 54 43 69 16z
m-912 -1521 c-8 -25 -204 -237 -212 -229 -10 9 188 239 205 239 6 0 9 -5 7
-10z m71 -353 c-35 -70 -37 -72 -44 -65 -9 9 54 140 65 133 6 -4 -3 -31 -21
-68z m-369 21 c-1 -20 -88 -110 -95 -98 -3 6 13 33 37 60 44 50 58 60 58 38z
m-211 -249 c-47 -56 -55 -63 -63 -50 -8 12 83 113 95 105 5 -3 -9 -28 -32 -55z
m456 -19 c-18 -35 -30 -49 -36 -43 -7 7 -1 28 18 61 37 66 53 50 18 -18z
m-624 -168 c-43 -54 -100 -107 -107 -99 -9 9 117 148 128 141 4 -3 -5 -22 -21
-42z m504 -67 c-28 -51 -45 -68 -45 -45 0 5 12 34 27 65 18 37 30 52 37 45 7
-7 0 -28 -19 -65z m-685 -132 c-1 -17 -61 -73 -71 -67 -7 4 2 20 22 40 32 33
49 42 49 27z m549 -132 c-39 -74 -59 -98 -59 -71 0 6 18 47 41 91 28 57 44 78
51 71 7 -7 -3 -35 -33 -91z m455 -178 c-40 -185 -64 -366 -73 -543 -1 -8 -5
-49 -11 -90 -5 -41 -14 -214 -20 -385 -15 -459 -25 -550 -86 -785 -44 -172
-75 -258 -162 -450 -120 -265 -149 -367 -171 -590 -16 -163 -28 -221 -67 -338
-19 -57 -34 -106 -34 -108 0 -3 35 -22 78 -42 99 -47 176 -53 310 -23 148 34
143 30 210 166 33 66 115 202 183 303 68 101 140 212 159 246 19 35 54 87 76
117 66 87 72 99 94 209 32 157 122 408 224 621 25 55 41 109 55 190 11 63 42
234 70 381 28 147 53 303 57 347 4 50 11 78 17 74 18 -11 -1 -174 -53 -443
-29 -146 -58 -305 -66 -353 -15 -90 -34 -149 -99 -297 -98 -227 -116 -273
-148 -385 -19 -66 -37 -144 -41 -174 -8 -64 -19 -87 -81 -169 -26 -34 -63 -91
-83 -126 -20 -35 -93 -147 -161 -248 -72 -106 -149 -235 -184 -306 -43 -89
-67 -126 -86 -136 -51 -27 -201 -56 -287 -56 -73 0 -96 5 -160 31 -41 17 -84
39 -95 48 l-21 17 26 74 c42 115 76 257 76 314 0 28 11 116 24 196 26 158 60
262 153 463 74 161 116 274 152 408 65 242 76 327 96 760 l5 116 -58 26 c-101
45 -185 73 -287 96 -62 14 -119 34 -150 53 -53 33 -60 33 -205 8 -151 -26
-220 -31 -272 -21 -83 15 -107 27 -114 58 -4 15 -18 41 -31 56 -12 16 -23 35
-23 44 0 8 -11 28 -25 45 -34 40 -32 63 8 84 15 8 8 13 -38 28 -58 18 -65 28
-39 57 14 15 12 21 -15 65 -35 54 -39 93 -13 117 48 43 218 95 253 76 9 -4 24
-20 33 -34 16 -25 19 -25 35 -11 24 22 25 21 72 -21 22 -20 68 -50 102 -67 51
-26 67 -40 88 -80 15 -27 43 -66 63 -87 67 -68 220 -87 527 -65 l116 9 10 136
c13 161 61 411 79 411 7 0 10 -8 8 -17z m-584 -77 c-29 -48 -45 -35 -19 16 14
28 24 37 31 30 7 -7 4 -21 -12 -46z"/>
<path d="M2050 6155 c-124 -27 -187 -66 -177 -107 7 -28 96 -167 118 -185 8
-7 44 -13 79 -15 l65 -3 -1 -37 c-1 -30 3 -38 20 -40 17 -2 21 -11 23 -43 7
-113 15 -129 62 -115 40 11 126 57 140 74 11 13 5 30 -37 108 -50 95 -218 365
-230 371 -4 2 -32 -2 -62 -8z"/>
<path d="M2194 6106 c-3 -8 16 -48 42 -88 92 -142 182 -308 177 -328 -7 -25
-81 -75 -145 -96 -42 -14 -54 -14 -77 -3 -14 7 -29 12 -33 11 -11 -3 -10 16 2
38 16 30 -3 31 -48 4 -51 -31 -53 -49 -6 -64 73 -25 364 2 434 40 21 11 54 -1
112 -41 14 -11 74 -30 133 -44 101 -24 247 -75 313 -109 l29 -15 6 122 c4 67
10 154 13 194 l7 71 -69 -2 c-38 -2 -134 -6 -214 -10 -133 -7 -153 -5 -238 17
-113 28 -146 52 -191 137 -29 55 -40 65 -87 86 -29 13 -71 39 -92 59 -43 38
-60 43 -68 21z"/>
<path d="M1910 5902 c0 -5 7 -13 16 -16 10 -4 14 -1 12 6 -5 15 -28 23 -28 10z"/>
<path d="M1980 5812 l-23 -19 23 -31 c15 -20 27 -28 34 -23 6 5 30 15 54 22
23 6 42 15 42 18 0 3 3 16 6 29 6 21 4 22 -54 22 -43 0 -66 -5 -82 -18z"/>
<path d="M2067 5740 c-59 -18 -63 -32 -24 -84 14 -19 15 -19 61 8 25 15 46 33
46 41 0 7 3 20 6 29 5 13 -1 16 -27 15 -19 0 -47 -5 -62 -9z"/>
</g>
</svg>
