<svg version="1.1" id="Layer_1" xmlns="http://www.w3.org/2000/svg" xmlns:xlink="http://www.w3.org/1999/xlink" x="0px" y="0px"
	 width="100%" viewBox="0 0 1206 2622" enable-background="new 0 0 1206 2622" xml:space="preserve">
<path fill="#000000" opacity="1.000000" stroke="none" 
	d="
M519.000000,2623.000000 
	C346.000000,2623.000000 173.500000,2623.000000 1.000000,2623.000000 
	C1.000000,1749.000000 1.000000,875.000000 1.000000,1.000000 
	C403.000000,1.000000 805.000000,1.000000 1207.000000,1.000000 
	C1207.000000,875.000000 1207.000000,1749.000000 1207.000000,2623.000000 
	C977.833313,2623.000000 748.666687,2623.000000 519.000000,2623.000000 
M409.689972,1424.407104 
	C409.689972,1424.407104 409.674408,1424.337280 410.393555,1424.949463 
	C408.807159,1425.650513 407.235077,1426.386230 405.631897,1427.046509 
	C398.152100,1430.127319 396.327576,1435.951294 401.134460,1442.519897 
	C403.520325,1445.780396 406.517456,1448.593628 409.510010,1451.910645 
	C408.482513,1457.418579 410.447968,1461.724121 417.345184,1468.537964 
	C418.310211,1469.491333 419.728882,1470.879272 419.601196,1471.898682 
	C418.820587,1478.130371 422.393585,1481.294922 427.448700,1482.958618 
	C438.066101,1486.452881 448.947571,1488.568970 460.237640,1487.909912 
	C479.346130,1486.794312 497.887299,1482.291626 516.475525,1478.252441 
	C525.408081,1476.311279 532.827271,1477.365479 540.160950,1483.218384 
	C544.553955,1486.724121 550.166321,1489.128662 555.608215,1490.793579 
	C563.830505,1493.308838 572.624207,1494.033813 580.745056,1496.787598 
	C599.044434,1502.993042 617.012512,1510.170532 635.266174,1516.519043 
	C640.441162,1518.318726 641.166016,1521.277710 640.938232,1526.047485 
	C640.072021,1544.188599 639.758911,1562.356567 638.859924,1580.495605 
	C637.411682,1609.717407 635.731445,1638.901855 629.054321,1667.576782 
	C620.240051,1705.429443 609.290771,1742.449341 592.324341,1777.642700 
	C577.203003,1809.008667 563.079041,1840.916870 558.546692,1875.970337 
	C556.398010,1892.587769 554.808472,1909.277344 552.924683,1925.929565 
	C552.514282,1929.557617 552.387817,1933.304077 551.348206,1936.760620 
	C545.774353,1955.294189 539.999878,1973.768066 534.168396,1992.222656 
	C533.245483,1995.143311 532.475098,1997.933716 535.564819,1999.727905 
	C548.340576,2007.146729 561.210327,2015.136230 576.091980,2016.724854 
	C602.388672,2019.532104 627.619995,2013.917603 651.886230,2003.831421 
	C653.503235,2003.159424 655.139038,2001.379395 655.798706,1999.728271 
	C667.694580,1969.953613 683.835876,1942.580566 702.093994,1916.322510 
	C713.760437,1899.544312 724.880493,1882.385620 736.195679,1865.364258 
	C742.700256,1855.579834 748.850830,1845.549561 755.628235,1835.960327 
	C762.095459,1826.809814 768.558167,1817.836548 769.868958,1806.225342 
	C770.518372,1800.473145 771.362549,1794.705811 772.659058,1789.069702 
	C782.148743,1747.814697 799.207642,1709.319092 816.328796,1670.888428 
	C821.205933,1659.941284 825.834167,1649.061035 827.971680,1637.204346 
	C834.418335,1601.445557 841.239258,1565.751953 847.379944,1529.941284 
	C850.692017,1510.626221 852.927124,1491.125854 855.613892,1471.704346 
	C856.201477,1467.456787 855.143250,1464.226318 850.955200,1463.731689 
	C850.477112,1471.566895 850.630432,1479.425415 849.412903,1487.065674 
	C845.708496,1510.312134 841.575806,1533.492188 837.417358,1556.663696 
	C833.693604,1577.413696 829.838623,1598.142090 825.801819,1618.833252 
	C823.363831,1631.329224 821.907166,1644.277588 817.469543,1656.066650 
	C809.074890,1678.368774 798.835876,1699.975952 789.389343,1721.883057 
	C778.521790,1747.085571 770.281494,1773.138916 765.973511,1800.237549 
	C764.227173,1811.222900 761.121033,1821.135864 754.201233,1829.888428 
	C748.943787,1836.538574 742.967285,1842.922729 739.179810,1850.375366 
	C728.345215,1871.694214 713.607117,1890.411011 700.389954,1910.097656 
	C681.834473,1937.736084 664.197144,1965.747559 651.717529,1996.748535 
	C651.140503,1998.182129 649.398499,1999.531982 647.884827,2000.145508 
	C626.207031,2008.931030 603.743591,2013.428833 580.269409,2012.036499 
	C564.600586,2011.107178 552.027039,2002.486450 539.080627,1996.227661 
	C543.098206,1983.751343 547.207947,1972.202148 550.494629,1960.423462 
	C553.475769,1949.739990 557.236938,1938.876465 557.692749,1927.968628 
	C558.655212,1904.940796 562.060303,1882.304321 566.721252,1859.919922 
	C572.220459,1833.509644 582.774536,1808.648193 594.698181,1784.551636 
	C615.088074,1743.345459 627.975281,1699.767334 636.757996,1654.897705 
	C643.340820,1621.266846 643.614807,1587.010864 645.061462,1552.910522 
	C645.951172,1531.939209 645.879272,1510.918457 647.141602,1489.974243 
	C648.379639,1469.433960 650.773804,1448.963867 652.630432,1428.460327 
	C653.155884,1422.658203 653.591431,1416.847656 654.041687,1411.038940 
	C655.739380,1389.134521 657.627869,1367.286377 662.750793,1345.802979 
	C665.073853,1336.061157 665.979919,1325.981445 667.537292,1316.056519 
	C667.557617,1315.927246 667.691467,1315.816895 667.759705,1315.690918 
	C667.763428,1315.684082 667.650085,1315.613770 667.866943,1315.763916 
	C666.625549,1316.704590 665.329041,1317.449829 664.353394,1318.494507 
	C663.414246,1319.500122 662.359192,1320.731323 662.119324,1322.007202 
	C656.285156,1353.038574 649.489075,1383.930664 648.754761,1415.702515 
	C648.634766,1420.893921 647.588562,1426.063843 647.105469,1430.111938 
	C633.045837,1431.079102 619.948730,1431.913330 606.863770,1432.907349 
	C599.891785,1433.437012 592.949890,1434.359863 585.978638,1434.902100 
	C568.328857,1436.274536 551.376343,1432.407593 534.221924,1428.846924 
	C521.933289,1426.296509 514.215454,1419.239990 507.883789,1409.573120 
	C505.263153,1405.572266 502.884613,1401.339722 500.985443,1396.957031 
	C498.329224,1390.827148 493.823639,1387.161865 487.655212,1385.178345 
	C477.332458,1381.859131 468.390564,1376.519165 461.002014,1368.362549 
	C455.437195,1362.219238 453.038147,1362.537109 447.287201,1368.374634 
	C446.882812,1368.785156 446.179260,1368.900757 445.445404,1369.229370 
	C443.374359,1366.181641 441.454041,1363.269043 439.444366,1360.419678 
	C436.761658,1356.615845 433.607819,1355.002563 428.458679,1355.721802 
	C414.472565,1357.675293 401.561707,1362.675049 388.797058,1368.249390 
	C379.471863,1372.321655 376.817810,1380.485352 381.781403,1389.491943 
	C385.190674,1395.677856 388.761139,1401.774902 392.321594,1408.020630 
	C391.380981,1408.564941 390.491425,1408.817627 390.012695,1409.405029 
	C388.419647,1411.359741 385.419952,1413.887207 385.847168,1415.354126 
	C386.443176,1417.400757 389.423340,1419.223755 391.774628,1420.187500 
	C396.206299,1422.004028 400.892700,1423.229126 405.528442,1424.498413 
	C406.824432,1424.853027 408.313812,1424.501587 409.689972,1424.407104 
M781.275574,991.135864 
	C781.471069,992.424011 781.666565,993.712219 782.011841,995.863220 
	C781.614258,1001.644348 781.346985,1007.438049 780.788818,1013.203613 
	C779.921204,1022.165527 776.869690,1029.871094 768.355286,1034.497925 
	C765.944397,1035.807983 763.950684,1037.885376 761.180664,1040.072510 
	C764.607910,1039.744507 767.223206,1039.494263 770.098328,1039.916138 
	C773.261719,1041.055054 774.662903,1039.682007 775.124817,1036.116577 
	C775.709351,1035.729248 776.293945,1035.342041 777.722473,1035.000122 
	C782.860168,1034.983276 788.017944,1035.198120 793.118774,1034.755371 
	C794.147705,1034.666260 794.960327,1032.084473 796.275879,1030.116943 
	C798.086914,1028.700439 799.897949,1027.283936 801.942810,1026.644653 
	C802.571838,1027.096680 803.200806,1027.548706 803.974854,1028.784302 
	C802.625793,1033.189453 801.276794,1037.594604 799.144226,1042.001953 
	C794.556152,1042.971436 793.345032,1045.484985 795.367615,1049.853149 
	C794.187683,1052.303467 793.007812,1054.753906 791.827942,1057.204224 
	C794.724976,1057.778931 797.603210,1058.519897 800.527954,1058.848633 
	C801.748657,1058.985840 803.130676,1058.393433 804.332153,1057.881104 
	C811.455383,1054.844238 818.547058,1051.733398 826.174316,1049.088989 
	C826.367920,1049.210449 826.561584,1049.332031 826.782349,1050.283691 
	C826.202759,1054.716919 825.333496,1059.140991 825.193420,1063.588135 
	C825.141357,1065.244019 826.424988,1067.521484 827.810547,1068.423950 
	C828.627502,1068.956299 830.912109,1067.484131 832.408752,1066.676392 
	C836.454468,1064.492920 840.221008,1061.614258 844.478210,1060.036255 
	C854.574524,1056.293701 857.452148,1057.832642 860.005798,1068.258667 
	C863.845520,1083.936035 871.730530,1096.109375 886.890442,1103.195190 
	C896.949585,1107.896973 906.573547,1113.537720 916.320435,1118.889038 
	C917.426086,1119.495972 918.440369,1120.818848 918.867920,1122.031494 
	C931.367615,1157.480225 948.990662,1190.346802 969.982910,1221.358765 
	C980.416138,1236.771973 992.463196,1251.083740 1003.504028,1266.096924 
	C1018.757629,1286.838623 1028.901489,1309.469116 1030.220459,1335.763184 
	C1032.022949,1371.700317 1026.202759,1406.798584 1018.203125,1441.432495 
	C1013.042175,1463.776611 1004.852295,1485.458374 997.405334,1507.226929 
	C989.732605,1529.655396 981.566895,1551.820923 977.942627,1575.474609 
	C971.202087,1619.466064 963.705566,1663.341797 956.474304,1707.257690 
	C950.686584,1742.406616 945.765869,1777.655762 947.056152,1813.397095 
	C947.770874,1833.194214 950.438965,1852.778320 958.311890,1871.214355 
	C960.228638,1875.702759 960.485779,1879.135254 956.571167,1882.709351 
	C953.909607,1885.139526 951.962463,1888.368286 949.774536,1891.298584 
	C934.865234,1911.265381 921.602722,1932.375366 903.107788,1949.680176 
	C876.507507,1974.568848 845.896667,1992.357422 810.851318,2000.613892 
	C779.749390,2007.941162 747.851318,2012.155029 716.134521,2016.501221 
	C698.564453,2018.908691 681.406006,2015.236694 665.934143,2005.800049 
	C664.886292,2005.160889 664.166138,2003.984497 662.420776,2002.131348 
	C662.029663,2002.307617 660.510986,2002.992065 658.992249,2003.676392 
	C659.690613,2005.118286 660.086792,2006.863281 661.157959,2007.931519 
	C662.774658,2009.544067 664.751465,2010.886353 666.767639,2011.992920 
	C683.084412,2020.948486 700.773071,2023.724365 718.901611,2021.345337 
	C745.385498,2017.869629 771.872375,2014.051025 798.091003,2008.994263 
	C852.391052,1998.521362 896.408203,1970.699219 930.397522,1927.200073 
	C941.962402,1912.399536 952.832031,1897.046997 963.688171,1881.712158 
	C965.028687,1879.818848 965.073059,1876.268677 964.412781,1873.841431 
	C962.673767,1867.448975 959.713318,1861.375610 958.133850,1854.955078 
	C952.284912,1831.179688 950.271484,1806.996094 952.858276,1782.648804 
	C955.738647,1755.538818 958.801514,1728.423462 962.825989,1701.465942 
	C968.070435,1666.335815 974.827209,1631.430786 980.010010,1596.292725 
	C984.066040,1568.793701 989.883911,1541.953003 999.622314,1515.800659 
	C1010.469055,1486.671631 1021.601074,1457.571045 1026.565918,1426.555908 
	C1030.433716,1402.394287 1034.589600,1378.358154 1035.473877,1353.795532 
	C1036.642090,1321.351074 1028.881836,1291.850464 1009.280640,1265.761963 
	C1000.984009,1254.719360 992.378296,1243.909424 984.050842,1232.889526 
	C957.626587,1197.921997 938.008850,1159.156738 921.158386,1118.923096 
	C918.352722,1112.223877 914.774170,1105.291748 916.146118,1098.081055 
	C920.451599,1101.940918 924.703857,1106.047974 929.316589,1109.699707 
	C930.613953,1110.726807 932.969116,1110.417725 934.839050,1110.721436 
	C935.019165,1108.878662 935.676208,1106.933350 935.305420,1105.208984 
	C931.736877,1088.612549 928.751343,1071.970215 930.044861,1054.875122 
	C930.735596,1045.747314 933.454773,1037.679688 941.640564,1032.347534 
	C946.526794,1029.164673 949.191101,1024.336914 949.956299,1018.720520 
	C950.776489,1012.699768 950.978088,1006.594788 951.489502,1000.014038 
	C953.620361,1000.014038 955.952148,1000.286011 958.197510,999.961121 
	C964.093628,999.108032 970.052856,998.362000 975.772461,996.791748 
	C977.847351,996.222046 980.378479,993.611877 980.711365,991.602966 
	C980.965088,990.071777 978.122864,987.980469 976.558289,986.227356 
	C976.155945,985.776550 975.391602,985.621948 974.769409,985.398315 
	C966.159424,982.303894 960.937866,975.971497 957.729370,967.674316 
	C951.695312,952.070374 952.032166,935.783142 952.534302,919.478821 
	C952.541382,919.250549 952.916443,919.033630 953.947998,917.906128 
	C958.038574,921.580078 962.131775,925.309204 966.292664,928.961182 
	C967.550720,930.065430 968.996582,930.955811 970.356445,931.944092 
	C970.910034,930.211121 971.936462,928.473816 971.920593,926.746094 
	C971.885681,922.934509 971.437561,919.113647 970.959229,915.321655 
	C969.342102,902.502686 968.077637,889.577393 960.718628,878.332092 
	C960.220032,877.570129 960.077026,876.538635 959.901428,875.607422 
	C956.221985,856.094299 949.960144,838.332947 928.463928,829.953552 
	C937.022705,823.488342 937.152344,813.887451 938.811401,804.820984 
	C939.427979,801.450989 938.110901,800.107788 934.906616,800.181458 
	C933.741821,800.208252 932.579834,800.388000 931.415466,800.401123 
	C916.654602,800.566284 902.159058,798.950745 888.475891,793.056274 
	C885.236206,791.660583 882.485229,789.130493 879.509399,787.122253 
	C879.742920,786.632751 879.976379,786.143250 880.209839,785.653809 
	C881.458923,785.447083 882.733276,785.334900 883.950623,785.009399 
	C885.431641,784.613403 886.864685,784.037781 888.318481,783.539917 
	C887.346619,782.184387 886.643738,780.447693 885.356445,779.538940 
	C879.659729,775.517517 873.847412,771.652588 867.980408,767.881226 
	C855.261902,759.705750 842.075256,758.054321 827.810791,764.914001 
	C827.615967,764.796326 827.421143,764.678589 827.100525,763.766846 
	C826.416870,758.876892 826.276672,753.829956 824.920105,749.134460 
	C822.968750,742.380432 819.233459,741.710266 814.751221,747.131104 
	C802.594971,761.832886 786.439697,768.519775 768.083862,770.977600 
	C757.097168,772.448792 746.418091,774.615540 738.559631,783.482300 
	C738.482788,783.569031 737.997009,783.293396 737.523987,783.122620 
	C737.563721,782.525330 737.732178,781.863525 737.624634,781.250183 
	C737.332031,779.581482 736.922668,777.933350 736.559509,776.277039 
	C735.095459,777.093018 733.565247,777.810547 732.179626,778.743042 
	C727.679504,781.771729 723.504150,785.432312 718.687439,787.798462 
	C713.988281,790.106628 708.606384,790.985474 703.608093,792.731812 
	C687.767761,798.266235 678.954895,809.454407 676.949158,826.109680 
	C676.792969,827.406372 676.136841,829.111938 675.144714,829.768127 
	C661.502747,838.790344 647.538391,846.243042 630.787842,837.312073 
	C629.903381,836.840454 628.247253,836.772766 627.550232,837.304016 
	C626.929382,837.777222 626.722473,839.493286 627.049988,840.402588 
	C630.202820,849.155457 633.507507,857.853638 636.864136,866.822388 
	C623.581360,874.966309 618.726868,879.696838 616.513672,890.512817 
	C615.033142,897.748291 615.228821,905.351807 615.022644,912.800232 
	C614.984924,914.163025 616.622253,915.572144 617.486328,916.959900 
	C618.457520,915.803101 619.837280,914.795410 620.324158,913.461731 
	C621.847534,909.288757 623.361816,905.233276 627.080750,903.287720 
	C628.806763,910.544006 630.246948,917.657349 632.217468,924.620667 
	C634.811707,933.788269 633.140259,941.645874 626.206299,948.304443 
	C622.961548,951.420471 619.662476,954.498291 616.659302,957.837463 
	C615.621033,958.991821 615.403137,960.884033 614.810486,962.439209 
	C616.431458,962.952393 618.053101,963.886475 619.673340,963.884033 
	C622.378601,963.879944 625.083008,963.277039 628.024536,962.895447 
	C625.257507,973.817688 627.461365,983.279236 632.820984,992.136475 
	C633.382996,993.065125 634.924194,994.084961 635.814026,993.930054 
	C636.625854,993.788696 637.448181,992.190369 637.770081,991.089172 
	C638.325928,989.188416 638.497559,987.175293 639.000183,984.206543 
	C640.814392,987.087646 641.563416,989.393311 643.149231,990.590759 
	C648.358704,994.524292 646.567383,998.792847 644.301270,1003.210022 
	C643.546814,1004.680603 642.750732,1006.164001 641.744690,1007.464355 
	C639.517883,1010.343018 638.599792,1012.502319 643.679016,1012.726929 
	C644.325684,1012.755554 645.088501,1013.864075 645.513733,1014.629883 
	C650.812256,1024.172729 656.307434,1033.618164 661.251099,1043.343140 
	C666.714050,1054.089844 667.235352,1065.664429 665.181335,1077.321167 
	C663.889954,1084.649780 661.911377,1091.855591 660.307800,1099.131226 
	C658.914307,1105.453369 660.940735,1108.185669 667.262817,1109.058594 
	C670.205566,1109.464844 673.075378,1110.604858 676.015686,1110.778320 
	C681.468567,1111.099976 681.992126,1113.596069 680.707581,1118.323608 
	C678.934448,1124.849365 678.940796,1131.518066 685.457642,1135.749878 
	C690.125549,1138.781128 692.306030,1142.449585 692.156189,1148.096313 
	C692.036011,1152.626953 693.720581,1156.968140 698.882324,1157.902222 
	C703.437317,1158.726685 704.653320,1161.585571 706.215820,1165.415894 
	C708.152039,1170.162354 710.644165,1175.628174 714.575073,1178.416870 
	C722.625244,1184.128052 731.774597,1188.299194 740.515686,1193.022339 
	C743.794739,1194.794312 746.888794,1194.175781 749.782959,1191.887817 
	C752.205322,1189.972778 754.739441,1188.199097 757.035950,1186.501831 
	C759.766235,1189.069702 761.975464,1191.340576 764.384399,1193.375000 
	C770.174500,1198.265015 774.403198,1204.102295 775.034363,1211.836060 
	C775.614563,1218.946167 775.638611,1226.099854 776.074524,1233.224243 
	C776.303162,1236.960449 774.333740,1239.065186 771.385010,1240.709351 
	C759.223633,1247.490845 746.868530,1253.953613 734.963013,1261.158691 
	C715.352661,1273.026855 696.057190,1285.414185 676.575989,1297.497192 
	C672.926270,1299.760864 671.125977,1302.528687 672.652710,1307.039307 
	C676.225159,1304.306885 679.527710,1301.248291 683.303711,1298.976929 
	C713.310242,1280.927856 743.393250,1263.005249 773.491577,1245.109253 
	C777.584412,1242.675781 780.756409,1239.703003 780.882385,1234.661621 
	C781.003052,1229.833984 780.952759,1224.992676 780.739685,1220.167847 
	C780.188171,1207.683838 776.733276,1196.537476 765.670471,1189.156982 
	C763.539368,1187.735352 761.233582,1186.575562 758.100464,1184.772583 
	C770.645691,1174.622925 782.600403,1164.951050 794.555115,1155.279175 
	C793.241455,1154.181396 792.647644,1153.992188 792.337341,1154.208862 
	C782.557678,1161.037842 772.690186,1167.750122 763.096130,1174.832275 
	C758.021057,1178.578735 753.355042,1182.896851 748.648438,1187.117432 
	C746.054626,1189.443359 743.518433,1189.863525 740.516785,1188.095093 
	C735.375183,1185.065796 730.417236,1181.584961 724.974426,1179.240112 
	C716.887390,1175.755981 711.669800,1170.614624 709.661194,1161.701538 
	C709.002075,1158.776367 705.607788,1155.354126 702.694763,1154.313477 
	C698.420105,1152.786621 696.900208,1150.719238 696.859985,1146.462524 
	C696.816956,1141.903687 696.186157,1137.096924 691.811707,1134.576904 
	C684.531677,1130.383057 683.810730,1124.518433 685.823792,1117.146118 
	C687.511780,1110.964111 685.658020,1108.233398 679.363098,1106.564575 
	C674.746338,1105.340698 670.036804,1104.466431 664.718994,1103.292969 
	C666.000916,1097.508057 667.173950,1091.739380 668.565613,1086.023926 
	C672.628174,1069.339966 672.002930,1053.092285 663.906006,1037.637817 
	C659.766418,1029.736450 655.053284,1022.133118 650.996094,1014.192383 
	C649.882935,1012.013611 648.940491,1008.075806 650.066162,1006.694458 
	C657.745117,997.272522 663.640076,986.940186 667.642273,975.135071 
	C671.072510,981.025330 674.112671,986.495239 677.438965,991.785278 
	C678.287170,993.134277 680.042542,993.912964 681.381042,994.953674 
	C681.929565,993.389526 682.924072,991.832153 682.948059,990.259949 
	C683.043213,984.037354 684.994751,978.588013 688.805603,973.652100 
	C688.433411,988.910339 693.724121,1002.430603 700.453125,1015.499573 
	C701.384949,1017.309509 703.497681,1018.511475 705.063721,1019.994934 
	C705.679688,1018.007507 706.841309,1016.012085 706.812134,1014.034180 
	C706.713806,1007.362366 706.917297,1000.818909 709.762817,994.954346 
	C712.978149,998.978699 715.970642,1003.070801 719.382874,1006.776428 
	C720.363098,1007.840942 722.554871,1007.789795 724.191040,1008.250183 
	C724.517883,1006.495850 725.249573,1004.705566 725.097717,1002.993652 
	C724.586914,997.235962 723.202637,991.503052 723.235168,985.766785 
	C723.260864,981.260925 724.888367,976.764160 725.793030,972.318970 
	C727.903076,972.318970 729.338257,972.318970 730.036011,972.318970 
	C731.873657,967.170715 733.188843,962.394775 735.232727,957.954224 
	C742.872314,941.356262 759.397095,939.183167 771.786072,952.699768 
	C781.956177,963.795532 783.006714,977.056702 781.275574,991.135864 
M620.033447,1073.509399 
	C610.567200,1084.191162 601.101013,1094.872925 591.324768,1105.904541 
	C592.911133,1107.042114 594.160950,1107.938232 595.427368,1108.846313 
	C608.929260,1093.648682 622.242554,1078.758301 635.373413,1063.708984 
	C636.464050,1062.458984 636.322266,1060.133667 636.753113,1058.307983 
	C635.106018,1058.975342 633.032104,1059.223389 631.889099,1060.386108 
	C627.925720,1064.418091 624.285828,1068.767822 620.033447,1073.509399 
M561.427307,1147.075562 
	C566.984497,1140.824219 572.541748,1134.572754 578.249756,1128.151733 
	C576.790161,1126.955566 575.657776,1126.027588 574.371460,1124.973389 
	C567.727234,1132.497437 561.108276,1139.992676 554.560425,1147.407471 
	C556.989441,1150.647461 559.020508,1150.587280 561.427307,1147.075562 
M641.516541,1142.955811 
	C642.154114,1144.471802 642.791687,1145.987915 643.939209,1148.716553 
	C648.739685,1139.173950 652.898926,1131.123535 656.790161,1122.945435 
	C657.399536,1121.664673 656.790955,1119.804565 656.745667,1118.212280 
	C655.464783,1119.213379 653.708740,1119.950806 652.982605,1121.259644 
	C649.136780,1128.191406 645.549805,1135.266968 641.516541,1142.955811 
M628.450500,1179.123413 
	C629.616760,1176.812866 630.783081,1174.502319 631.990662,1172.109985 
	C630.695007,1171.016846 629.591858,1170.086060 628.141357,1168.862183 
	C624.333496,1176.240479 620.640625,1183.395874 616.796204,1190.844849 
	C618.332825,1191.796631 619.625916,1192.597412 621.140442,1193.535522 
	C623.630188,1188.611572 625.862183,1184.197388 628.450500,1179.123413 
z"/>
<path fill="#F2F2F2" opacity="1.000000" stroke="none" 
	d="
M776.878418,1034.954712 
	C776.293945,1035.342041 775.709351,1035.729248 774.684326,1036.458984 
	C772.775391,1037.615479 771.306946,1038.429688 769.838501,1039.243896 
	C767.223206,1039.494263 764.607910,1039.744507 761.180664,1040.072510 
	C763.950684,1037.885376 765.944397,1035.807983 768.355286,1034.497925 
	C776.869690,1029.871094 779.921204,1022.165527 780.788818,1013.203613 
	C781.346985,1007.438049 781.614258,1001.644348 782.036743,995.039734 
	C782.022217,993.144165 781.982849,992.072021 781.943542,990.999939 
	C783.006714,977.056702 781.956177,963.795532 771.786072,952.699768 
	C759.397095,939.183167 742.872314,941.356262 735.232727,957.954224 
	C733.188843,962.394775 731.873657,967.170715 730.036011,972.318970 
	C729.338257,972.318970 727.903076,972.318970 725.793030,972.318970 
	C724.888367,976.764160 723.260864,981.260925 723.235168,985.766785 
	C723.202637,991.503052 724.586914,997.235962 725.097717,1002.993652 
	C725.249573,1004.705566 724.517883,1006.495850 724.191040,1008.250122 
	C722.554871,1007.789795 720.363098,1007.840942 719.382874,1006.776428 
	C715.970642,1003.070801 712.978149,998.978699 709.762817,994.954346 
	C706.917297,1000.818909 706.713806,1007.362366 706.812134,1014.034180 
	C706.841309,1016.012085 705.679688,1018.007507 705.063721,1019.994934 
	C703.497681,1018.511475 701.384949,1017.309509 700.453125,1015.499573 
	C693.724121,1002.430603 688.433411,988.910339 688.805603,973.652100 
	C684.994751,978.588013 683.043213,984.037354 682.948059,990.259949 
	C682.924072,991.832153 681.929565,993.389526 681.381042,994.953674 
	C680.042542,993.912964 678.287170,993.134277 677.438965,991.785278 
	C674.112671,986.495239 671.072510,981.025330 667.642273,975.135071 
	C663.640076,986.940186 657.745117,997.272522 650.066162,1006.694458 
	C648.940491,1008.075806 649.882935,1012.013611 650.996094,1014.192383 
	C655.053284,1022.133118 659.766418,1029.736450 663.906006,1037.637817 
	C672.002930,1053.092285 672.628174,1069.339966 668.565613,1086.023926 
	C667.173950,1091.739380 666.000916,1097.508057 664.718994,1103.292969 
	C670.036804,1104.466431 674.746338,1105.340698 679.363098,1106.564575 
	C685.658020,1108.233398 687.511780,1110.964111 685.823792,1117.146118 
	C683.810730,1124.518433 684.531677,1130.383057 691.811707,1134.576904 
	C696.186157,1137.096924 696.816956,1141.903687 696.859985,1146.462524 
	C696.900208,1150.719238 698.420105,1152.786621 702.694763,1154.313477 
	C705.607788,1155.354126 709.002075,1158.776367 709.661194,1161.701538 
	C711.669800,1170.614624 716.887390,1175.755981 724.974426,1179.240112 
	C730.417236,1181.584961 735.375183,1185.065796 740.516785,1188.095093 
	C743.518433,1189.863525 746.054626,1189.443359 748.648438,1187.117432 
	C753.355042,1182.896851 758.021057,1178.578735 763.096130,1174.832275 
	C772.690186,1167.750122 782.557678,1161.037842 792.337341,1154.208862 
	C792.647644,1153.992188 793.241455,1154.181396 794.555115,1155.279175 
	C782.600403,1164.951050 770.645691,1174.622925 758.100464,1184.772583 
	C761.233582,1186.575562 763.539368,1187.735352 765.670471,1189.156982 
	C776.733276,1196.537476 780.188171,1207.683838 780.739685,1220.167847 
	C780.952759,1224.992676 781.003052,1229.833984 780.882385,1234.661621 
	C780.756409,1239.703003 777.584412,1242.675781 773.491577,1245.109253 
	C743.393250,1263.005249 713.310242,1280.927856 683.303711,1298.976929 
	C679.527710,1301.248291 676.225159,1304.306885 672.652710,1307.039307 
	C671.125977,1302.528687 672.926270,1299.760864 676.575989,1297.497192 
	C696.057190,1285.414185 715.352661,1273.026855 734.963013,1261.158691 
	C746.868530,1253.953613 759.223633,1247.490845 771.385010,1240.709351 
	C774.333740,1239.065186 776.303162,1236.960449 776.074524,1233.224243 
	C775.638611,1226.099854 775.614563,1218.946167 775.034363,1211.836060 
	C774.403198,1204.102295 770.174500,1198.265015 764.384399,1193.375000 
	C761.975464,1191.340576 759.766235,1189.069702 757.035950,1186.501831 
	C754.739441,1188.199097 752.205322,1189.972778 749.782959,1191.887817 
	C746.888794,1194.175781 743.794739,1194.794312 740.515686,1193.022339 
	C731.774597,1188.299194 722.625244,1184.128052 714.575073,1178.416870 
	C710.644165,1175.628174 708.152039,1170.162354 706.215820,1165.415894 
	C704.653320,1161.585571 703.437317,1158.726685 698.882324,1157.902222 
	C693.720581,1156.968140 692.036011,1152.626953 692.156189,1148.096313 
	C692.306030,1142.449585 690.125549,1138.781128 685.457642,1135.749878 
	C678.940796,1131.518066 678.934448,1124.849365 680.707581,1118.323608 
	C681.992126,1113.596069 681.468567,1111.099976 676.015686,1110.778320 
	C673.075378,1110.604858 670.205566,1109.464844 667.262817,1109.058594 
	C660.940735,1108.185669 658.914307,1105.453369 660.307800,1099.131226 
	C661.911377,1091.855591 663.889954,1084.649780 665.181335,1077.321167 
	C667.235352,1065.664429 666.714050,1054.089844 661.251099,1043.343140 
	C656.307434,1033.618164 650.812256,1024.172729 645.513733,1014.629883 
	C645.088501,1013.864075 644.325684,1012.755554 643.679016,1012.726929 
	C638.599792,1012.502319 639.517883,1010.343018 641.744690,1007.464355 
	C642.750732,1006.164001 643.546814,1004.680603 644.301270,1003.210022 
	C646.567383,998.792847 648.358704,994.524292 643.149231,990.590759 
	C641.563416,989.393311 640.814392,987.087646 639.000183,984.206543 
	C638.497559,987.175293 638.325928,989.188416 637.770081,991.089172 
	C637.448181,992.190369 636.625854,993.788696 635.814026,993.930054 
	C634.924194,994.084961 633.382996,993.065125 632.820984,992.136475 
	C627.461365,983.279236 625.257507,973.817688 628.024536,962.895447 
	C625.083008,963.277039 622.378601,963.879944 619.673340,963.884033 
	C618.053101,963.886475 616.431458,962.952393 614.810486,962.439209 
	C615.403137,960.884033 615.621033,958.991821 616.659302,957.837463 
	C619.662476,954.498291 622.961548,951.420471 626.206299,948.304443 
	C633.140259,941.645874 634.811707,933.788269 632.217468,924.620667 
	C630.246948,917.657349 628.806763,910.544006 627.080750,903.287720 
	C623.361816,905.233276 621.847534,909.288757 620.324158,913.461731 
	C619.837280,914.795410 618.457520,915.803101 617.486328,916.959900 
	C616.622253,915.572144 614.984924,914.163025 615.022644,912.800232 
	C615.228821,905.351807 615.033142,897.748291 616.513672,890.512817 
	C618.726868,879.696838 623.581360,874.966309 636.864136,866.822388 
	C633.507507,857.853638 630.202820,849.155457 627.049988,840.402588 
	C626.722473,839.493286 626.929382,837.777222 627.550232,837.304016 
	C628.247253,836.772766 629.903381,836.840454 630.787842,837.312073 
	C647.538391,846.243042 661.502747,838.790344 675.144714,829.768127 
	C676.136841,829.111938 676.792969,827.406372 676.949158,826.109680 
	C678.954895,809.454407 687.767761,798.266235 703.608093,792.731812 
	C708.606384,790.985474 713.988281,790.106628 718.687439,787.798462 
	C723.504150,785.432312 727.679504,781.771729 732.179626,778.743042 
	C733.565247,777.810547 735.095459,777.093018 736.559570,776.277100 
	C736.922668,777.933350 737.332031,779.581482 737.624634,781.250183 
	C737.732178,781.863525 737.563721,782.525330 737.523987,783.122620 
	C737.997009,783.293396 738.482788,783.569031 738.559631,783.482300 
	C746.418091,774.615540 757.097168,772.448792 768.083862,770.977600 
	C786.439697,768.519775 802.594971,761.832886 814.751221,747.131104 
	C819.233459,741.710266 822.968750,742.380432 824.920105,749.134460 
	C826.276672,753.829956 826.416870,758.876892 827.082764,764.421509 
	C827.490601,765.165161 827.916260,765.254150 828.341919,765.343201 
	C842.075256,758.054321 855.261902,759.705750 867.980408,767.881226 
	C873.847412,771.652588 879.659729,775.517517 885.356445,779.538940 
	C886.643738,780.447693 887.346619,782.184387 888.318481,783.539917 
	C886.864685,784.037781 885.431641,784.613403 883.950623,785.009399 
	C882.733276,785.334900 881.458923,785.447083 880.209839,785.653809 
	C879.976379,786.143250 879.742920,786.632751 879.509399,787.122253 
	C882.485229,789.130493 885.236206,791.660583 888.475891,793.056274 
	C902.159058,798.950745 916.654602,800.566284 931.415466,800.401123 
	C932.579834,800.388000 933.741821,800.208252 934.906616,800.181458 
	C938.110901,800.107788 939.427979,801.450989 938.811401,804.820984 
	C937.152344,813.887451 937.022705,823.488342 928.463928,829.953552 
	C949.960144,838.332947 956.221985,856.094299 959.901428,875.607422 
	C960.077026,876.538635 960.220032,877.570129 960.718628,878.332092 
	C968.077637,889.577393 969.342102,902.502686 970.959229,915.321655 
	C971.437561,919.113647 971.885681,922.934509 971.920593,926.746094 
	C971.936462,928.473816 970.910034,930.211121 970.356445,931.944092 
	C968.996582,930.955811 967.550720,930.065430 966.292664,928.961182 
	C962.131775,925.309204 958.038574,921.580078 953.947998,917.906128 
	C952.916443,919.033630 952.541382,919.250549 952.534302,919.478821 
	C952.032166,935.783142 951.695312,952.070374 957.729370,967.674316 
	C960.937866,975.971497 966.159424,982.303894 974.769409,985.398315 
	C975.391602,985.621948 976.155945,985.776550 976.558289,986.227356 
	C978.122864,987.980469 980.965088,990.071777 980.711365,991.602966 
	C980.378479,993.611877 977.847351,996.222046 975.772461,996.791748 
	C970.052856,998.362000 964.093628,999.108032 958.197510,999.961121 
	C955.952148,1000.286011 953.620361,1000.014038 951.489502,1000.014038 
	C950.978088,1006.594788 950.776489,1012.699768 949.956299,1018.720520 
	C949.191101,1024.336914 946.526794,1029.164673 941.640564,1032.347534 
	C933.454773,1037.679688 930.735596,1045.747314 930.044861,1054.875122 
	C928.751343,1071.970215 931.736877,1088.612549 935.305420,1105.208984 
	C935.676208,1106.933350 935.019165,1108.878662 934.839111,1110.721436 
	C932.969116,1110.417725 930.613953,1110.726807 929.316589,1109.699707 
	C924.703857,1106.047974 920.451599,1101.940918 916.146118,1098.081055 
	C914.774170,1105.291748 918.352722,1112.223877 921.158386,1118.923096 
	C938.008850,1159.156738 957.626587,1197.921997 984.050842,1232.889526 
	C992.378296,1243.909424 1000.984009,1254.719360 1009.280640,1265.761963 
	C1028.881836,1291.850464 1036.642090,1321.351074 1035.473877,1353.795532 
	C1034.589600,1378.358154 1030.433716,1402.394287 1026.565918,1426.555908 
	C1021.601074,1457.571045 1010.469055,1486.671631 999.622314,1515.800659 
	C989.883911,1541.953003 984.066040,1568.793701 980.010010,1596.292725 
	C974.827209,1631.430786 968.070435,1666.335815 962.825989,1701.465942 
	C958.801514,1728.423462 955.738647,1755.538818 952.858276,1782.648804 
	C950.271484,1806.996094 952.284912,1831.179688 958.133850,1854.955078 
	C959.713318,1861.375610 962.673767,1867.448975 964.412781,1873.841431 
	C965.073059,1876.268677 965.028687,1879.818848 963.688171,1881.712158 
	C952.832031,1897.046997 941.962402,1912.399536 930.397522,1927.200073 
	C896.408203,1970.699219 852.391052,1998.521362 798.091003,2008.994263 
	C771.872375,2014.051025 745.385498,2017.869629 718.901611,2021.345337 
	C700.773071,2023.724365 683.084412,2020.948486 666.767639,2011.992920 
	C664.751465,2010.886353 662.774658,2009.544067 661.157959,2007.931519 
	C660.086792,2006.863281 659.690613,2005.118286 658.992249,2003.676392 
	C660.510986,2002.992065 662.029663,2002.307617 662.420776,2002.131348 
	C664.166138,2003.984497 664.886292,2005.160889 665.934143,2005.800049 
	C681.406006,2015.236694 698.564453,2018.908691 716.134521,2016.501221 
	C747.851318,2012.155029 779.749390,2007.941162 810.851318,2000.613892 
	C845.896667,1992.357422 876.507507,1974.568848 903.107788,1949.680176 
	C921.602722,1932.375366 934.865234,1911.265381 949.774536,1891.298584 
	C951.962463,1888.368286 953.909607,1885.139526 956.571167,1882.709351 
	C960.485779,1879.135254 960.228638,1875.702759 958.311890,1871.214355 
	C950.438965,1852.778320 947.770874,1833.194214 947.056152,1813.397095 
	C945.765869,1777.655762 950.686584,1742.406616 956.474304,1707.257690 
	C963.705566,1663.341797 971.202087,1619.466064 977.942627,1575.474609 
	C981.566895,1551.820923 989.732605,1529.655396 997.405334,1507.226929 
	C1004.852295,1485.458374 1013.042175,1463.776611 1018.203125,1441.432495 
	C1026.202759,1406.798584 1032.022949,1371.700317 1030.220459,1335.763184 
	C1028.901489,1309.469116 1018.757629,1286.838623 1003.504028,1266.096924 
	C992.463196,1251.083740 980.416138,1236.771973 969.982910,1221.358765 
	C948.990662,1190.346802 931.367615,1157.480225 918.867920,1122.031494 
	C918.440369,1120.818848 917.426086,1119.495972 916.320435,1118.889038 
	C906.573547,1113.537720 896.949585,1107.896973 886.890442,1103.195190 
	C871.730530,1096.109375 863.845520,1083.936035 860.005798,1068.258667 
	C857.452148,1057.832642 854.574524,1056.293701 844.478210,1060.036255 
	C840.221008,1061.614258 836.454468,1064.492920 832.408752,1066.676392 
	C830.912109,1067.484131 828.627502,1068.956299 827.810547,1068.423950 
	C826.424988,1067.521484 825.141357,1065.244019 825.193420,1063.588135 
	C825.333496,1059.140991 826.202759,1054.716919 826.848511,1049.619629 
	C826.492981,1048.852905 826.071167,1048.750244 825.649414,1048.647583 
	C818.547058,1051.733398 811.455383,1054.844238 804.332153,1057.881104 
	C803.130676,1058.393433 801.748657,1058.985840 800.527954,1058.848633 
	C797.603210,1058.519897 794.724976,1057.778931 791.827942,1057.204224 
	C793.007812,1054.753906 794.187683,1052.303467 795.773071,1049.339600 
	C797.428284,1046.550659 798.678040,1044.275269 799.927734,1041.999756 
	C801.276794,1037.594604 802.625793,1033.189453 803.995667,1028.037109 
	C804.016479,1026.203857 804.016479,1025.117798 804.016479,1023.075623 
	C802.829834,1024.511475 802.269470,1025.189453 801.708984,1025.867554 
	C799.897949,1027.283936 798.086914,1028.700439 795.714355,1030.491455 
	C792.509705,1031.391357 789.374634,1033.023682 787.362488,1032.129272 
	C785.371582,1031.244263 784.514160,1027.809204 783.362000,1025.838867 
	C781.405090,1028.590210 779.141785,1031.772461 776.878418,1034.954712 
M633.679504,911.585510 
	C634.690369,915.260437 635.661072,918.947021 636.719543,922.608215 
	C640.075378,934.216431 637.822571,944.332520 628.725952,952.591736 
	C626.981934,954.175171 625.021912,955.520691 623.161560,956.975952 
	C623.591614,957.518127 624.021729,958.060303 624.451843,958.602478 
	C626.936768,957.825073 629.387695,956.892822 631.921021,956.335327 
	C633.192139,956.055664 634.613403,956.458313 635.966736,956.552368 
	C635.716187,957.760742 635.811401,959.211914 635.160461,960.139160 
	C629.875122,967.667480 631.435242,975.373108 633.878662,983.808105 
	C634.846741,982.762573 635.206177,982.129700 635.749390,981.832275 
	C637.552612,980.844604 639.907410,978.823486 641.148010,979.345215 
	C642.851868,980.061707 643.959778,982.631897 644.891418,984.611084 
	C645.646790,986.215881 645.765625,988.120361 646.166809,989.891968 
	C647.288635,980.945374 647.288635,980.945374 650.998901,981.703735 
	C651.445312,985.983276 651.897888,990.321106 652.418701,995.313904 
	C658.679077,986.422791 662.407043,977.179077 664.758240,967.287659 
	C665.092773,965.880310 666.297119,964.679749 667.098877,963.383484 
	C668.149780,964.645447 669.535217,965.754761 670.192566,967.196228 
	C672.779602,972.869446 675.137573,978.647095 677.594971,984.419861 
	C680.900879,978.338135 683.585388,972.746338 686.943909,967.593872 
	C688.041260,965.910400 690.892761,965.370361 692.942017,964.307373 
	C693.419739,966.417236 694.521118,968.603394 694.273743,970.624451 
	C692.700623,983.477600 695.886353,995.261169 701.207458,1006.120361 
	C703.290405,1000.114441 705.292297,993.832153 707.729980,987.723816 
	C708.247559,986.426941 710.354431,985.764282 711.729004,984.809387 
	C712.522156,986.107117 713.502808,987.328491 714.068359,988.718750 
	C715.161194,991.405212 716.019897,994.186951 717.039246,997.111633 
	C718.490234,988.184082 719.672791,979.988892 721.243896,971.868835 
	C721.651367,969.763184 722.846313,967.210144 724.501099,966.171143 
	C725.489746,965.550354 728.074524,967.471558 730.060852,968.299683 
	C730.060852,966.188965 729.836121,963.995850 730.099609,961.862976 
	C731.265259,952.428101 735.964844,945.282959 744.634705,941.222900 
	C753.021973,937.295227 761.333069,938.093933 768.692017,943.649658 
	C778.352661,950.942993 784.705627,960.482605 786.158936,972.787842 
	C788.068115,988.953491 786.947571,1005.021362 784.434998,1021.036743 
	C784.375488,1021.416199 784.692993,1021.854736 784.984009,1022.699158 
	C785.955139,1021.670105 786.699341,1020.881470 787.613831,1019.912415 
	C788.352966,1022.906311 788.953308,1025.338135 789.830627,1028.891846 
	C793.405823,1025.893677 796.140381,1023.275024 799.211731,1021.141296 
	C801.208862,1019.753906 803.696716,1019.072937 805.964722,1018.075500 
	C806.981689,1020.391235 808.758667,1022.667847 808.880310,1025.029663 
	C809.338135,1033.917847 806.261292,1041.940308 801.744629,1049.468872 
	C801.060059,1050.609863 800.456970,1051.799683 799.816223,1052.966919 
	C800.161499,1053.390381 800.506775,1053.813721 800.851990,1054.237183 
	C808.624207,1050.752563 816.352478,1047.163940 824.199280,1043.856323 
	C826.168762,1043.026245 829.687927,1042.101562 830.434937,1042.977417 
	C831.736145,1044.502808 831.874207,1047.426147 831.708435,1049.705933 
	C831.432800,1053.496704 830.531250,1057.242065 829.922241,1060.835815 
	C835.645081,1058.532715 840.706909,1056.046997 846.034973,1054.449097 
	C855.753723,1051.534424 861.299011,1054.830811 864.081909,1064.473999 
	C864.954163,1067.496338 865.975281,1070.476685 866.804993,1073.510010 
	C869.793274,1084.435425 876.491394,1092.218506 886.522644,1097.353149 
	C894.503723,1101.438354 902.374878,1105.738159 910.305542,1109.922485 
	C910.758667,1110.161499 911.308777,1110.216675 912.241394,1110.476685 
	C911.955261,1109.202271 911.793762,1108.578125 911.676392,1107.945801 
	C910.111084,1099.512695 908.318115,1091.111328 907.124084,1082.625732 
	C906.730408,1079.828613 907.292358,1075.839722 911.090820,1075.783203 
	C912.589050,1075.760620 914.483521,1079.115356 915.602417,1081.245117 
	C918.885498,1087.493652 921.769226,1093.952148 925.052429,1100.200684 
	C925.742798,1101.514404 927.470764,1102.282959 929.721619,1104.119385 
	C929.436829,1101.943481 929.384521,1101.326782 929.272644,1100.721069 
	C926.549866,1085.982910 924.009338,1071.216553 925.048889,1056.135254 
	C925.819702,1044.953247 928.964600,1035.051636 938.961304,1028.208496 
	C941.698181,1026.334961 944.069031,1022.611023 944.753235,1019.347351 
	C945.929688,1013.735779 946.013123,1007.809265 945.863831,1002.032776 
	C945.745728,997.465027 947.622070,995.577759 951.844238,995.379211 
	C955.173157,995.222656 958.536987,995.364380 961.826721,994.929810 
	C966.517151,994.310303 971.153992,993.284790 977.037537,992.208923 
	C975.032104,990.996033 974.381226,990.429626 973.625000,990.170898 
	C960.583130,985.709106 954.503479,975.400146 951.041809,963.041992 
	C946.848267,948.071106 947.873413,932.703796 948.083618,917.430298 
	C948.137878,913.490601 950.666077,912.057861 954.152100,913.968140 
	C958.452271,916.324707 962.451172,919.231140 967.001831,922.172363 
	C965.736938,910.040710 964.790222,898.203430 960.199036,887.034241 
	C957.995728,881.674194 954.329163,877.306274 954.205200,870.599548 
	C954.093201,864.544434 950.441101,858.361206 947.614929,852.594910 
	C943.291382,843.773560 936.827209,837.166626 926.715576,834.816162 
	C922.138916,833.752319 921.350342,830.952332 924.885437,827.674194 
	C931.502991,821.537476 933.467163,813.836670 933.662109,805.753784 
	C924.356750,804.843689 915.055542,804.330200 905.890564,802.927368 
	C896.533020,801.494995 887.191589,799.406494 879.547302,793.209961 
	C873.769226,788.526184 873.724792,785.552612 879.131531,780.236633 
	C874.287598,777.207886 869.517395,774.186646 864.709595,771.226379 
	C851.406250,763.035095 838.460693,763.016479 825.812744,772.774048 
	C824.633606,773.683838 822.662109,773.566650 821.058472,773.926270 
	C821.048523,772.406738 820.606079,770.726440 821.100952,769.394531 
	C823.693481,762.416992 822.669434,755.778198 819.933167,749.016357 
	C815.621460,753.082397 811.796875,757.285583 807.383728,760.736084 
	C795.384155,770.117920 781.281799,774.124573 766.406250,776.015442 
	C756.323975,777.296936 746.760986,779.693237 740.502136,788.891174 
	C739.072021,790.992859 736.894348,792.585876 735.060669,794.412964 
	C734.291809,791.880737 733.530212,789.346313 732.743530,786.819580 
	C732.657593,786.543701 732.427368,786.312683 732.737915,786.791626 
	C725.053406,789.707153 717.735046,793.218628 710.026062,795.241028 
	C697.598633,798.501282 688.502258,805.312439 683.014160,816.901733 
	C680.776978,821.626221 679.210693,826.774658 676.354980,831.076965 
	C671.020142,839.114075 662.685852,843.356323 653.499634,844.861877 
	C647.002380,845.926758 640.189880,845.068115 633.634399,845.068115 
	C636.135010,856.186157 636.980469,857.496521 645.124329,864.161011 
	C647.817383,866.364807 646.695862,868.037476 644.006653,869.339661 
	C639.834106,871.360168 635.437988,873.084290 631.634033,875.666809 
	C623.421631,881.242188 618.234497,894.179810 620.339783,901.978455 
	C623.435364,900.014160 626.511719,897.806519 629.843628,896.096802 
	C630.903442,895.552979 633.052979,895.872437 633.937378,896.658875 
	C634.605957,897.253357 634.118469,899.222656 634.035217,900.573242 
	C633.824402,903.989746 633.551453,907.402527 633.679504,911.585510 
M718.289490,998.695801 
	C718.272705,998.106445 718.255920,997.517151 718.239136,996.927795 
	C718.113281,997.298767 717.987427,997.669739 718.289490,998.695801 
M929.446777,1103.980713 
	C929.522217,1103.739502 929.597656,1103.498413 929.673096,1103.257202 
	C929.443420,1103.338501 929.213745,1103.419800 929.446777,1103.980713 
M799.019897,1053.442993 
	C799.260437,1053.517944 799.500916,1053.592896 799.741394,1053.667847 
	C799.660278,1053.439453 799.579163,1053.211060 799.019897,1053.442993 
z"/>
<path fill="#F2F2F2" opacity="1.000000" stroke="none" 
	d="
M409.714447,1424.474121 
	C408.313812,1424.501587 406.824432,1424.853027 405.528442,1424.498413 
	C400.892700,1423.229126 396.206299,1422.004028 391.774628,1420.187500 
	C389.423340,1419.223755 386.443176,1417.400757 385.847168,1415.354126 
	C385.419952,1413.887207 388.419647,1411.359741 390.012695,1409.405029 
	C390.491425,1408.817627 391.380981,1408.564941 392.321594,1408.020630 
	C388.761139,1401.774902 385.190674,1395.677856 381.781403,1389.491943 
	C376.817810,1380.485352 379.471863,1372.321655 388.797058,1368.249390 
	C401.561707,1362.675049 414.472565,1357.675293 428.458679,1355.721802 
	C433.607819,1355.002563 436.761658,1356.615845 439.444366,1360.419678 
	C441.454041,1363.269043 443.374359,1366.181641 445.445404,1369.229370 
	C446.179260,1368.900757 446.882812,1368.785156 447.287201,1368.374634 
	C453.038147,1362.537109 455.437195,1362.219238 461.002014,1368.362549 
	C468.390564,1376.519165 477.332458,1381.859131 487.655212,1385.178345 
	C493.823639,1387.161865 498.329224,1390.827148 500.985443,1396.957031 
	C502.884613,1401.339722 505.263153,1405.572266 507.883789,1409.573120 
	C514.215454,1419.239990 521.933289,1426.296509 534.221924,1428.846924 
	C551.376343,1432.407593 568.328857,1436.274536 585.978638,1434.902100 
	C592.949890,1434.359863 599.891785,1433.437012 606.863770,1432.907349 
	C619.948730,1431.913330 633.045837,1431.079102 647.105469,1430.111938 
	C647.588562,1426.063843 648.634766,1420.893921 648.754761,1415.702515 
	C649.489075,1383.930664 656.285156,1353.038574 662.119324,1322.007202 
	C662.359192,1320.731323 663.414246,1319.500122 664.353394,1318.494507 
	C665.329041,1317.449829 666.625549,1316.704590 667.866943,1315.763916 
	C667.650085,1315.613770 667.763428,1315.684082 667.759705,1315.690918 
	C667.691467,1315.816895 667.557617,1315.927246 667.537292,1316.056519 
	C665.979919,1325.981445 665.073853,1336.061157 662.750793,1345.802979 
	C657.627869,1367.286377 655.739380,1389.134521 654.041687,1411.038940 
	C653.591431,1416.847656 653.155884,1422.658203 652.630432,1428.460327 
	C650.773804,1448.963867 648.379639,1469.433960 647.141602,1489.974243 
	C645.879272,1510.918457 645.951172,1531.939209 645.061462,1552.910522 
	C643.614807,1587.010864 643.340820,1621.266846 636.757996,1654.897705 
	C627.975281,1699.767334 615.088074,1743.345459 594.698181,1784.551636 
	C582.774536,1808.648193 572.220459,1833.509644 566.721252,1859.919922 
	C562.060303,1882.304321 558.655212,1904.940796 557.692749,1927.968628 
	C557.236938,1938.876465 553.475769,1949.739990 550.494629,1960.423462 
	C547.207947,1972.202148 543.098206,1983.751343 539.080627,1996.227661 
	C552.027039,2002.486450 564.600586,2011.107178 580.269409,2012.036499 
	C603.743591,2013.428833 626.207031,2008.931030 647.884827,2000.145508 
	C649.398499,1999.531982 651.140503,1998.182129 651.717529,1996.748535 
	C664.197144,1965.747559 681.834473,1937.736084 700.389954,1910.097656 
	C713.607117,1890.411011 728.345215,1871.694214 739.179810,1850.375366 
	C742.967285,1842.922729 748.943787,1836.538574 754.201233,1829.888428 
	C761.121033,1821.135864 764.227173,1811.222900 765.973511,1800.237549 
	C770.281494,1773.138916 778.521790,1747.085571 789.389343,1721.883057 
	C798.835876,1699.975952 809.074890,1678.368774 817.469543,1656.066650 
	C821.907166,1644.277588 823.363831,1631.329224 825.801819,1618.833252 
	C829.838623,1598.142090 833.693604,1577.413696 837.417358,1556.663696 
	C841.575806,1533.492188 845.708496,1510.312134 849.412903,1487.065674 
	C850.630432,1479.425415 850.477112,1471.566895 850.955200,1463.731689 
	C855.143250,1464.226318 856.201477,1467.456787 855.613892,1471.704346 
	C852.927124,1491.125854 850.692017,1510.626221 847.379944,1529.941284 
	C841.239258,1565.751953 834.418335,1601.445557 827.971680,1637.204346 
	C825.834167,1649.061035 821.205933,1659.941284 816.328796,1670.888428 
	C799.207642,1709.319092 782.148743,1747.814697 772.659058,1789.069702 
	C771.362549,1794.705811 770.518372,1800.473145 769.868958,1806.225342 
	C768.558167,1817.836548 762.095459,1826.809814 755.628235,1835.960327 
	C748.850830,1845.549561 742.700256,1855.579834 736.195679,1865.364258 
	C724.880493,1882.385620 713.760437,1899.544312 702.093994,1916.322510 
	C683.835876,1942.580566 667.694580,1969.953613 655.798706,1999.728271 
	C655.139038,2001.379395 653.503235,2003.159424 651.886230,2003.831421 
	C627.619995,2013.917603 602.388672,2019.532104 576.091980,2016.724854 
	C561.210327,2015.136230 548.340576,2007.146729 535.564819,1999.727905 
	C532.475098,1997.933716 533.245483,1995.143311 534.168396,1992.222656 
	C539.999878,1973.768066 545.774353,1955.294189 551.348206,1936.760620 
	C552.387817,1933.304077 552.514282,1929.557617 552.924683,1925.929565 
	C554.808472,1909.277344 556.398010,1892.587769 558.546692,1875.970337 
	C563.079041,1840.916870 577.203003,1809.008667 592.324341,1777.642700 
	C609.290771,1742.449341 620.240051,1705.429443 629.054321,1667.576782 
	C635.731445,1638.901855 637.411682,1609.717407 638.859924,1580.495605 
	C639.758911,1562.356567 640.072021,1544.188599 640.938232,1526.047485 
	C641.166016,1521.277710 640.441162,1518.318726 635.266174,1516.519043 
	C617.012512,1510.170532 599.044434,1502.993042 580.745056,1496.787598 
	C572.624207,1494.033813 563.830505,1493.308838 555.608215,1490.793579 
	C550.166321,1489.128662 544.553955,1486.724121 540.160950,1483.218384 
	C532.827271,1477.365479 525.408081,1476.311279 516.475525,1478.252441 
	C497.887299,1482.291626 479.346130,1486.794312 460.237640,1487.909912 
	C448.947571,1488.568970 438.066101,1486.452881 427.448700,1482.958618 
	C422.393585,1481.294922 418.820587,1478.130371 419.601196,1471.898682 
	C419.728882,1470.879272 418.310211,1469.491333 417.345184,1468.537964 
	C410.447968,1461.724121 408.482513,1457.418579 409.510010,1451.910645 
	C406.517456,1448.593628 403.520325,1445.780396 401.134460,1442.519897 
	C396.327576,1435.951294 398.152100,1430.127319 405.631897,1427.046509 
	C407.235077,1426.386230 408.807159,1425.650513 410.169006,1425.218018 
	C416.894257,1425.001953 423.839661,1424.218140 430.795135,1424.115112 
	C437.992096,1424.008423 440.678223,1427.878784 438.812653,1434.881470 
	C438.362976,1436.569336 437.597565,1438.173096 436.955292,1439.874023 
	C448.914825,1441.336426 450.689209,1445.707642 444.021698,1456.672607 
	C448.235596,1458.707275 449.524841,1462.228882 448.778900,1466.578247 
	C447.847351,1472.010132 450.930817,1475.520996 456.328339,1474.447510 
	C467.607025,1472.204468 477.331268,1466.567017 486.638733,1460.056396 
	C490.682831,1457.227905 491.022400,1454.265625 488.500610,1450.065674 
	C473.992249,1425.902588 459.702576,1401.608521 445.232941,1377.422119 
	C442.422607,1372.724609 439.367737,1368.130127 435.970917,1363.848877 
	C434.650146,1362.184082 431.952271,1360.380981 430.084625,1360.576904 
	C415.926514,1362.061035 402.664856,1366.784424 389.857391,1372.832642 
	C384.102753,1375.550171 382.028564,1380.995850 385.233246,1386.400024 
	C390.894806,1395.947510 396.973328,1405.249512 402.950836,1414.607178 
	C405.096283,1417.965820 407.453735,1421.189087 409.714447,1424.474121 
M596.470947,1496.035767 
	C611.332764,1501.878418 626.194580,1507.721069 640.368530,1513.293335 
	C642.212769,1488.452637 644.149414,1462.368042 646.174866,1435.086548 
	C633.268188,1435.894531 620.315918,1436.322632 607.448792,1437.604980 
	C590.357666,1439.308228 573.300110,1441.421509 556.234009,1437.967041 
	C547.948486,1436.289917 539.881104,1432.912231 531.555847,1432.221069 
	C522.359985,1431.457764 515.695312,1427.225098 510.471558,1420.634277 
	C505.560242,1414.437866 501.262390,1407.610474 497.659515,1400.567017 
	C494.725891,1394.832031 490.920227,1391.024658 484.828094,1389.073120 
	C474.497192,1385.763794 465.556580,1380.210693 458.385834,1371.923950 
	C457.058319,1370.389893 455.233887,1369.285645 454.167114,1368.414551 
	C451.903503,1370.325562 450.128601,1371.824097 448.318176,1373.352661 
	C449.033997,1374.555664 449.698029,1375.681274 450.371216,1376.801514 
	C464.307434,1399.991455 478.292511,1423.152222 492.158905,1446.383911 
	C497.923187,1456.041138 497.667694,1459.231079 488.042725,1465.214600 
	C479.522278,1470.511353 470.195160,1474.672974 460.858490,1478.426025 
	C456.155792,1480.316406 450.679718,1480.187256 446.531494,1475.718750 
	C445.938293,1475.079834 444.647919,1475.059570 443.664032,1474.819092 
	C442.520935,1474.539551 441.360016,1474.332764 440.206879,1474.094604 
	C440.646973,1472.928833 441.057251,1471.750732 441.533234,1470.599731 
	C442.641418,1467.920410 443.781311,1465.254028 444.908386,1462.582397 
	C444.356781,1462.166748 443.805176,1461.751221 443.253571,1461.335693 
	C438.416229,1464.090088 433.502167,1466.721436 428.780518,1469.661743 
	C426.973907,1470.786621 425.607452,1472.618408 424.040527,1474.128174 
	C425.978394,1475.760254 427.857635,1477.471069 429.884613,1478.983765 
	C430.633026,1479.542358 431.716797,1479.682861 432.668945,1479.932617 
	C450.221680,1484.535889 467.751587,1483.488403 485.288574,1479.776611 
	C490.306885,1478.714478 495.385895,1477.942139 500.417908,1476.940552 
	C506.096985,1475.810181 512.720703,1476.015991 517.186829,1473.028931 
	C523.344238,1468.910889 527.991821,1470.332886 533.236267,1473.249878 
	C536.421448,1475.021606 539.351990,1477.256348 542.558105,1478.984009 
	C547.168884,1481.468750 551.709961,1484.428345 556.663635,1485.864258 
	C569.557861,1489.601929 582.660645,1492.620361 596.470947,1496.035767 
M441.013214,1445.039673 
	C433.745758,1446.362671 426.314484,1447.123291 419.260315,1449.178467 
	C413.106995,1450.971069 412.321228,1454.584595 415.965942,1459.772461 
	C417.943420,1462.587280 420.288361,1465.143921 422.575958,1467.949951 
	C425.620575,1466.152222 428.232941,1464.370850 431.045227,1462.999268 
	C436.835266,1460.175415 442.359955,1457.222656 442.423920,1449.622070 
	C442.436310,1448.151978 442.066711,1446.678833 441.013214,1445.039673 
M405.778381,1441.621704 
	C407.570282,1443.985352 409.362213,1446.349121 410.610474,1447.995728 
	C415.737885,1446.097900 420.199615,1443.706543 424.933868,1442.884033 
	C430.670380,1441.887451 433.030090,1438.992920 434.333618,1433.585449 
	C435.293335,1429.604248 433.911377,1428.514038 430.710785,1428.684082 
	C423.597595,1429.062134 416.397827,1429.207031 409.428070,1430.498169 
	C402.336487,1431.811768 401.516754,1434.769043 405.778381,1441.621704 
M390.568237,1414.621582 
	C393.480988,1415.841431 396.393738,1417.061157 399.306488,1418.281006 
	C399.463501,1418.018921 399.620514,1417.756836 399.777527,1417.494751 
	C398.251770,1415.485962 396.726013,1413.477051 395.025116,1411.237549 
	C393.457123,1412.326294 392.266327,1413.153076 390.568237,1414.621582 
z"/>
<path fill="#F1F1F1" opacity="1.000000" stroke="none" 
	d="
M620.278137,1073.252930 
	C624.285828,1068.767822 627.925720,1064.418091 631.889099,1060.386108 
	C633.032104,1059.223389 635.106018,1058.975342 636.753113,1058.307983 
	C636.322266,1060.133667 636.464050,1062.458984 635.373413,1063.708984 
	C622.242554,1078.758301 608.929260,1093.648682 595.427368,1108.846313 
	C594.160950,1107.938232 592.911133,1107.042114 591.324768,1105.904541 
	C601.101013,1094.872925 610.567200,1084.191162 620.278137,1073.252930 
z"/>
<path fill="#F2F2F2" opacity="1.000000" stroke="none" 
	d="
M561.196655,1147.357910 
	C559.020508,1150.587280 556.989441,1150.647461 554.560425,1147.407471 
	C561.108276,1139.992676 567.727234,1132.497437 574.371460,1124.973389 
	C575.657776,1126.027588 576.790161,1126.955566 578.249756,1128.151733 
	C572.541748,1134.572754 566.984497,1140.824219 561.196655,1147.357910 
z"/>
<path fill="#EDEDED" opacity="1.000000" stroke="none" 
	d="
M641.694885,1142.624268 
	C645.549805,1135.266968 649.136780,1128.191406 652.982605,1121.259644 
	C653.708740,1119.950806 655.464783,1119.213379 656.745667,1118.212280 
	C656.790955,1119.804565 657.399536,1121.664673 656.790161,1122.945435 
	C652.898926,1131.123535 648.739685,1139.173950 643.939209,1148.716553 
	C642.791687,1145.987915 642.154114,1144.471802 641.694885,1142.624268 
z"/>
<path fill="#F3F3F3" opacity="1.000000" stroke="none" 
	d="
M628.272339,1179.453247 
	C625.862183,1184.197388 623.630188,1188.611572 621.140442,1193.535522 
	C619.625916,1192.597412 618.332825,1191.796631 616.796204,1190.844849 
	C620.640625,1183.395874 624.333496,1176.240479 628.141357,1168.862183 
	C629.591858,1170.086060 630.695007,1171.016846 631.990662,1172.109985 
	C630.783081,1174.502319 629.616760,1176.812866 628.272339,1179.453247 
z"/>
<path fill="#010101" opacity="1.000000" stroke="none" 
	d="
M777.300415,1034.977417 
	C779.141785,1031.772461 781.405090,1028.590210 783.362000,1025.838867 
	C784.514160,1027.809204 785.371582,1031.244263 787.362488,1032.129272 
	C789.374634,1033.023682 792.509705,1031.391357 795.512817,1030.758789 
	C794.960327,1032.084473 794.147705,1034.666260 793.118774,1034.755371 
	C788.017944,1035.198120 782.860168,1034.983276 777.300415,1034.977417 
z"/>
<path fill="#010101" opacity="1.000000" stroke="none" 
	d="
M799.536011,1042.000854 
	C798.678040,1044.275269 797.428284,1046.550659 795.925781,1049.016113 
	C793.345032,1045.484985 794.556152,1042.971436 799.536011,1042.000854 
z"/>
<path fill="#010101" opacity="1.000000" stroke="none" 
	d="
M769.968384,1039.580078 
	C771.306946,1038.429688 772.775391,1037.615479 774.548096,1036.691284 
	C774.662903,1039.682007 773.261719,1041.055054 769.968384,1039.580078 
z"/>
<path fill="#010101" opacity="1.000000" stroke="none" 
	d="
M781.609558,991.067871 
	C781.982849,992.072021 782.022217,993.144165 781.961792,994.608276 
	C781.666565,993.712219 781.471069,992.424011 781.609558,991.067871 
z"/>
<path fill="#010101" opacity="1.000000" stroke="none" 
	d="
M801.825928,1026.256104 
	C802.269470,1025.189453 802.829834,1024.511475 804.016479,1023.075623 
	C804.016479,1025.117798 804.016479,1026.203857 803.923157,1027.645264 
	C803.200806,1027.548706 802.571838,1027.096680 801.825928,1026.256104 
z"/>
<path fill="#010101" opacity="1.000000" stroke="none" 
	d="
M633.491455,911.201172 
	C633.551453,907.402527 633.824402,903.989746 634.035217,900.573242 
	C634.118469,899.222656 634.605957,897.253357 633.937378,896.658875 
	C633.052979,895.872437 630.903442,895.552979 629.843628,896.096802 
	C626.511719,897.806519 623.435364,900.014160 620.339783,901.978455 
	C618.234497,894.179810 623.421631,881.242188 631.634033,875.666809 
	C635.437988,873.084290 639.834106,871.360168 644.006653,869.339661 
	C646.695862,868.037476 647.817383,866.364807 645.124329,864.161011 
	C636.980469,857.496521 636.135010,856.186157 633.634399,845.068115 
	C640.189880,845.068115 647.002380,845.926758 653.499634,844.861877 
	C662.685852,843.356323 671.020142,839.114075 676.354980,831.076965 
	C679.210693,826.774658 680.776978,821.626221 683.014160,816.901733 
	C688.502258,805.312439 697.598633,798.501282 710.026062,795.241028 
	C717.735046,793.218628 725.053406,789.707153 732.737915,786.791626 
	C732.427368,786.312683 732.657593,786.543701 732.743530,786.819580 
	C733.530212,789.346313 734.291809,791.880737 735.060669,794.412964 
	C736.894348,792.585876 739.072021,790.992859 740.502136,788.891174 
	C746.760986,779.693237 756.323975,777.296936 766.406250,776.015442 
	C781.281799,774.124573 795.384155,770.117920 807.383728,760.736084 
	C811.796875,757.285583 815.621460,753.082397 819.933167,749.016357 
	C822.669434,755.778198 823.693481,762.416992 821.100952,769.394531 
	C820.606079,770.726440 821.048523,772.406738 821.058472,773.926270 
	C822.662109,773.566650 824.633606,773.683838 825.812744,772.774048 
	C838.460693,763.016479 851.406250,763.035095 864.709595,771.226379 
	C869.517395,774.186646 874.287598,777.207886 879.131531,780.236633 
	C873.724792,785.552612 873.769226,788.526184 879.547302,793.209961 
	C887.191589,799.406494 896.533020,801.494995 905.890564,802.927368 
	C915.055542,804.330200 924.356750,804.843689 933.662109,805.753784 
	C933.467163,813.836670 931.502991,821.537476 924.885437,827.674194 
	C921.350342,830.952332 922.138916,833.752319 926.715576,834.816162 
	C936.827209,837.166626 943.291382,843.773560 947.614929,852.594910 
	C950.441101,858.361206 954.093201,864.544434 954.205200,870.599548 
	C954.329163,877.306274 957.995728,881.674194 960.199036,887.034241 
	C964.790222,898.203430 965.736938,910.040710 967.001831,922.172363 
	C962.451172,919.231140 958.452271,916.324707 954.152100,913.968140 
	C950.666077,912.057861 948.137878,913.490601 948.083618,917.430298 
	C947.873413,932.703796 946.848267,948.071106 951.041809,963.041992 
	C954.503479,975.400146 960.583130,985.709106 973.625000,990.170898 
	C974.381226,990.429626 975.032104,990.996033 977.037537,992.208923 
	C971.153992,993.284790 966.517151,994.310303 961.826721,994.929810 
	C958.536987,995.364380 955.173157,995.222656 951.844238,995.379211 
	C947.622070,995.577759 945.745728,997.465027 945.863831,1002.032776 
	C946.013123,1007.809265 945.929688,1013.735779 944.753235,1019.347351 
	C944.069031,1022.611023 941.698181,1026.334961 938.961304,1028.208496 
	C928.964600,1035.051636 925.819702,1044.953247 925.048889,1056.135254 
	C924.009338,1071.216553 926.549866,1085.982910 929.272644,1100.721069 
	C929.384521,1101.326782 929.436829,1101.943481 929.721619,1104.119385 
	C927.470764,1102.282959 925.742798,1101.514404 925.052429,1100.200684 
	C921.769226,1093.952148 918.885498,1087.493652 915.602417,1081.245117 
	C914.483521,1079.115356 912.589050,1075.760620 911.090820,1075.783203 
	C907.292358,1075.839722 906.730408,1079.828613 907.124084,1082.625732 
	C908.318115,1091.111328 910.111084,1099.512695 911.676392,1107.945801 
	C911.793762,1108.578125 911.955261,1109.202271 912.241394,1110.476685 
	C911.308777,1110.216675 910.758667,1110.161499 910.305542,1109.922485 
	C902.374878,1105.738159 894.503723,1101.438354 886.522644,1097.353149 
	C876.491394,1092.218506 869.793274,1084.435425 866.804993,1073.510010 
	C865.975281,1070.476685 864.954163,1067.496338 864.081909,1064.473999 
	C861.299011,1054.830811 855.753723,1051.534424 846.034973,1054.449097 
	C840.706909,1056.046997 835.645081,1058.532715 829.922241,1060.835815 
	C830.531250,1057.242065 831.432800,1053.496704 831.708435,1049.705933 
	C831.874207,1047.426147 831.736145,1044.502808 830.434937,1042.977417 
	C829.687927,1042.101562 826.168762,1043.026245 824.199280,1043.856323 
	C816.352478,1047.163940 808.624207,1050.752563 800.851990,1054.237183 
	C800.506775,1053.813721 800.161499,1053.390381 799.816223,1052.966919 
	C800.456970,1051.799683 801.060059,1050.609863 801.744629,1049.468872 
	C806.261292,1041.940308 809.338135,1033.917847 808.880310,1025.029663 
	C808.758667,1022.667847 806.981689,1020.391235 805.964722,1018.075500 
	C803.696716,1019.072937 801.208862,1019.753906 799.211731,1021.141296 
	C796.140381,1023.275024 793.405823,1025.893677 789.830627,1028.891846 
	C788.953308,1025.338135 788.352966,1022.906311 787.613831,1019.912415 
	C786.699341,1020.881470 785.955139,1021.670105 784.984009,1022.699158 
	C784.692993,1021.854736 784.375488,1021.416199 784.434998,1021.036743 
	C786.947571,1005.021362 788.068115,988.953491 786.158936,972.787842 
	C784.705627,960.482605 778.352661,950.942993 768.692017,943.649658 
	C761.333069,938.093933 753.021973,937.295227 744.634705,941.222900 
	C735.964844,945.282959 731.265259,952.428101 730.099609,961.862976 
	C729.836121,963.995850 730.060852,966.188965 730.060852,968.299683 
	C728.074524,967.471558 725.489746,965.550354 724.501099,966.171143 
	C722.846313,967.210144 721.651367,969.763184 721.243896,971.868835 
	C719.672791,979.988892 718.490234,988.184082 717.039246,997.111633 
	C716.019897,994.186951 715.161194,991.405212 714.068359,988.718750 
	C713.502808,987.328491 712.522156,986.107117 711.729065,984.809448 
	C710.354431,985.764282 708.247559,986.426941 707.729980,987.723816 
	C705.292297,993.832153 703.290405,1000.114441 701.207458,1006.120361 
	C695.886353,995.261169 692.700623,983.477600 694.273743,970.624451 
	C694.521118,968.603394 693.419739,966.417236 692.942017,964.307373 
	C690.892761,965.370361 688.041260,965.910400 686.943909,967.593872 
	C683.585388,972.746338 680.900879,978.338135 677.594971,984.419861 
	C675.137573,978.647095 672.779602,972.869446 670.192566,967.196228 
	C669.535217,965.754761 668.149780,964.645447 667.098877,963.383484 
	C666.297119,964.679749 665.092773,965.880310 664.758240,967.287659 
	C662.407043,977.179077 658.679077,986.422791 652.418701,995.313904 
	C651.897888,990.321106 651.445312,985.983276 650.998901,981.703735 
	C647.288635,980.945374 647.288635,980.945374 646.166809,989.891968 
	C645.765625,988.120361 645.646790,986.215881 644.891418,984.611084 
	C643.959778,982.631897 642.851868,980.061707 641.148010,979.345215 
	C639.907410,978.823486 637.552612,980.844604 635.749390,981.832275 
	C635.206177,982.129700 634.846741,982.762573 633.878662,983.808105 
	C631.435242,975.373108 629.875122,967.667480 635.160461,960.139160 
	C635.811401,959.211914 635.716187,957.760742 635.966736,956.552368 
	C634.613403,956.458313 633.192139,956.055664 631.921021,956.335327 
	C629.387695,956.892822 626.936768,957.825073 624.451843,958.602478 
	C624.021729,958.060303 623.591614,957.518127 623.161560,956.975952 
	C625.021912,955.520691 626.981934,954.175171 628.725952,952.591736 
	C637.822571,944.332520 640.075378,934.216431 636.719543,922.608215 
	C635.661072,918.947021 634.690369,915.260437 633.491455,911.201172 
z"/>
<path fill="#010101" opacity="1.000000" stroke="none" 
	d="
M718.075500,998.368286 
	C717.987427,997.669739 718.113281,997.298767 718.239136,996.927795 
	C718.255920,997.517151 718.272705,998.106445 718.075500,998.368286 
z"/>
<path fill="#010101" opacity="1.000000" stroke="none" 
	d="
M929.215454,1103.740967 
	C929.213745,1103.419800 929.443420,1103.338501 929.673096,1103.257202 
	C929.597656,1103.498413 929.522217,1103.739502 929.215454,1103.740967 
z"/>
<path fill="#010101" opacity="1.000000" stroke="none" 
	d="
M799.258911,1053.212891 
	C799.579163,1053.211060 799.660278,1053.439453 799.741455,1053.667847 
	C799.500916,1053.592896 799.260437,1053.517944 799.258911,1053.212891 
z"/>
<path fill="#000000" opacity="1.000000" stroke="none" 
	d="
M825.911865,1048.868286 
	C826.071167,1048.750244 826.492981,1048.852905 826.835022,1049.204590 
	C826.561584,1049.332031 826.367920,1049.210449 825.911865,1048.868286 
z"/>
<path fill="#000000" opacity="1.000000" stroke="none" 
	d="
M828.076355,765.128601 
	C827.916260,765.254150 827.490601,765.165161 827.145630,764.818481 
	C827.421143,764.678589 827.615967,764.796326 828.076355,765.128601 
z"/>
<path fill="#020202" opacity="1.000000" stroke="none" 
	d="
M596.075562,1495.980713 
	C582.660645,1492.620361 569.557861,1489.601929 556.663635,1485.864258 
	C551.709961,1484.428345 547.168884,1481.468750 542.558105,1478.984009 
	C539.351990,1477.256348 536.421448,1475.021606 533.236267,1473.249878 
	C527.991821,1470.332886 523.344238,1468.910889 517.186829,1473.028931 
	C512.720703,1476.015991 506.096985,1475.810181 500.417908,1476.940552 
	C495.385895,1477.942139 490.306885,1478.714478 485.288574,1479.776611 
	C467.751587,1483.488403 450.221680,1484.535889 432.668945,1479.932617 
	C431.716797,1479.682861 430.633026,1479.542358 429.884613,1478.983765 
	C427.857635,1477.471069 425.978394,1475.760254 424.040466,1474.128174 
	C425.607452,1472.618408 426.973907,1470.786621 428.780518,1469.661743 
	C433.502167,1466.721436 438.416229,1464.090088 443.253571,1461.335693 
	C443.805176,1461.751221 444.356781,1462.166748 444.908386,1462.582397 
	C443.781311,1465.254028 442.641418,1467.920410 441.533234,1470.599731 
	C441.057251,1471.750732 440.646973,1472.928833 440.206848,1474.094604 
	C441.360016,1474.332764 442.520935,1474.539551 443.664032,1474.819092 
	C444.647919,1475.059570 445.938293,1475.079834 446.531494,1475.718750 
	C450.679718,1480.187256 456.155792,1480.316406 460.858490,1478.426025 
	C470.195160,1474.672974 479.522278,1470.511353 488.042725,1465.214600 
	C497.667694,1459.231079 497.923187,1456.041138 492.158905,1446.383911 
	C478.292511,1423.152222 464.307434,1399.991455 450.371216,1376.801514 
	C449.698029,1375.681274 449.033997,1374.555664 448.318176,1373.352661 
	C450.128601,1371.824097 451.903503,1370.325562 454.167114,1368.414551 
	C455.233887,1369.285645 457.058319,1370.389893 458.385834,1371.923950 
	C465.556580,1380.210693 474.497192,1385.763794 484.828094,1389.073120 
	C490.920227,1391.024658 494.725891,1394.832031 497.659515,1400.567017 
	C501.262390,1407.610474 505.560242,1414.437866 510.471558,1420.634277 
	C515.695312,1427.225098 522.359985,1431.457764 531.555847,1432.221069 
	C539.881104,1432.912231 547.948486,1436.289917 556.234009,1437.967041 
	C573.300110,1441.421509 590.357666,1439.308228 607.448792,1437.604980 
	C620.315918,1436.322632 633.268188,1435.894531 646.174866,1435.086548 
	C644.149414,1462.368042 642.212769,1488.452637 640.368530,1513.293335 
	C626.194580,1507.721069 611.332764,1501.878418 596.075562,1495.980713 
z"/>
<path fill="#000000" opacity="1.000000" stroke="none" 
	d="
M409.702209,1424.440674 
	C407.453735,1421.189087 405.096283,1417.965820 402.950836,1414.607178 
	C396.973328,1405.249512 390.894806,1395.947510 385.233246,1386.400024 
	C382.028564,1380.995850 384.102753,1375.550171 389.857391,1372.832642 
	C402.664856,1366.784424 415.926514,1362.061035 430.084625,1360.576904 
	C431.952271,1360.380981 434.650146,1362.184082 435.970917,1363.848877 
	C439.367737,1368.130127 442.422607,1372.724609 445.232941,1377.422119 
	C459.702576,1401.608521 473.992249,1425.902588 488.500610,1450.065674 
	C491.022400,1454.265625 490.682831,1457.227905 486.638733,1460.056396 
	C477.331268,1466.567017 467.607025,1472.204468 456.328339,1474.447510 
	C450.930817,1475.520996 447.847351,1472.010132 448.778900,1466.578247 
	C449.524841,1462.228882 448.235596,1458.707275 444.021698,1456.672607 
	C450.689209,1445.707642 448.914825,1441.336426 436.955292,1439.874023 
	C437.597565,1438.173096 438.362976,1436.569336 438.812653,1434.881470 
	C440.678223,1427.878784 437.992096,1424.008423 430.795135,1424.115112 
	C423.839661,1424.218140 416.894257,1425.001953 409.809418,1424.911987 
	C409.674408,1424.337280 409.689972,1424.407104 409.702209,1424.440674 
z"/>
<path fill="#060606" opacity="1.000000" stroke="none" 
	d="
M441.443268,1445.123291 
	C442.066711,1446.678833 442.436310,1448.151978 442.423920,1449.622070 
	C442.359955,1457.222656 436.835266,1460.175415 431.045227,1462.999268 
	C428.232941,1464.370850 425.620575,1466.152222 422.575958,1467.949951 
	C420.288361,1465.143921 417.943420,1462.587280 415.965942,1459.772461 
	C412.321228,1454.584595 413.106995,1450.971069 419.260315,1449.178467 
	C426.314484,1447.123291 433.745758,1446.362671 441.443268,1445.123291 
z"/>
<path fill="#050505" opacity="1.000000" stroke="none" 
	d="
M405.535583,1441.337891 
	C401.516754,1434.769043 402.336487,1431.811768 409.428070,1430.498169 
	C416.397827,1429.207031 423.597595,1429.062134 430.710785,1428.684082 
	C433.911377,1428.514038 435.293335,1429.604248 434.333618,1433.585449 
	C433.030090,1438.992920 430.670380,1441.887451 424.933868,1442.884033 
	C420.199615,1443.706543 415.737885,1446.097900 410.610474,1447.995728 
	C409.362213,1446.349121 407.570282,1443.985352 405.535583,1441.337891 
z"/>
<path fill="#1C1C1C" opacity="1.000000" stroke="none" 
	d="
M390.821899,1414.300781 
	C392.266327,1413.153076 393.457123,1412.326294 395.025116,1411.237549 
	C396.726013,1413.477051 398.251770,1415.485962 399.777527,1417.494751 
	C399.620514,1417.756836 399.463501,1418.018921 399.306488,1418.281006 
	C396.393738,1417.061157 393.480988,1415.841431 390.821899,1414.300781 
z"/>
</svg>