<?xml version="1.0" standalone="no"?>
<!DOCTYPE svg PUBLIC "-//W3C//DTD SVG 20010904//EN"
 "http://www.w3.org/TR/2001/REC-SVG-20010904/DTD/svg10.dtd">
<svg version="1.0" xmlns="http://www.w3.org/2000/svg"
 width="589.000000pt" height="1280.000000pt" viewBox="0 0 589.000000 1280.000000"
 preserveAspectRatio="xMidYMid meet">

<g transform="translate(0.000000,1280.000000) scale(0.100000,-0.100000)"
fill="#000000" stroke="none">
<path d="M0 6400 l0 -6400 2945 0 2945 0 0 6400 0 6400 -2945 0 -2945 0 0
-6400z m3560 850 c37 -29 70 -83 70 -114 0 -8 -14 -31 -30 -50 -18 -20 -28
-40 -24 -49 14 -37 -71 -214 -114 -240 -36 -21 -38 -25 -51 -142 -11 -91 -5
-160 20 -244 l12 -40 31 17 c17 9 83 48 146 86 127 77 276 149 294 143 6 -2
-32 -25 -84 -52 -52 -26 -138 -73 -190 -104 -52 -30 -117 -68 -145 -82 -48
-26 -49 -28 -47 -70 1 -24 -2 -51 -8 -59 -7 -11 -10 -3 -10 30 0 25 -7 70 -15
100 -31 114 -36 178 -24 284 13 116 19 130 59 151 32 16 61 66 91 152 23 67 2
74 -33 11 -13 -23 -37 -49 -54 -59 -17 -9 -55 -35 -85 -58 -30 -22 -61 -41
-71 -41 -9 0 -30 17 -46 37 l-30 38 -7 -35 c-5 -26 0 -49 20 -92 26 -56 26
-57 11 -135 -21 -112 -36 -292 -36 -425 0 -115 0 -116 41 -197 28 -57 47 -83
63 -87 28 -7 121 15 266 61 61 20 114 34 117 31 3 -3 -7 -10 -23 -16 -16 -6
-45 -17 -64 -25 -55 -24 -197 -64 -250 -71 -28 -4 -56 -2 -68 5 -12 6 -40 50
-63 97 l-42 86 2 127 c1 137 15 293 36 411 12 71 12 78 -8 120 -15 32 -22 69
-24 125 -3 111 -7 145 -15 145 -22 0 -3 42 31 69 38 30 65 39 74 24 2 -5 2 -3
1 4 -4 18 28 52 51 56 12 1 36 14 55 27 61 44 115 78 124 79 4 1 25 -12 46
-29z"/>
<path d="M3459 7222 c-64 -43 -82 -59 -98 -89 -6 -13 -18 -23 -25 -23 -18 0
-46 -33 -46 -56 -1 -27 -45 -57 -72 -49 -19 7 -20 4 -14 -21 11 -42 81 -139
99 -138 18 2 187 133 187 145 0 5 21 30 46 56 73 76 77 84 60 125 -8 19 -30
47 -49 61 l-34 26 -54 -37z"/>
<path d="M3305 7140 c-3 -5 -2 -10 4 -10 5 0 13 5 16 10 3 6 2 10 -4 10 -5 0
-13 -4 -16 -10z"/>
<path d="M3236 7091 c-3 -4 3 -16 14 -26 19 -18 20 -17 20 8 0 26 -22 38 -34
18z"/>
<path d="M3201 7057 c-8 -11 -5 -16 14 -25 25 -12 30 -6 19 22 -7 20 -18 20
-33 3z"/>
</g>
</svg>
